<svg width="250" height="249" viewBox="0 0 250 249" fill="none" xmlns="http://www.w3.org/2000/svg">
<g clip-path="url(#clip0_1650_1230)">
<path d="M242.978 165.971C242.323 167.793 241.615 169.606 240.858 171.414C239.576 174.471 238.181 177.449 236.676 180.341C211.063 229.611 154.052 254.692 102.876 246.547C56.9735 239.24 11.4424 204.485 2.82077 161.917C2.35246 159.612 1.99578 157.286 1.74937 154.941C1.23341 149.986 -0.637121 123.307 15.3563 100.222C28.5752 81.1399 41.2755 83.351 61.8595 62.6486C87.8263 36.5363 80.3932 20.1662 98.1605 8.07681C125.502 -10.5302 176.531 5.47523 206.635 31.0692C242.216 61.3138 261.176 115.672 242.978 165.971Z" fill="#C4C4C4"/>
<path d="M242.978 165.971C242.323 167.793 241.615 169.606 240.858 171.414C239.576 174.471 238.181 177.449 236.676 180.341C211.063 229.611 154.052 254.692 102.876 246.547C56.9735 239.24 11.4424 204.485 2.8208 161.917L242.978 165.971Z" fill="#76D8EF"/>
<path d="M178.889 117.419L145.578 117.627C145.362 117.627 145.291 117.827 145.291 118.021V146.345C145.291 149.057 126.365 156.103 126.182 155.745L126.158 158.742C126.158 159.3 126.649 159.795 127.273 159.795H155.625C156.921 159.795 158.201 159.506 159.375 159.014L174.73 152.553C177.493 151.389 179.237 148.891 179.237 146.166V117.812C179.237 117.621 179.102 117.419 178.886 117.419H178.889Z" fill="#76D8EF"/>
<path d="M141.919 115.978V144.31C141.919 147.103 140.121 149.648 137.296 150.853L126.937 155.273C126.261 155.561 126.491 156.467 127.241 156.467H155.702C156.981 156.467 158.246 156.214 159.403 155.727L170.88 150.898C173.726 149.701 175.542 147.145 175.542 144.338V115.98C175.542 115.864 175.438 115.77 175.307 115.77H142.155C142.024 115.77 141.919 115.864 141.919 115.98V115.978Z" fill="white"/>
<path d="M154.636 156.916H127.241C126.679 156.916 126.212 156.556 126.107 156.039C126.005 155.542 126.267 155.067 126.76 154.856L137.119 150.437C139.761 149.309 141.469 146.904 141.469 144.308V134.039C141.469 133.79 141.67 133.589 141.919 133.589C142.168 133.589 142.37 133.79 142.37 134.039V144.308C142.37 147.265 140.447 149.996 137.473 151.265L127.114 155.685C127.016 155.727 126.974 155.784 126.989 155.859C127.004 155.935 127.079 156.015 127.241 156.015H154.636C154.885 156.015 155.086 156.217 155.086 156.466C155.086 156.715 154.885 156.916 154.636 156.916Z" fill="#404040"/>
<path d="M79.8706 132.031L216.834 132.329L219.213 132.335L223.634 132.344C224.891 132.344 225.923 131.363 226.084 130.115L237.535 40.6672C237.814 38.4915 236.227 36.4355 234.035 36.4355L92.1311 36.5648L79.8706 132.033V132.031Z" fill="#007C99"/>
<path d="M228.712 36.4152C231.182 36.4152 233.191 38.9011 232.874 41.3557L221.34 130.119C221.18 131.367 220.119 132.302 218.863 132.302L217.782 132.343L77.9714 132.302C76.4643 132.302 75.3017 130.975 75.4937 129.479L87.26 38.9092C87.4207 37.6615 88.3804 36.4152 89.637 36.4152H228.712Z" fill="#C4C4C4"/>
<path d="M224.323 108.224C224.304 108.224 224.285 108.224 224.265 108.22C224.018 108.188 223.844 107.963 223.875 107.716L232.427 41.2986C232.562 40.2549 232.241 39.2032 231.545 38.4126C230.854 37.6262 229.857 37.1758 228.812 37.1758H205.391C205.141 37.1758 204.94 36.9744 204.94 36.7254C204.94 36.4764 205.141 36.275 205.391 36.275H228.812C230.116 36.275 231.359 36.837 232.222 37.8166C233.088 38.8004 233.488 40.1107 233.321 41.4115L224.768 107.829C224.738 108.056 224.545 108.222 224.322 108.222L224.323 108.224Z" fill="#404040"/>
<path d="M101.813 132.71C101.565 132.71 101.364 132.51 101.363 132.262C101.363 132.013 101.561 131.811 101.81 131.809L157.304 131.536H157.307C157.555 131.536 157.756 131.736 157.757 131.984C157.757 132.233 157.559 132.435 157.31 132.437L101.816 132.71H101.813Z" fill="#404040"/>
<path d="M196.195 34.5376C196.335 33.4463 195.487 32.4789 194.388 32.4789H96.8279C96.2698 32.4789 95.7974 32.8939 95.7266 33.449L87.8605 92.3573C87.7802 92.9587 88.2485 93.4934 88.8557 93.4934H187.354C187.912 93.4934 188.384 93.0784 188.455 92.5233L196.195 34.5376Z" fill="#959595"/>
<path d="M194.388 32.4789C195.487 32.4789 196.335 33.4463 196.195 34.5376L195.455 39.406L94.7844 39.3897L95.7251 33.449C95.7973 32.8939 96.2683 32.4789 96.8265 32.4789H194.387H194.388Z" fill="white"/>
<path d="M137.797 36.2506C137.885 35.558 137.345 34.9443 136.647 34.9443H100.582C99.9984 34.9443 99.5056 35.3784 99.4321 35.9567C99.3436 36.6492 99.8841 37.2629 100.582 37.2629H136.647C137.231 37.2629 137.723 36.8288 137.797 36.2506Z" fill="#959595"/>
<path d="M191.004 73.889C190.983 73.889 190.964 73.889 190.944 73.885C190.697 73.8523 190.525 73.6251 190.557 73.3788L195.749 34.4776C195.8 34.0871 195.679 33.6912 195.417 33.3932C195.157 33.0979 194.783 32.9279 194.389 32.9279H126.068C125.818 32.9279 125.617 32.7265 125.617 32.4775C125.617 32.2285 125.818 32.0271 126.068 32.0271H194.389C195.042 32.0271 195.662 32.3088 196.094 32.7986C196.527 33.2898 196.727 33.9443 196.643 34.5947L191.45 73.4972C191.42 73.723 191.227 73.8877 191.005 73.8877L191.004 73.889Z" fill="#404040"/>
<path d="M115.569 61.1206H108.813L108.048 65.6924H115.977L115.505 68.5171H104.058L106.914 51.4504H118.338L117.861 54.2983H109.957L109.276 58.3667H116.031L115.57 61.1206H115.569Z" fill="white"/>
<path d="M124.935 62.2704H122.132L121.086 68.5171H117.568L120.425 51.4504H126.77C128.787 51.4504 130.267 51.8995 131.212 52.7988C132.157 53.6969 132.492 54.9677 132.217 56.6087C132.022 57.7734 131.607 58.7436 130.972 59.5219C130.338 60.3001 129.469 60.9192 128.368 61.3805L130.895 68.3552L130.868 68.5199H127.091L124.935 62.2731V62.2704ZM122.608 59.4225H125.447C126.33 59.4225 127.052 59.198 127.611 58.749C128.171 58.3 128.517 57.6809 128.65 56.8917C128.785 56.0862 128.662 55.4535 128.281 54.9922C127.901 54.531 127.238 54.301 126.292 54.301H123.466L122.608 59.4239V59.4225Z" fill="white"/>
<path d="M140.262 62.2704H137.459L136.414 68.5171H132.896L135.752 51.4504H142.098C144.115 51.4504 145.595 51.8995 146.54 52.7988C147.484 53.6969 147.819 54.9677 147.544 56.6087C147.35 57.7734 146.934 58.7436 146.3 59.5219C145.666 60.3001 144.797 60.9192 143.696 61.3805L146.222 68.3552L146.195 68.5199H142.419L140.262 62.2731V62.2704ZM137.936 59.4225H140.774C141.658 59.4225 142.379 59.198 142.939 58.749C143.498 58.3 143.844 57.6809 143.978 56.8917C144.112 56.0862 143.99 55.4535 143.609 54.9922C143.229 54.531 142.566 54.301 141.62 54.301H138.793L137.936 59.4239V59.4225Z" fill="white"/>
<path d="M163.614 60.3709C163.332 62.0513 162.789 63.5236 161.983 64.7903C161.177 66.0557 160.163 67.0327 158.942 67.7212C157.721 68.4097 156.395 68.7526 154.964 68.7526C153.533 68.7526 152.343 68.4124 151.347 67.7334C150.35 67.0531 149.653 66.083 149.254 64.8203C148.855 63.5589 148.79 62.1058 149.057 60.4648L149.198 59.6212C149.48 57.9408 150.03 56.4618 150.85 55.1841C151.669 53.9064 152.69 52.9254 153.91 52.2424C155.131 51.5593 156.453 51.2164 157.876 51.2164C159.299 51.2164 160.506 51.558 161.499 52.2424C162.491 52.9268 163.183 53.9064 163.575 55.1841C163.967 56.4618 164.022 57.9367 163.743 59.609L163.615 60.3709H163.614ZM160.178 59.5967C160.477 57.8074 160.385 56.4482 159.899 55.5175C159.413 54.5868 158.576 54.1228 157.389 54.1228C156.201 54.1228 155.22 54.5813 154.425 55.4998C153.63 56.4182 153.08 57.7639 152.776 59.5382L152.637 60.3709C152.346 62.1139 152.44 63.4651 152.92 64.4257C153.401 65.3877 154.242 65.868 155.447 65.868C156.652 65.868 157.612 65.4054 158.4 64.4787C159.188 63.5521 159.734 62.2024 160.039 60.4294L160.178 59.5967Z" fill="white"/>
<path d="M172.174 62.2704H169.371L168.326 68.5171H164.808L167.664 51.4504H174.01C176.027 51.4504 177.507 51.8995 178.452 52.7988C179.397 53.6969 179.731 54.9677 179.456 56.6087C179.262 57.7734 178.847 58.7436 178.212 59.5219C177.578 60.3001 176.709 60.9192 175.608 61.3805L178.135 68.3552L178.107 68.5199H174.331L172.174 62.2731V62.2704ZM169.848 59.4225H172.686C173.57 59.4225 174.291 59.198 174.851 58.749C175.41 58.3 175.756 57.6809 175.89 56.8917C176.024 56.0862 175.902 55.4535 175.521 54.9922C175.141 54.531 174.478 54.301 173.532 54.301H170.706L169.848 59.4239V59.4225Z" fill="white"/>
<path d="M211.558 77.0036C211.652 76.1437 211.083 75.3831 210.345 75.3831H144.845C144.471 75.3831 144.153 75.7096 144.106 76.1477L138.825 122.516C138.771 122.99 139.085 123.41 139.493 123.41H205.624C205.998 123.41 206.315 123.084 206.363 122.645L211.559 77.0036H211.558Z" fill="white"/>
<path d="M158.472 123.86H139.493C139.188 123.86 138.904 123.73 138.691 123.492C138.448 123.22 138.333 122.845 138.377 122.464L143.658 76.096C143.731 75.4333 144.24 74.9326 144.845 74.9326H210.345C210.788 74.9326 211.206 75.1258 211.521 75.4769C211.893 75.8919 212.07 76.4661 212.004 77.0525L208.638 106.63C208.609 106.877 208.386 107.054 208.139 107.026C207.891 106.998 207.715 106.775 207.743 106.528L211.11 76.9518C211.145 76.6253 211.049 76.2974 210.85 76.0769C210.75 75.9654 210.582 75.8334 210.343 75.8334H144.844C144.702 75.8334 144.574 75.9926 144.551 76.1967L139.27 122.568C139.256 122.692 139.29 122.813 139.361 122.893C139.389 122.924 139.433 122.961 139.491 122.961H158.47C158.719 122.961 158.92 123.162 158.92 123.411C158.92 123.66 158.719 123.862 158.47 123.862L158.472 123.86Z" fill="#404040"/>
<path d="M156.207 109.53L173.388 83.7333C174.194 82.5237 175.996 82.5972 176.7 83.8707L190.944 109.667C191.657 110.959 190.722 112.542 189.246 112.542H157.82C156.272 112.542 155.348 110.819 156.206 109.53H156.207Z" fill="#007C99"/>
<path d="M173.664 104.027L171.652 103.985C171.385 103.943 171.199 103.694 171.231 103.423L172.903 90.1079C172.937 89.8222 173.2 89.6222 173.482 89.6671L176.448 89.7283C176.73 89.7732 176.919 90.0453 176.863 90.3283L174.237 103.625C174.184 103.893 173.931 104.071 173.664 104.027Z" fill="white"/>
<path d="M173.628 108.275C173.855 107.373 173.365 106.473 172.534 106.264C171.703 106.055 170.845 106.616 170.618 107.517C170.391 108.419 170.88 109.319 171.712 109.528C172.543 109.737 173.401 109.176 173.628 108.275Z" fill="white"/>
<path d="M54.3217 15.8216C54.4374 14.925 55.1998 14.2528 56.1024 14.2528H100.915C102.69 14.2528 104.061 15.8148 103.834 17.5796L99.1613 52.0287C99.0456 52.9254 98.2832 53.5975 97.3806 53.5975H51.0517C50.0701 53.5975 49.3132 52.7335 49.4439 51.762L54.3217 15.8216Z" fill="white"/>
<path d="M53.6627 21.135C53.6423 21.135 53.6219 21.135 53.6015 21.131C53.3551 21.0969 53.1822 20.8711 53.2162 20.6248L53.8765 15.7618C54.0194 14.6474 54.9778 13.8038 56.1023 13.8038H94.7857C95.0349 13.8038 95.2364 14.0052 95.2364 14.2542C95.2364 14.5032 95.0349 14.7046 94.7857 14.7046H56.1023C55.4284 14.7046 54.8553 15.2108 54.7695 15.8802L54.1093 20.7459C54.0779 20.9718 53.886 21.135 53.6641 21.135H53.6627Z" fill="#404040"/>
<path d="M51.0543 54.0493C50.4553 54.0493 49.8863 53.7908 49.4928 53.3418C49.0994 52.8928 48.9184 52.2954 48.9987 51.7035L52.3817 26.7777C52.4157 26.5314 52.6444 26.3573 52.8881 26.3926C53.1345 26.4266 53.3074 26.6525 53.2734 26.8988L49.8904 51.8233C49.8454 52.1566 49.9475 52.4954 50.1708 52.7485C50.3927 53.003 50.7154 53.1486 51.053 53.1486L57.0281 53.1241H57.0294C57.2772 53.1241 57.4787 53.3241 57.48 53.5731C57.48 53.8221 57.2799 54.0235 57.0321 54.0248L51.0557 54.0493H51.0543Z" fill="#404040"/>
<path d="M97.3805 54.0494L60.9338 54.0249C60.6846 54.0249 60.4832 53.8235 60.4832 53.5745C60.4832 53.3255 60.6846 53.1241 60.9338 53.1241L97.3805 53.1486C98.0544 53.1486 98.6275 52.6424 98.7133 51.973L102.94 20.8113C102.974 20.565 103.203 20.3908 103.447 20.4262C103.693 20.4602 103.866 20.6861 103.832 20.9324L99.6063 52.0914C99.4634 53.2071 98.505 54.0494 97.3805 54.0494Z" fill="#404040"/>
<path d="M78.9161 24.6823H58.5241C57.9442 24.6823 57.4731 24.2115 57.4731 23.6318C57.4731 23.0522 57.9442 22.5814 58.5241 22.5814H78.9161C79.4961 22.5814 79.9671 23.0522 79.9671 23.6318C79.9671 24.2115 79.4961 24.6823 78.9161 24.6823Z" fill="#C4C4C4"/>
<path d="M69.4533 20.5269H59.2185C58.6385 20.5269 58.1675 20.0561 58.1675 19.4765C58.1675 18.8968 58.6385 18.426 59.2185 18.426H69.4533C70.0332 18.426 70.5043 18.8968 70.5043 19.4765C70.5043 20.0561 70.0332 20.5269 69.4533 20.5269Z" fill="#959595"/>
<path d="M243.39 120.192C243.494 119.387 242.868 118.674 242.058 118.674H170.101C169.688 118.674 169.341 118.98 169.288 119.389L163.486 162.836C163.426 163.28 163.772 163.675 164.22 163.675H236.868C237.281 163.675 237.628 163.368 237.681 162.959L243.389 120.192H243.39Z" fill="#C4C4C4"/>
<path d="M242.058 118.674C242.868 118.674 243.494 120.047 243.391 121.596L242.293 128.449L167.992 128.551L169.288 120.051C169.341 119.263 169.688 118.672 170.101 118.672H242.058V118.674Z" fill="#007C99"/>
<path d="M164.152 158.001L163.489 163.038C163.429 163.481 163.775 163.752 164.222 163.752H236.871C237.283 163.752 237.63 163.57 237.684 163.16L238.363 158.001H164.152Z" fill="#959595"/>
<path d="M235.501 135.747H189.359C188.779 135.747 188.308 135.276 188.308 134.697C188.308 134.117 188.779 133.646 189.359 133.646H235.501C236.081 133.646 236.552 134.117 236.552 134.697C236.552 135.276 236.081 135.747 235.501 135.747Z" fill="white"/>
<path d="M231.803 141.503H186.894C186.314 141.503 185.843 141.032 185.843 140.452C185.843 139.873 186.314 139.402 186.894 139.402H231.803C232.382 139.402 232.854 139.873 232.854 140.452C232.854 141.032 232.382 141.503 231.803 141.503Z" fill="white"/>
<path d="M230.569 146.724H220.355C219.775 146.724 219.304 146.253 219.304 145.673C219.304 145.093 219.775 144.623 220.355 144.623H230.569C231.149 144.623 231.62 145.093 231.62 145.673C231.62 146.253 231.149 146.724 230.569 146.724Z" fill="white"/>
<path d="M228.809 152.211H173.157C172.577 152.211 172.106 151.74 172.106 151.161C172.106 150.581 172.577 150.11 173.157 150.11H228.809C229.389 150.11 229.86 150.581 229.86 151.161C229.86 151.74 229.389 152.211 228.809 152.211Z" fill="white"/>
<path d="M230.577 164.179L164.223 164.126C163.88 164.126 163.553 163.978 163.327 163.719C163.101 163.461 162.997 163.118 163.042 162.778L168.844 119.331C168.926 118.701 169.467 118.225 170.104 118.225H242.061C242.575 118.225 243.065 118.446 243.406 118.833C243.747 119.221 243.905 119.738 243.838 120.251L239.109 156.12C239.076 156.367 238.85 156.541 238.604 156.508C238.358 156.475 238.183 156.249 238.216 156.003L242.945 120.136C242.978 119.882 242.899 119.623 242.729 119.43C242.557 119.234 242.319 119.127 242.059 119.127H170.102C169.917 119.127 169.761 119.266 169.736 119.451L163.934 162.9C163.919 163.013 163.971 163.092 164.003 163.13C164.036 163.167 164.107 163.23 164.221 163.23L230.576 163.283C230.825 163.283 231.027 163.484 231.027 163.733C231.027 163.982 230.825 164.183 230.576 164.183L230.577 164.179Z" fill="#404040"/>
<path d="M82.6555 45.1013C86.275 41.4838 86.275 35.6185 82.6555 32.001C79.0361 28.3834 73.1677 28.3834 69.5483 32.001C65.9288 35.6185 65.9288 41.4838 69.5483 45.1013C73.1677 48.7189 79.0361 48.7189 82.6555 45.1013Z" fill="#CA0000"/>
<path d="M72.3018 33.4172L70.7039 35.0143L79.3772 43.6831L80.9752 42.0859L72.3018 33.4172Z" fill="white"/>
<path d="M70.7023 42.086L72.3003 43.6831L80.9737 35.0143L79.3757 33.4172L70.7023 42.086Z" fill="white"/>
<path d="M71.758 216.445C66.0607 216.445 62.3536 210.242 64.9021 204.968C65.4862 203.758 66.0811 202.54 66.6678 201.358C71.046 192.525 83.5775 194.454 85.139 204.248C85.1662 204.42 85.5161 204.594 85.5392 204.768C86.3479 210.966 81.5776 216.444 75.5331 216.444H71.7594L71.758 216.445Z" fill="#404040"/>
<path d="M150.933 109.881C150.464 107.456 149.355 104.002 146.757 102.524C144.589 101.291 140.536 99.1931 136.715 103.339C136.715 103.339 127.126 118.32 115.581 118.685C105.099 119.015 93.6598 105.67 63.7368 105.29C52.9697 104.075 41.8581 104.946 34.3202 107.017C4.68171 115.16 0.450562 125.214 0.450562 146.992C0.450562 165.978 20.0135 176.436 20.0135 176.436C20.0135 176.436 10.6214 207.764 15.9239 210.797C21.2265 213.83 28.4894 215.544 36.5787 212.472C52.7573 206.327 78.0026 199.37 85.5419 204.765C85.5419 204.765 75.4487 162.083 81.8036 139.901C90.8199 141.642 110.606 147.135 120.48 145.665C132.925 143.812 146.371 121.304 150.199 114.453C150.97 113.072 151.236 111.447 150.934 109.882L150.933 109.881Z" fill="#76D8EF"/>
<path d="M27.9844 214.524C23.7641 214.524 19.5752 213.404 15.6994 211.187C13.2788 209.804 13.2257 203.653 15.5374 192.389C17.009 185.219 19.0075 178.259 19.4785 176.653C18.3023 175.975 14.078 173.401 9.90944 169.149C5.38968 164.537 0 156.952 0 146.992C0 136.422 1.00606 128.062 5.91245 121.619C10.7508 115.267 19.4758 110.629 34.2018 106.583C42.2802 104.364 53.6068 103.696 63.7654 104.84C82.3059 105.079 93.8708 110.311 102.315 114.13C107.535 116.491 111.656 118.35 115.567 118.233C126.74 117.88 136.241 103.242 136.336 103.094C136.35 103.072 136.366 103.051 136.384 103.032C140.573 98.4869 145.063 101.041 146.979 102.131C149.686 103.67 150.863 107.148 151.374 109.794C151.695 111.457 151.417 113.189 150.59 114.669C146.736 121.569 133.178 144.227 120.544 146.107C112.749 147.269 98.9991 144.17 88.959 141.908C86.3206 141.314 84.0172 140.795 82.1222 140.42C76.1022 162.349 85.8768 204.236 85.9776 204.659C86.0211 204.841 85.9463 205.032 85.7897 205.136C85.6331 205.24 85.4289 205.237 85.2765 205.128C77.5847 199.624 51.1455 207.417 36.7367 212.89C33.8669 213.979 30.9168 214.521 27.983 214.521L27.9844 214.524ZM53.6871 105.19C46.6978 105.19 39.8338 105.971 34.44 107.451C4.20937 115.758 0.90123 126.378 0.90123 146.992C0.90123 156.637 6.1398 164.012 10.5357 168.499C15.3223 173.387 20.1783 176.013 20.2259 176.039C20.4152 176.14 20.5064 176.36 20.4451 176.565C20.422 176.644 18.0818 184.476 16.4209 192.575C13.547 206.582 15.016 209.759 16.1486 210.406C20.6275 212.968 27.7788 215.333 36.4195 212.051C50.4729 206.713 75.8898 199.233 84.8694 203.833C83.3896 197.152 75.608 159.892 81.3707 139.776C81.4347 139.552 81.6593 139.414 81.8894 139.458C83.8702 139.84 86.322 140.392 89.1605 141.032C99.1312 143.278 112.788 146.353 120.415 145.219C132.643 143.398 146.003 121.041 149.807 114.232C150.531 112.937 150.775 111.421 150.493 109.967C150.018 107.507 148.945 104.285 146.537 102.916C143.683 101.294 140.33 100.11 137.075 103.615C136.436 104.606 127.084 118.772 115.598 119.134C111.479 119.27 107.272 117.361 101.948 114.951C93.5727 111.161 82.1017 105.972 63.7354 105.739C63.7205 105.739 63.7055 105.739 63.6905 105.737C60.4287 105.369 57.0443 105.188 53.6912 105.188L53.6871 105.19Z" fill="#404040"/>
<path d="M142.94 117.551C142.917 117.551 142.895 117.551 142.872 117.551C140.275 117.513 137.775 115.296 135.446 110.961C135.329 110.742 135.41 110.469 135.63 110.352C135.849 110.235 136.122 110.316 136.239 110.536C138.403 114.56 140.638 116.618 142.886 116.652C145.811 116.702 147.844 113.223 147.864 113.189C147.988 112.972 148.263 112.899 148.48 113.023C148.695 113.147 148.77 113.421 148.646 113.638C148.553 113.798 146.352 117.552 142.941 117.552L142.94 117.551Z" fill="#404040"/>
<path d="M46.9334 167.143C46.8694 167.143 46.8054 167.129 46.7442 167.101C35.5224 161.913 30.0823 154.279 27.4943 148.79C24.6845 142.831 24.5402 138.162 24.5347 137.966C24.5279 137.717 24.7253 137.512 24.9731 137.505C25.2222 137.505 25.4278 137.696 25.4346 137.943C25.4346 137.99 25.5857 142.65 28.3275 148.445C30.8542 153.787 36.1649 161.216 47.1213 166.282C47.3473 166.386 47.4453 166.653 47.3405 166.879C47.2642 167.044 47.1009 167.14 46.932 167.14L46.9334 167.143Z" fill="#404040"/>
<path d="M42.0732 182.418H42.0678C28.3737 182.254 19.6242 176.741 19.5371 176.685C19.3274 176.55 19.2675 176.273 19.4009 176.063C19.5343 175.854 19.8134 175.794 20.0231 175.927C20.1075 175.982 28.6569 181.358 42.0787 181.517C42.3278 181.52 42.5266 181.724 42.5239 181.973C42.5211 182.219 42.3196 182.418 42.0732 182.418Z" fill="#404040"/>
<path d="M54.557 181.109C54.557 181.109 51.7948 181.405 46.3275 180.037C42.1958 179.003 43.4155 165.597 48.4404 169.229C52.6361 172.26 55.0907 172.655 55.0907 172.655L59.1367 170.64C60.7254 169.849 62.4285 169.33 64.1806 169.124C71.1549 168.302 70.7356 169.913 70.7356 169.913C71.0351 171.541 70.4524 171.787 69.1714 172.324L63.7164 174.616C62.9594 174.934 62.7865 175.964 63.3964 176.528C64.3439 177.402 65.4371 178.092 66.6242 178.56C68.7752 179.408 72.5231 180.773 76.3867 181.646C78.2027 182.057 78.78 184.306 77.1041 185.139L65.06 186.026C62.0078 186.251 58.9978 185.192 56.7094 183.09L54.5557 181.11L54.557 181.109Z" fill="white"/>
<path d="M64.2692 186.505C61.3912 186.505 58.565 185.404 56.4059 183.421L54.3951 181.573C53.6464 181.615 50.9236 181.652 46.2174 180.475C44.8505 180.133 43.8663 178.628 43.5191 176.346C43.078 173.459 43.7574 169.637 45.6252 168.498C46.2609 168.109 47.3106 167.859 48.7046 168.866C52.2033 171.394 54.4755 172.051 55.0309 172.183L58.9367 170.239C60.5935 169.414 62.3401 168.889 64.1276 168.678C67.9286 168.23 70.2225 168.423 70.9454 169.252C71.14 169.474 71.1999 169.713 71.1904 169.898C71.5226 171.825 70.6077 172.209 69.3457 172.739L63.8907 175.031C63.677 175.121 63.5313 175.308 63.4891 175.548C63.4469 175.791 63.5259 176.034 63.7029 176.197C64.615 177.039 65.6537 177.694 66.7891 178.141C68.7277 178.906 72.5654 180.321 76.4862 181.207C77.5861 181.456 78.4084 182.321 78.5337 183.363C78.6453 184.29 78.1865 185.104 77.3057 185.542C77.254 185.568 77.1968 185.584 77.1383 185.588L65.0942 186.475C64.8192 186.496 64.5442 186.505 64.2692 186.505ZM54.5558 180.66C54.6688 180.66 54.7777 180.702 54.8607 180.778L57.0144 182.758C59.1967 184.764 62.1182 185.794 65.0261 185.577L76.9762 184.697C77.4595 184.427 77.6991 183.984 77.6379 183.471C77.5712 182.918 77.1274 182.275 76.286 182.086C72.5069 181.231 68.8557 179.925 66.4583 178.979C65.2181 178.491 64.0854 177.777 63.0916 176.859C62.6886 176.487 62.5048 175.938 62.6015 175.393C62.6968 174.854 63.048 174.409 63.5408 174.202L68.9959 171.911C70.262 171.379 70.5261 171.269 70.2919 169.996C70.2851 169.957 70.2824 169.915 70.2865 169.875C70.2252 169.779 69.5214 168.951 64.2324 169.573C62.547 169.772 60.8998 170.267 59.3369 171.045L55.2909 173.061C55.2065 173.103 55.1126 173.118 55.0187 173.103C54.9138 173.086 52.4103 172.656 48.175 169.598C47.3677 169.014 46.6857 168.905 46.0921 169.268C44.7553 170.085 43.967 173.33 44.4081 176.213C44.6994 178.119 45.4373 179.355 46.4352 179.604C51.7377 180.931 54.4809 180.668 54.5081 180.665C54.5245 180.664 54.5394 180.662 54.5544 180.662L54.5558 180.66ZM70.3001 169.799C70.3001 169.799 70.3001 169.799 70.3001 169.8C70.3001 169.8 70.3001 169.8 70.3001 169.799Z" fill="#404040"/>
<path d="M170.12 82.7238C169.856 81.9265 169.065 81.4584 168.273 81.6326C166.062 82.1197 154.675 84.626 152.551 85.1077C150.428 85.5893 150.343 87.9528 149.133 90.1176C148.081 91.9994 144.461 98.8952 140.516 103.7C139.327 105.147 139.161 107.224 140.085 108.867C140.616 109.812 141.292 110.738 142.091 111.284C144.149 112.69 145.696 114.364 149.829 104.482C150.081 103.878 150.505 103.361 151.051 103.002C151.82 102.495 153.031 101.576 154.214 100.174C154.214 100.174 161.138 108.624 162.907 91.466C163.065 89.9407 162.385 88.4549 161.101 87.7052C160.999 87.6453 160.891 87.5854 160.778 87.5256L169.073 84.8668C169.94 84.5893 170.414 83.6164 170.119 82.7224L170.12 82.7238Z" fill="white"/>
<path d="M144.311 112.808C143.494 112.808 142.793 112.319 142.11 111.843C142.02 111.781 141.93 111.718 141.84 111.657C141.086 111.142 140.364 110.278 139.696 109.089C138.679 107.281 138.87 105 140.17 103.415C143.656 99.1687 146.914 93.2281 148.305 90.6918C148.48 90.3734 148.627 90.1067 148.742 89.8999C149.094 89.2726 149.347 88.6236 149.592 87.995C150.181 86.486 150.739 85.06 152.453 84.6709C154.805 84.1375 168.045 81.2244 168.177 81.1944C169.192 80.9699 170.213 81.5672 170.549 82.5837C170.731 83.1334 170.685 83.7443 170.424 84.2586C170.168 84.7607 169.739 85.1308 169.213 85.2982L161.829 87.6643C162.924 88.5542 163.513 90.0047 163.358 91.5136C162.675 98.1387 161.116 101.861 158.724 102.58C156.789 103.158 154.972 101.612 154.223 100.852C153.13 102.066 152.046 102.887 151.3 103.379C150.831 103.687 150.466 104.13 150.245 104.656C148.073 109.853 146.473 112.265 144.898 112.722C144.695 112.782 144.499 112.808 144.308 112.808H144.311ZM168.603 82.0476C168.526 82.0476 168.448 82.0557 168.371 82.0734C168.237 82.1033 154.999 85.0151 152.652 85.5485C151.404 85.8315 150.974 86.9309 150.43 88.3229C150.174 88.9787 149.909 89.6577 149.528 90.3394C149.413 90.5448 149.268 90.8088 149.095 91.1245C147.691 93.6839 144.405 99.6748 140.865 103.987C139.798 105.286 139.643 107.16 140.48 108.648C141.081 109.716 141.708 110.478 142.348 110.914C142.442 110.978 142.533 111.042 142.626 111.106C143.468 111.692 144.017 112.043 144.649 111.858C145.883 111.499 147.442 109.029 149.416 104.309C149.706 103.617 150.187 103.034 150.806 102.626C151.578 102.117 152.738 101.229 153.872 99.8857C153.958 99.7837 154.083 99.7266 154.216 99.7266H154.219C154.353 99.7266 154.479 99.7878 154.564 99.8912C154.584 99.9157 156.567 102.29 158.467 101.719C159.847 101.302 161.662 99.1782 162.461 91.4238C162.602 90.0496 161.98 88.7433 160.875 88.0984C160.777 88.0412 160.676 87.9841 160.569 87.9283C160.408 87.8439 160.314 87.6711 160.33 87.4902C160.347 87.3092 160.469 87.1555 160.642 87.101L168.937 84.4423C169.231 84.3484 169.473 84.1389 169.619 83.8518C169.774 83.5456 169.8 83.1959 169.692 82.868C169.528 82.3714 169.083 82.0503 168.602 82.0503L168.603 82.0476Z" fill="#404040"/>
<path d="M152.631 96.7521C152.475 96.7521 152.324 96.6718 152.241 96.529C152.116 96.314 152.188 96.0391 152.403 95.9139C152.935 95.6037 153.997 94.8485 154.309 94.6254C156.456 93.0879 157.643 91.5734 158.16 90.8074C158.452 90.3761 158.599 89.8985 158.587 89.4277C158.569 88.7678 158.283 88.6684 157.952 88.5528C157.116 88.2616 155.429 89.1215 154.904 89.4467C154.692 89.5774 154.415 89.512 154.285 89.2998C154.154 89.0889 154.219 88.8113 154.43 88.6807C154.675 88.5297 156.859 87.2166 158.249 87.7037C158.61 87.8289 159.454 88.1228 159.488 89.4059C159.505 90.0658 159.304 90.7258 158.908 91.3136C158.356 92.1299 157.096 93.7396 154.839 95.3561C154.423 95.6541 153.408 96.3738 152.858 96.6936C152.787 96.7358 152.708 96.7548 152.632 96.7548L152.631 96.7521Z" fill="#404040"/>
<path d="M154.122 100.723C154.012 100.723 153.9 100.682 153.813 100.6C153.632 100.43 153.624 100.144 153.794 99.9633C155.401 98.2557 155.307 96.4501 155.307 96.4324C155.29 96.1848 155.48 95.9698 155.727 95.9548C155.971 95.9344 156.189 96.1276 156.205 96.3753C156.211 96.4651 156.322 98.5904 154.45 100.58C154.362 100.674 154.242 100.721 154.122 100.721V100.723Z" fill="#404040"/>
<path d="M45.0887 106.507L45.8401 86.2125L60.0842 93.6893L59.9276 106.516C59.8228 109.375 57.4745 110.971 57.4745 110.971C54.5638 113.183 50.4852 112.782 47.5187 110.651L46.8312 110.157C45.6822 109.331 45.0233 107.953 45.0887 106.508V106.507Z" fill="white"/>
<path d="M52.9288 112.914C51.0092 112.914 49.0135 112.279 47.2546 111.016L46.5671 110.522C45.2874 109.602 44.5658 108.095 44.638 106.488L45.3895 86.1962C45.3949 86.0411 45.4793 85.901 45.6141 85.8234C45.7475 85.7459 45.9122 85.7431 46.0497 85.8139L60.2938 93.2907C60.4436 93.3696 60.5375 93.5261 60.5348 93.6948L60.3782 106.522C60.2666 109.585 57.8311 111.273 57.7276 111.343C56.3472 112.392 54.67 112.914 52.9301 112.914H52.9288ZM46.2621 86.9446L45.5379 106.524C45.5379 106.524 45.5379 106.527 45.5379 106.529C45.4793 107.831 46.0606 109.051 47.0926 109.793L47.78 110.287C50.7615 112.428 54.6359 112.563 57.2008 110.615C57.2416 110.586 59.3817 109.089 59.477 106.503L59.6294 93.9629L46.2635 86.9473L46.2621 86.9446Z" fill="#404040"/>
<path d="M66.5466 62.9712C62.7443 62.7453 67.5241 66.7688 53.4638 62.5453C47.8645 60.8635 50.6962 67.5838 49.2436 67.1511C43.8757 65.555 44.0595 65.6027 41.4388 66.3102C39.7031 66.7783 38.5745 70.067 38.8999 72.5243C39.33 75.7681 41.9344 76.6063 44.2392 83.4599C45.8578 88.2739 45.4603 91.198 47.3363 91.9001C49.2327 92.6103 50.6349 89.9938 52.7627 90.6074C55.5181 91.4034 54.9736 96.3072 57.6555 98.3414C59.3463 99.6245 63.2807 100.22 69.5866 97.0665C70.609 96.5549 71.1345 95.3616 70.8322 94.2309C70.4456 92.7818 69.946 90.953 69.3279 89.2468C66.3806 81.1155 63.5666 79.2773 64.5863 77.171C66.1491 73.9448 72.0861 75.7953 73.0703 73.1448C74.0914 70.3922 71.7525 63.2787 66.5466 62.9684V62.9712Z" fill="#404040"/>
<path d="M53.2773 76.9696L54.3651 79.0582C54.877 80.042 55.3235 81.0598 55.6992 82.1075C56.4044 84.0709 57.744 87.3936 58.4751 89.2713C60.8275 95.3072 68.0455 88.6767 68.0455 88.6767L68.5479 87.0154L69.5185 86.6085C69.7064 86.5296 69.8793 86.4112 70.0045 86.2466C70.3163 85.8343 70.3177 85.2873 70.0522 84.8846C68.6023 82.6817 65.5774 77.7357 64.491 73.2959C64.491 73.2959 58.2954 71.6495 53.2773 76.971V76.9696Z" fill="white"/>
<path d="M61.737 92.2566C61.4334 92.2566 61.1353 92.2253 60.8426 92.1573C59.5847 91.8647 58.6467 90.949 58.0559 89.4332C57.8544 88.9175 57.608 88.2916 57.3411 87.6154C56.6496 85.8656 55.7905 83.6885 55.2759 82.2585C54.9084 81.2353 54.4673 80.2284 53.9663 79.265L52.8786 77.1764C52.7901 77.0064 52.8187 76.7995 52.9507 76.6594C58.0926 71.2059 64.344 72.7883 64.6068 72.8577C64.7661 72.8999 64.89 73.0251 64.9281 73.1856C66.0158 77.6282 69.1374 82.6721 70.428 84.6342C70.8051 85.2084 70.7793 85.9636 70.364 86.5146C70.2007 86.731 69.9692 86.9051 69.6929 87.0208L68.9183 87.346L68.4772 88.8046C68.454 88.8822 68.4105 88.9516 68.3506 89.006C68.1927 89.1516 64.7742 92.2552 61.7357 92.2552L61.737 92.2566ZM53.8274 77.0485L54.7654 78.85C55.2855 79.8488 55.7429 80.8938 56.1241 81.9551C56.6332 83.3715 57.4909 85.5418 58.1797 87.2861C58.4479 87.9637 58.6957 88.591 58.8972 89.108C59.3791 90.3462 60.0829 91.0578 61.0468 91.2824C63.5694 91.8688 67.0532 88.9502 67.6536 88.425L68.1191 86.8861C68.1586 86.7568 68.2526 86.6534 68.3764 86.6017L69.3471 86.1949C69.4764 86.1404 69.5813 86.0642 69.648 85.9758C69.8358 85.7282 69.8481 85.3894 69.6793 85.1322C68.0769 82.698 65.2562 78.016 64.1262 73.6782C62.9623 73.4605 57.9919 72.8428 53.8302 77.0513L53.8274 77.0485Z" fill="#404040"/>
<path d="M54.8144 84.2586C54.8144 84.2586 52.2046 79.2337 50.2442 80.9454C48.2839 82.6571 51.2911 88.1133 54.8144 84.2586Z" fill="white"/>
<path d="M64.4664 85.2409C64.3833 85.2409 64.2976 85.2368 64.2118 85.2287C63.8184 85.1919 63.4263 84.8926 63.1091 84.3851C62.4652 83.3578 62.0921 81.4256 62.9743 79.0826C63.1227 78.6907 63.459 78.3601 63.8973 78.175C64.4215 77.956 65.0205 77.9737 65.5854 78.2227C66.356 78.5628 66.7685 79.4282 66.8501 80.8691C66.955 82.74 66.6582 83.985 65.9435 84.6749C65.5568 85.0477 65.0504 85.2396 64.4677 85.2396L64.4664 85.2409ZM64.6679 78.9234C64.5208 78.9234 64.3779 78.9506 64.2458 79.0064C64.0403 79.0921 63.8755 79.2431 63.817 79.3996C63.0601 81.4093 63.3405 83.0312 63.8551 83.8803C64.0716 84.2381 64.2567 84.3279 64.2948 84.3334C64.7291 84.3742 65.064 84.2735 65.3186 84.0286C65.6685 83.6911 66.0619 82.8775 65.9516 80.9208C65.8917 79.8663 65.6467 79.2363 65.2219 79.0486C65.0368 78.9669 64.8489 78.9261 64.6679 78.9261V78.9234Z" fill="#404040"/>
<path d="M52.4578 80.4774C52.2345 80.4774 52.0412 80.3127 52.0113 80.0855C51.9786 79.8392 52.1528 79.6133 52.3993 79.5807L64.2868 78.0295C64.5332 77.9982 64.7592 78.1711 64.7918 78.4173C64.8245 78.6636 64.6503 78.8895 64.4038 78.9221L52.5163 80.4733C52.4959 80.476 52.4769 80.4774 52.4578 80.4774Z" fill="#404040"/>
<path d="M69.6736 83.9688C69.5062 83.9688 69.3442 83.8749 69.2679 83.713C69.1658 83.4993 69.2462 83.2463 69.4476 83.1292C69.7771 82.7986 70.4986 80.4909 69.581 78.8663C69.4463 78.6268 69.2775 78.4948 69.0542 78.4513C68.4144 78.3316 67.49 78.9357 67.1891 79.1806C66.9958 79.3371 66.7126 79.3072 66.5561 79.1153C66.3995 78.9221 66.4281 78.6391 66.6201 78.4826C66.763 78.3656 68.0549 77.3465 69.2203 77.5669C69.7049 77.658 70.1011 77.9547 70.3666 78.4241C71.1289 79.7752 71.005 81.5114 70.6361 82.6843C70.4891 83.1537 70.2359 83.7483 69.8697 83.9239C69.807 83.9538 69.7403 83.9688 69.675 83.9688H69.6736Z" fill="#404040"/>
<path d="M189.329 215.332L106.382 200.327L134.244 180.533L217.106 190.977C217.384 191.013 217.489 191.36 217.275 191.542L189.328 215.332H189.329Z" fill="#007C99"/>
<path d="M189.117 211.5L106.169 196.495L134.031 176.701L217.62 187.237L189.117 211.5Z" fill="#C4C4C4"/>
<path d="M189.329 215.332L189.117 211.5L217.62 187.237L217.763 189.814C217.806 190.605 217.478 191.371 216.874 191.884L189.329 215.33V215.332Z" fill="#007C99"/>
<path d="M178.54 207.044C178.408 207.044 178.276 206.986 178.188 206.874C178.032 206.679 178.065 206.396 178.26 206.241L199.398 189.426C199.593 189.271 199.876 189.304 200.031 189.498C200.186 189.693 200.153 189.976 199.959 190.131L178.821 206.946C178.738 207.011 178.638 207.044 178.54 207.044Z" fill="white"/>
<path d="M170.925 205.413C170.791 205.413 170.659 205.354 170.571 205.241C170.417 205.047 170.451 204.763 170.646 204.608L191.285 188.361C191.48 188.207 191.765 188.241 191.918 188.436C192.072 188.63 192.038 188.913 191.844 189.068L171.204 205.316C171.121 205.381 171.023 205.413 170.926 205.413H170.925Z" fill="white"/>
<path d="M163.949 204.276C163.817 204.276 163.686 204.219 163.598 204.108C163.442 203.914 163.472 203.63 163.667 203.475L183.809 187.298C184.003 187.143 184.286 187.173 184.442 187.368C184.597 187.561 184.567 187.845 184.372 188L164.231 204.177C164.148 204.244 164.048 204.276 163.949 204.276Z" fill="white"/>
<path d="M150 201.439C149.867 201.439 149.735 201.381 149.646 201.268C149.493 201.073 149.525 200.79 149.721 200.635L169.08 185.381C169.275 185.227 169.559 185.261 169.713 185.456C169.867 185.65 169.834 185.933 169.638 186.088L150.279 201.343C150.196 201.408 150.098 201.439 150 201.439Z" fill="white"/>
<path d="M156.833 202.716C156.7 202.716 156.569 202.657 156.48 202.546C156.325 202.351 156.359 202.068 156.554 201.913L176.34 186.233C176.535 186.079 176.818 186.11 176.973 186.306C177.128 186.501 177.094 186.784 176.9 186.939L157.113 202.619C157.03 202.684 156.932 202.717 156.834 202.717L156.833 202.716Z" fill="white"/>
<path d="M142.028 200.445C141.895 200.445 141.761 200.385 141.673 200.272C141.52 200.076 141.554 199.793 141.75 199.641L161.394 184.316C161.59 184.163 161.873 184.197 162.025 184.393C162.178 184.589 162.144 184.872 161.948 185.025L142.305 200.35C142.223 200.414 142.125 200.445 142.028 200.445Z" fill="white"/>
<path d="M186.44 208.534C186.413 208.534 186.384 208.531 186.357 208.526L112.053 194.478C111.808 194.432 111.648 194.197 111.694 193.953C111.74 193.708 111.974 193.549 112.219 193.594L186.315 207.602L206.65 190.711C206.842 190.551 207.125 190.579 207.284 190.769C207.443 190.961 207.418 191.244 207.226 191.403L186.727 208.43C186.646 208.499 186.544 208.534 186.44 208.534Z" fill="white"/>
<path d="M191.28 204.276C191.253 204.276 191.226 204.274 191.198 204.27L123.158 191.924C122.913 191.879 122.751 191.645 122.796 191.402C122.841 191.157 123.075 190.995 123.32 191.04L191.36 203.385C191.605 203.43 191.767 203.664 191.722 203.908C191.683 204.125 191.494 204.278 191.28 204.278V204.276Z" fill="white"/>
<path d="M195.55 200.658C195.523 200.658 195.496 200.656 195.469 200.652L127.429 188.306C127.184 188.262 127.022 188.028 127.067 187.784C127.111 187.539 127.346 187.377 127.591 187.422L195.631 199.767C195.876 199.812 196.038 200.046 195.993 200.29C195.953 200.507 195.764 200.66 195.55 200.66V200.658Z" fill="white"/>
<path d="M202.24 195.195C202.216 195.195 202.191 195.194 202.166 195.189L133.129 183.695C132.884 183.654 132.718 183.422 132.759 183.177C132.799 182.932 133.032 182.766 133.277 182.807L202.314 194.3C202.559 194.341 202.725 194.574 202.684 194.818C202.647 195.039 202.457 195.195 202.24 195.195Z" fill="white"/>
<path d="M206.938 190.938C206.918 190.938 206.898 190.938 206.877 190.934L131.435 180.717C131.189 180.683 131.016 180.457 131.05 180.211C131.084 179.964 131.314 179.791 131.556 179.825L206.998 190.043C207.245 190.077 207.418 190.302 207.384 190.549C207.352 190.775 207.16 190.938 206.938 190.938Z" fill="white"/>
<path d="M221.48 224.69C224.96 211.159 236.707 201.95 249.124 212.983C253.514 221.443 240.568 229.062 225.831 229.923C222.987 230.089 220.772 227.442 221.48 224.692V224.69Z" fill="#007C99"/>
<path d="M237.018 209.624C235.456 208.825 233.146 207.881 229.07 208.5C224.576 209.183 223.573 212.489 216.526 213.97C204.411 216.516 210.377 223.586 210.377 223.586L219.799 219.334C220.409 219.059 221.084 218.95 221.751 219.023C223.807 219.249 228.724 219.614 233.203 218.607C236.555 217.853 240.97 220.625 243.348 218.538C244.73 217.324 240.346 211.327 237.018 209.625V209.624Z" fill="white"/>
<path d="M210.377 224.036C210.248 224.036 210.12 223.98 210.033 223.875C209.939 223.764 207.737 221.111 208.698 218.318C209.477 216.056 212.08 214.445 216.434 213.529C220.16 212.745 222.156 211.443 223.916 210.292C225.42 209.31 226.841 208.382 229.002 208.054C233.036 207.443 235.421 208.301 237.223 209.222C240.051 210.669 243.746 215.179 244.041 217.546C244.132 218.276 243.876 218.671 243.646 218.874C242.116 220.217 239.894 219.778 237.747 219.357C236.22 219.056 234.641 218.746 233.304 219.045C228.724 220.076 223.667 219.686 221.705 219.471C221.12 219.406 220.526 219.501 219.987 219.744L210.565 223.996C210.505 224.024 210.442 224.036 210.38 224.036H210.377ZM231.565 208.75C230.834 208.75 230.028 208.809 229.137 208.945C227.17 209.244 225.89 210.08 224.409 211.047C222.582 212.24 220.511 213.593 216.619 214.411C212.597 215.256 210.219 216.669 209.551 218.611C208.911 220.468 210.039 222.345 210.52 223.026L219.615 218.923C220.3 218.614 221.056 218.493 221.802 218.576C223.718 218.787 228.658 219.167 233.105 218.167C234.629 217.825 236.302 218.154 237.92 218.474C239.943 218.872 241.855 219.249 243.051 218.199C243.179 218.086 243.167 217.812 243.148 217.659C242.911 215.763 239.535 211.417 236.814 210.025C235.535 209.371 233.936 208.75 231.567 208.75H231.565Z" fill="#404040"/>
<path d="M152.58 248.986C147.697 249.129 128.972 248.133 128.972 248.133C118.04 247.027 98.1658 239.824 89.8192 232.62C85.2872 228.71 81.7844 225.051 80.2733 220.607C77.7071 213.062 77.9412 210.911 77.2211 201.757C76.731 195.523 78.9827 186.87 82.8626 181.989C88.5627 174.818 99.097 169.72 119.579 172.339C119.579 172.339 137.568 174.742 143.543 182.08C145.258 184.186 152.603 189.561 158.503 198.254C164.084 206.477 169.166 217.992 175.628 217.652C198.325 216.454 212.214 210.057 215.413 211.2C218.451 212.285 220.643 216.239 220.401 219.98C220.159 223.72 186.447 246.475 171.99 246.883C154.753 247.37 143.426 235.675 143.426 235.675L152.58 248.985V248.986Z" fill="#007C99"/>
<path d="M159.471 199.067C159.33 199.067 159.189 199 159.102 198.875C153.88 191.439 148.3 185.505 142.517 181.241C139.294 178.865 135.164 176.82 130.886 175.484C130.649 175.41 130.516 175.157 130.591 174.92C130.664 174.684 130.918 174.55 131.155 174.625C135.526 175.99 139.752 178.082 143.052 180.517C148.912 184.84 154.562 190.841 159.84 198.359C159.983 198.562 159.934 198.843 159.73 198.986C159.651 199.042 159.561 199.068 159.471 199.068V199.067Z" fill="#C4C4C4"/>
<path d="M178.005 218.129C177.787 218.129 177.597 217.972 177.561 217.751C177.522 217.506 177.689 217.275 177.934 217.235C178.141 217.203 178.639 217.144 179.394 217.057C182.084 216.744 187.683 216.094 192.753 215.102C194.239 214.811 195.932 214.419 197.723 214.002C202.898 212.801 209.34 211.307 215.956 211.069C216.205 211.057 216.413 211.254 216.422 211.503C216.431 211.752 216.236 211.96 215.987 211.968C209.458 212.202 203.064 213.687 197.926 214.879C196.126 215.296 194.427 215.691 192.924 215.985C187.82 216.984 182.198 217.637 179.496 217.951C178.78 218.034 178.262 218.094 178.074 218.124C178.05 218.128 178.027 218.129 178.002 218.129H178.005Z" fill="#C4C4C4"/>
<path d="M166.164 247.359C166.139 247.359 166.113 247.356 166.089 247.352C162.092 246.68 158.705 245.762 154.763 244.281C143.769 240.152 127.769 219.701 120.285 203.928C120.179 203.704 120.274 203.436 120.499 203.328C120.724 203.221 120.992 203.317 121.099 203.542C128.509 219.158 144.288 239.384 155.081 243.438C158.966 244.898 162.303 245.802 166.239 246.464C166.484 246.504 166.65 246.737 166.607 246.982C166.571 247.202 166.38 247.358 166.164 247.358V247.359Z" fill="#C4C4C4"/>
<path d="M122.415 136.315C127.627 133.26 128.334 124.065 124.468 122.067C120.977 120.263 116.672 122.228 111.275 124.798C108.708 126.02 104.975 125.963 101.021 126.737C82.7742 130.307 83.6264 152.486 101.535 166.844C114.434 177.185 122.016 141.16 122.016 141.16L122.415 136.316V136.315Z" fill="#404040"/>
<path d="M118.36 138.481C118.69 135.493 121.86 135.336 122.415 136.315C123.757 138.69 124.398 140.343 124.612 141.353C124.9 142.71 123.651 144.066 124.323 145.521C124.996 146.974 126.054 148.622 126.15 151.24C126.244 153.796 128.817 165.516 119.783 165.145C119.429 165.131 119.132 165.412 119.138 165.769C119.16 167.551 119.255 172.459 119.647 175.116C119.861 176.564 118.966 177.94 117.569 178.338C113.954 179.367 107.22 180.816 102.183 179.166C100.874 178.736 100.186 177.289 100.653 175.983C101.249 174.316 102.081 169.632 101.537 166.845C101.537 166.845 104.553 166.546 107.913 164.992C113.077 162.604 115.617 156.79 114.19 151.246C113.884 150.054 113.22 148.359 113.911 146.564C114.998 143.744 116.412 144.368 117.353 145.287C117.731 145.657 118.364 145.387 118.364 144.855V138.482L118.36 138.481Z" fill="white"/>
<path d="M107.495 180.36C105.61 180.36 103.735 180.147 102.042 179.592C101.301 179.348 100.702 178.825 100.356 178.119C100.004 177.399 99.9574 176.586 100.228 175.831C100.8 174.232 101.624 169.641 101.093 166.929C101.068 166.805 101.098 166.676 101.173 166.574C101.248 166.472 101.364 166.407 101.49 166.395C101.52 166.392 104.477 166.082 107.723 164.581C112.609 162.322 115.145 156.76 113.754 151.357C113.713 151.199 113.666 151.033 113.617 150.859C113.289 149.691 112.839 148.094 113.491 146.401C114.019 145.031 114.674 144.277 115.493 144.099C116.193 143.945 116.924 144.238 117.666 144.963C117.722 145.017 117.782 145.01 117.821 144.993C117.855 144.978 117.913 144.941 117.913 144.853V138.479C117.913 138.463 117.913 138.447 117.914 138.43C118.091 136.823 119.062 135.687 120.51 135.391C121.512 135.185 122.458 135.474 122.808 136.093C124.329 138.783 124.869 140.387 125.054 141.259C125.204 141.967 125.014 142.635 124.828 143.28C124.623 143.995 124.429 144.67 124.734 145.332C124.845 145.571 124.966 145.815 125.091 146.068C125.727 147.349 126.519 148.945 126.602 151.223C126.613 151.528 126.665 152 126.725 152.546C127.045 155.467 127.638 160.903 124.954 163.774C123.738 165.073 121.994 165.684 119.767 165.594C119.701 165.584 119.659 165.623 119.639 165.642C119.616 165.664 119.588 165.703 119.59 165.763C119.613 167.688 119.71 172.448 120.095 175.05C120.341 176.711 119.309 178.311 117.695 178.77C115.257 179.464 111.359 180.36 107.498 180.36H107.495ZM102.054 167.229C102.456 170.155 101.659 174.497 101.075 176.133C100.887 176.658 100.919 177.223 101.164 177.723C101.402 178.21 101.813 178.57 102.321 178.736C107.253 180.352 113.913 178.908 117.444 177.904C118.625 177.568 119.38 176.398 119.2 175.182C118.807 172.526 118.71 167.718 118.686 165.774C118.682 165.479 118.797 165.203 119.009 164.997C119.218 164.794 119.509 164.684 119.801 164.695C121.753 164.775 123.266 164.258 124.293 163.159C126.696 160.589 126.13 155.419 125.826 152.642C125.762 152.056 125.712 151.592 125.7 151.254C125.623 149.171 124.91 147.734 124.281 146.466C124.152 146.206 124.028 145.955 123.914 145.708C123.467 144.744 123.728 143.833 123.958 143.031C124.12 142.466 124.274 141.934 124.169 141.446C124.028 140.783 123.562 139.263 122.02 136.535C121.907 136.334 121.38 136.131 120.687 136.272C120.187 136.374 119.007 136.798 118.808 138.504V144.853C118.808 145.277 118.558 145.658 118.167 145.821C117.774 145.987 117.339 145.904 117.033 145.605C116.681 145.261 116.161 144.873 115.681 144.976C115.194 145.083 114.727 145.687 114.327 146.722C113.782 148.136 114.169 149.509 114.479 150.612C114.531 150.793 114.579 150.966 114.621 151.131C116.12 156.956 113.377 162.955 108.096 165.397C105.452 166.62 103.042 167.079 102.05 167.227L102.054 167.229Z" fill="#404040"/>
<path d="M126.176 150.25C126.024 150.25 125.875 150.173 125.791 150.033C125.661 149.82 125.729 149.543 125.943 149.415C128.631 147.79 127.02 143.229 126.441 141.824L118.39 145.757C118.167 145.866 117.897 145.774 117.789 145.551C117.68 145.327 117.772 145.058 117.996 144.948L126.47 140.807C126.578 140.754 126.703 140.748 126.816 140.787C126.929 140.826 127.023 140.909 127.075 141.018C127.208 141.296 130.283 147.842 126.41 150.185C126.337 150.23 126.256 150.25 126.177 150.25H126.176Z" fill="#404040"/>
<path d="M126.41 153.638C126.295 153.638 126.18 153.595 126.092 153.506C125.916 153.331 125.916 153.045 126.092 152.87L127.247 151.714C127.546 151.416 127.585 150.95 127.34 150.604L126.545 149.486C126.401 149.283 126.448 149.003 126.651 148.858C126.854 148.714 127.136 148.762 127.279 148.965L128.074 150.083C128.575 150.788 128.494 151.742 127.885 152.351L126.729 153.506C126.64 153.595 126.526 153.638 126.41 153.638Z" fill="#404040"/>
<path d="M117.107 154.653C116.908 154.653 116.698 154.63 116.478 154.576C115.427 154.316 114.531 153.425 113.815 151.928C113.707 151.704 113.803 151.436 114.027 151.328C114.252 151.221 114.52 151.316 114.627 151.54C115.222 152.783 115.918 153.511 116.694 153.704C117.493 153.902 118.138 153.447 118.145 153.441C118.344 153.293 118.627 153.335 118.776 153.534C118.924 153.734 118.882 154.015 118.683 154.164C118.65 154.188 118.009 154.653 117.107 154.653Z" fill="#404040"/>
<path d="M134.302 219.483V243.152C134.302 243.152 134.318 248.329 134.308 248.608C133.221 248.913 120.231 248.805 114.543 248.996C114.543 248.996 107.74 247.994 106.369 248.099C104.826 247.247 107.382 246.33 106.578 245.99C89.9009 238.938 78.9595 226.941 71.7796 212.515L70.165 203.413C70.165 203.369 70.2848 203.225 70.47 203.034C71.2773 202.214 72.2697 201.599 73.3411 201.238L75.0224 200.676L75.0428 200.671C76.7895 200.084 78.6382 200.229 80.1521 201.067C80.2283 201.108 80.3018 201.151 80.3781 201.193C90.0261 206.603 101.102 209.383 112.587 209.292L125.117 209.195H125.158C130.473 209.802 134.301 214.105 134.301 219.485L134.302 219.483Z" fill="white"/>
<path d="M131.426 220.266C131.426 220.266 131.287 234.067 131.058 244.704C125.493 246.099 115.485 248.158 110.541 248.454C96.4574 249.299 79.3613 248.608 69.5076 249C69.2313 247.351 68.9658 204.441 68.9658 204.441C68.9658 201.471 72.2004 199.328 74.8034 200.572L75.0239 200.678C75.9047 201.105 76.7502 201.554 77.5683 202.014C87.1688 207.412 98.2013 210.166 109.637 210.077L122.264 209.978C127.591 210.575 131.427 214.88 131.427 220.267L131.426 220.266Z" fill="white"/>
<path d="M131.058 245.155H131.049C130.799 245.149 130.602 244.944 130.607 244.695C130.833 234.181 130.974 220.399 130.975 220.262C130.975 215.141 127.302 211.008 122.239 210.427L109.64 210.526C98.1101 210.613 86.9536 207.806 77.3478 202.406C76.4724 201.915 75.6488 201.482 74.8265 201.083L74.6087 200.978C73.1547 200.321 71.7307 200.357 70.6076 201.08C69.5362 201.772 68.8963 202.992 68.8963 204.347C68.8963 204.596 68.6949 204.798 68.4457 204.798C68.1966 204.798 67.9951 204.596 67.9951 204.347C67.9951 202.685 68.7888 201.181 70.1175 200.324C71.5061 199.429 73.235 199.371 74.9871 200.163L75.2158 200.274C76.0558 200.682 76.8958 201.123 77.7861 201.623C87.2558 206.948 98.2666 209.717 109.63 209.628L122.284 209.529L122.311 209.531C127.852 210.153 131.875 214.668 131.875 220.267C131.874 220.41 131.733 234.197 131.507 244.715C131.502 244.96 131.302 245.156 131.057 245.156L131.058 245.155Z" fill="#404040"/>
</g>
<defs>
<clipPath id="clip0_1650_1230">
<rect width="250" height="249" fill="white"/>
</clipPath>
</defs>
</svg>
