<svg width="249" height="220" viewBox="0 0 249 220" fill="none" xmlns="http://www.w3.org/2000/svg">
<g clip-path="url(#clip0_1616_174)">
<path d="M109.05 65.5623L112.354 100.546L81.6017 101.671L78.9407 74.2438L79.6151 62.5439L109.05 65.5623Z" fill="white"/>
<path d="M81.6017 102.222C81.3194 102.222 81.0807 102.008 81.0528 101.724L78.3918 74.296C78.3883 74.2682 78.3883 74.2404 78.3901 74.2108L79.0627 62.5109C79.0714 62.3613 79.1411 62.2205 79.2561 62.1231C79.3712 62.0258 79.521 61.9806 79.6709 61.9945L109.106 65.0147C109.367 65.0407 109.574 65.2494 109.599 65.5119L112.903 100.493C112.917 100.645 112.868 100.794 112.769 100.909C112.667 101.024 112.525 101.092 112.373 101.097L81.6209 102.222C81.6209 102.222 81.6069 102.222 81.6 102.222H81.6017ZM79.4949 74.2317L82.1001 101.1L111.749 100.015L108.543 66.0648L80.1327 63.1507L79.4949 74.2334V74.2317Z" fill="#007C99"/>
<path d="M104.076 79.4514C110.378 81.1797 132.84 85.1666 131.063 62.7734C132.19 62.1805 134.825 61.5129 135.079 60.5479C135.334 59.5794 133.529 55.017 132.905 51.962C132.256 37.9791 127.154 21.1986 115.708 19.9259C89.9142 17.0587 80.2043 33.0429 77.9964 39.0971C75.7867 45.1549 76.6389 68.4782 76.6389 68.4782" fill="white"/>
<path d="M114.409 81.4144C109.575 81.4144 105.274 80.3503 103.93 79.9817C103.636 79.9017 103.463 79.5974 103.545 79.3053C103.625 79.0115 103.928 78.8376 104.223 78.9211C106.65 79.5853 119.108 82.6159 126.004 76.9285C129.508 74.037 131.026 69.2885 130.512 62.8169C130.495 62.5978 130.61 62.3892 130.805 62.2866C131.166 62.0971 131.647 61.9093 132.154 61.7111C132.952 61.3981 134.437 60.8174 134.545 60.4088C134.646 59.9915 134.025 57.9589 133.572 56.474C133.133 55.0361 132.635 53.4069 132.363 52.0733C132.358 52.0455 132.354 52.0177 132.352 51.9881C131.666 37.1498 126.232 21.6507 115.648 20.4753C87.3735 17.3265 79.3383 37.0315 78.5157 39.2884C76.3688 45.1775 77.1826 68.2296 77.1913 68.4608C77.2018 68.7651 76.9648 69.0207 76.6598 69.0312C76.3444 69.059 76.0987 68.8051 76.0883 68.5008C76.0534 67.5445 75.2588 45.0001 77.4789 38.9111C78.3328 36.5708 86.6573 16.1476 115.771 19.3799C126.994 20.6266 132.737 36.6003 133.455 51.8942C133.72 53.1687 134.203 54.7544 134.632 56.1524C135.379 58.5988 135.792 60.0158 135.616 60.6887C135.367 61.6398 133.94 62.1962 132.561 62.7369C132.23 62.8674 131.911 62.9908 131.645 63.109C132.1 69.7684 130.441 74.7029 126.711 77.7787C123.294 80.5972 118.648 81.4161 114.412 81.4161L114.409 81.4144Z" fill="#007C99"/>
<path d="M129.555 47.0276C128.674 46.6155 127.661 46.4885 126.734 46.6763C125.805 46.8641 124.969 47.3631 124.399 48.0691" fill="white"/>
<path d="M124.397 48.6202C124.275 48.6202 124.153 48.5802 124.052 48.4985C123.815 48.3072 123.777 47.9612 123.969 47.7248C124.622 46.9145 125.565 46.3512 126.624 46.1373C127.673 45.9269 128.797 46.066 129.791 46.5302C130.066 46.6589 130.185 46.9875 130.056 47.2622C129.927 47.537 129.597 47.6552 129.322 47.5265C128.553 47.1666 127.651 47.0519 126.844 47.217C126.037 47.3805 125.321 47.8065 124.829 48.415C124.72 48.5506 124.561 48.6202 124.399 48.6202H124.397Z" fill="#007C99"/>
<path d="M78.8328 83.2088C78.8328 83.2088 83.9527 84.5911 90.2435 81.3622C96.3323 78.2377 101.177 65.392 101.177 65.392C101.177 65.392 95.0601 50.4928 101.212 49.2444C107.363 47.996 109.75 54.3441 109.75 54.3441C109.75 54.3441 116.986 59.5585 115.311 38.1043C115.311 38.1043 132.804 41.5279 140.053 33.3019C148.064 24.2101 146.567 8.05209 134.827 6.17078C123.087 4.28773 117.85 13.6073 117.85 13.6073C117.85 13.6073 113.1 -3.76955 102.705 0.752892C92.3085 5.27359 93.3925 16.4589 93.3925 16.4589C93.3925 16.4589 79.0995 9.71953 67.5685 24.2918C56.0393 38.8624 78.8346 83.2105 78.8346 83.2105L78.8328 83.2088Z" fill="#007C99"/>
<path d="M108.707 52.3028C108.707 52.3028 99.9376 42.3921 94.8422 50.5624C89.7468 58.7309 96.3409 66.7969 105.594 66.8578" fill="white"/>
<path d="M105.596 67.4072H105.592C100.434 67.3741 95.8965 64.9382 93.7496 61.0539C91.9024 57.7085 92.1238 53.8798 94.3752 50.2702C95.7049 48.1385 97.4039 46.9719 99.4236 46.8032C104.176 46.4085 108.921 51.7116 109.121 51.9377C109.323 52.1655 109.301 52.5132 109.073 52.7149C108.844 52.9166 108.496 52.8957 108.294 52.6662C108.248 52.6158 103.702 47.5491 99.5142 47.9003C97.8605 48.0394 96.4472 49.0323 95.3128 50.851C93.2826 54.1076 93.07 57.5399 94.7168 60.5201C96.6703 64.0566 100.84 66.2735 105.599 66.3048C105.904 66.3066 106.15 66.5552 106.148 66.8595C106.147 67.162 105.899 67.4072 105.596 67.4072Z" fill="#007C99"/>
<path d="M102.621 53.4225C101.253 54.0954 100.276 55.5021 100.124 57.0165C99.9726 58.5309 100.652 60.1028 101.86 61.033" fill="white"/>
<path d="M101.86 61.5824C101.741 61.5824 101.623 61.5459 101.523 61.4676C100.171 60.4261 99.4062 58.6579 99.5752 56.9609C99.7442 55.2656 100.844 53.6816 102.377 52.927C102.651 52.7914 102.982 52.9044 103.116 53.1774C103.25 53.4504 103.139 53.7807 102.865 53.9146C101.666 54.5058 100.806 55.7437 100.673 57.0704C100.541 58.397 101.138 59.7811 102.196 60.5965C102.437 60.7826 102.482 61.1286 102.295 61.3685C102.187 61.5094 102.024 61.5824 101.858 61.5824H101.86Z" fill="#007C99"/>
<path d="M68.9852 99.0556C68.9852 99.0556 43.4802 96.1641 30.3756 108.772C20.2702 118.495 -9.2429 172.051 2.87008 189.83C16.8128 210.293 95.7031 188.206 95.3947 187.284C95.0862 186.363 87.5372 157.148 87.5372 157.148L35.6802 162.613L70.4194 116.292L68.9835 99.0556H68.9852Z" fill="#76D8EF"/>
<path d="M148.165 209.562C146.368 226.129 38.214 221.718 40.0107 205.151C40.0107 205.151 41.938 157.886 43.4384 121.118C43.9333 109.008 53.7722 99.3738 65.9095 99.0538L119.175 99.0625C130.688 98.7582 140.717 106.949 142.583 118.284C147.747 149.587 148.942 187.74 148.167 209.561L148.165 209.562Z" fill="#76D8EF"/>
<path d="M40.0106 205.702C40.0001 205.702 39.9897 205.702 39.9809 205.702C39.676 205.685 39.4425 205.426 39.4599 205.123C39.4791 204.769 41.4047 169.187 42.8859 132.846C42.8981 132.542 43.156 132.291 43.4592 132.319C43.7642 132.331 44.0012 132.589 43.989 132.891C42.506 169.239 40.5804 204.828 40.5612 205.183C40.5456 205.476 40.3016 205.704 40.0106 205.704V205.702Z" fill="#007C99"/>
<path d="M248.024 27.1225L225.239 97.2612C223.776 101.77 218.926 104.234 214.407 102.773L176.939 90.654C172.42 89.1935 169.944 84.3546 171.408 79.8461L194.2 9.71259C195.664 5.20406 200.508 2.73332 205.027 4.19386L242.5 16.318C247.019 17.7786 249.488 22.6175 248.024 27.1208V27.1225Z" fill="#007C99"/>
<path d="M217.054 103.743C216.12 103.743 215.172 103.599 214.238 103.298L176.77 91.1791C171.969 89.6264 169.329 84.4676 170.885 79.6774L193.677 9.54391C194.43 7.2227 196.043 5.33444 198.218 4.22513C200.393 3.11582 202.873 2.91934 205.198 3.67047L242.671 15.7947C244.996 16.5458 246.888 18.1558 247.998 20.3293C249.108 22.5009 249.303 24.9734 248.55 27.2911L225.766 97.4298C224.514 101.285 220.916 103.741 217.054 103.741V103.743ZM202.367 4.32424C201.113 4.32424 199.869 4.61982 198.718 5.20577C196.805 6.1812 195.387 7.84169 194.724 9.88296L171.933 80.0164C170.565 84.2294 172.886 88.7657 177.108 90.1306L214.576 102.25C218.8 103.615 223.347 101.3 224.713 97.0908L247.498 26.9521C248.16 24.9143 247.988 22.7391 247.012 20.83C246.036 18.9192 244.372 17.5038 242.328 16.8431L204.854 4.71893C204.037 4.45464 203.2 4.32424 202.366 4.32424H202.367Z" fill="#007C99"/>
<path d="M244.084 25.848L221.299 95.9867C219.835 100.495 214.986 102.959 210.467 101.498L172.999 89.3795C168.48 87.919 166.004 83.0801 167.468 78.5715L190.26 8.43806C191.723 3.92952 196.573 1.45879 201.087 2.91932L238.56 15.0435C243.078 16.504 245.555 21.3429 244.084 25.8462V25.848Z" fill="white"/>
<path d="M213.132 102.472C212.182 102.472 211.227 102.323 210.298 102.022L172.83 89.9029C170.505 89.1517 168.611 87.5417 167.499 85.3682C166.387 83.1966 166.191 80.7224 166.943 78.4012L189.735 8.26766C190.488 5.9482 192.102 4.0582 194.28 2.94888C196.456 1.83957 198.934 1.6431 201.257 2.39423L238.731 14.5184C241.059 15.2713 242.951 16.8831 244.063 19.0582C245.172 21.2282 245.367 23.6989 244.61 26.0149L221.826 96.1536C221.073 98.4731 219.457 100.361 217.281 101.469C215.974 102.133 214.559 102.469 213.133 102.469L213.132 102.472ZM198.429 3.04973C197.176 3.04973 195.93 3.34532 194.78 3.93127C192.867 4.9067 191.446 6.56718 190.784 8.60846L167.992 78.7419C167.33 80.7815 167.503 82.9584 168.48 84.8692C169.458 86.7801 171.122 88.1954 173.168 88.8561L210.636 100.975C212.682 101.638 214.862 101.465 216.777 100.49C218.692 99.5163 220.111 97.8558 220.773 95.8163L243.558 25.6776C244.222 23.6415 244.051 21.4699 243.077 19.5625C242.101 17.6499 240.435 16.2328 238.387 15.5703L200.914 3.44616C200.099 3.18187 199.26 3.05147 198.427 3.05147L198.429 3.04973Z" fill="#007C99"/>
<path d="M222.383 100.916L205.978 118.774L205.598 119.183L171.415 106.097L171.584 105.395L171.633 104.404L175.918 90.3253L202.913 99.0538L209.768 92.8917L207.92 89.3934C206.184 86.1054 207.54 82.042 210.901 80.4424C211.806 80.0164 212.762 79.8112 213.703 79.8112C216.138 79.8112 218.482 81.1692 219.607 83.4956L223.915 92.3857C225.307 95.2599 224.692 98.7043 222.385 100.916H222.383Z" fill="white"/>
<path d="M205.598 119.734C205.532 119.734 205.464 119.722 205.4 119.698L171.216 106.612C170.958 106.513 170.812 106.238 170.876 105.97L171.033 105.317L171.079 104.376C171.08 104.331 171.089 104.286 171.101 104.242L175.386 90.1637C175.43 90.0228 175.528 89.9046 175.66 89.835C175.791 89.7672 175.944 89.755 176.085 89.8003L202.777 98.4313L209.077 92.77L207.428 89.6507C206.518 87.9276 206.356 85.9611 206.971 84.1129C207.587 82.2646 208.897 80.7832 210.661 79.9451C211.624 79.4913 212.645 79.2601 213.7 79.2601C216.413 79.2601 218.926 80.8284 220.1 83.2557L224.408 92.1458C225.907 95.2408 225.252 98.9182 222.775 101.3L206.001 119.559C205.895 119.673 205.746 119.734 205.597 119.734H205.598ZM172.063 105.755L205.447 118.535L205.572 118.399L221.975 100.542C221.975 100.542 221.991 100.525 222 100.518C224.14 98.4661 224.708 95.2947 223.415 92.624L219.107 83.7338C218.114 81.6839 215.991 80.359 213.7 80.359C212.811 80.359 211.947 80.5537 211.135 80.9379C209.646 81.6456 208.538 82.8958 208.019 84.4571C207.499 86.0168 207.637 87.6773 208.404 89.1343L210.253 92.6327C210.371 92.8552 210.323 93.1299 210.134 93.2986L203.279 99.4607C203.132 99.5911 202.927 99.6363 202.739 99.5754L176.279 91.0208L172.176 104.496L172.131 105.419C172.129 105.452 172.124 105.487 172.117 105.52L172.061 105.755H172.063Z" fill="#007C99"/>
<path d="M211.115 119.515L192.379 188.289L155.243 166.228L167.891 102.94L211.115 119.515Z" fill="#76D8EF"/>
<path d="M114.584 99.0555L139.555 99.518C150.545 99.7215 160.184 106.89 163.516 117.342L192.109 177.591C195.041 190.412 186.628 203.075 173.651 205.372C161.89 207.453 150.481 200.229 147.36 188.725L114.583 99.0573L114.584 99.0555Z" fill="#76D8EF"/>
<path d="M192.11 178.14C191.903 178.14 191.706 178.023 191.612 177.825L163.017 117.576C162.886 117.302 163.005 116.973 163.28 116.843C163.557 116.712 163.885 116.829 164.016 117.105L192.61 177.354C192.741 177.629 192.623 177.957 192.347 178.088C192.271 178.124 192.19 178.142 192.112 178.142L192.11 178.14Z" fill="#007C99"/>
<path d="M148.165 191.695C147.943 191.695 147.736 191.563 147.651 191.346C147.337 190.549 147.065 189.727 146.839 188.901L122.884 131.742C122.766 131.462 122.9 131.139 123.181 131.02C123.461 130.904 123.785 131.036 123.902 131.316L147.872 188.508C147.881 188.531 147.889 188.553 147.896 188.578C148.112 189.377 148.376 190.174 148.679 190.942C148.79 191.226 148.651 191.544 148.367 191.657C148.301 191.683 148.233 191.695 148.165 191.695Z" fill="#007C99"/>
<path d="M124.503 69.1806C124.338 69.1806 124.176 69.1076 124.066 68.9668C122.661 67.1533 120.549 65.9275 118.274 65.6041C117.972 65.5606 117.761 65.2824 117.805 64.9816C117.848 64.6808 118.127 64.4687 118.429 64.5139C120.987 64.8773 123.36 66.2544 124.939 68.2939C125.126 68.5338 125.08 68.8798 124.84 69.0659C124.739 69.1441 124.62 69.1806 124.503 69.1806Z" fill="#007C99"/>
<path d="M228.076 53.5094C227.703 53.4034 227.371 53.1547 227.167 52.7896C219.314 38.6833 201.425 33.5818 187.287 41.4166C186.555 41.8217 185.631 41.5591 185.224 40.8289C184.817 40.0986 185.081 39.1771 185.813 38.7702C201.412 30.1252 221.153 35.7535 229.819 51.3186C230.225 52.0489 229.962 52.9704 229.23 53.3773C228.864 53.5807 228.449 53.6155 228.076 53.5094Z" fill="#959595"/>
<path d="M222.465 56.6183C222.092 56.5123 221.759 56.2636 221.555 55.8985C218.589 50.5693 213.71 46.7093 207.82 45.0297C201.928 43.3501 195.744 44.0542 190.402 47.0153C189.671 47.4204 188.747 47.1579 188.339 46.4276C187.933 45.6973 188.196 44.7758 188.928 44.3689C194.977 41.0167 201.982 40.2186 208.653 42.1208C215.324 44.0229 220.848 48.3941 224.208 54.4293C224.614 55.1595 224.351 56.081 223.619 56.4879C223.253 56.6913 222.838 56.7261 222.465 56.6201V56.6183Z" fill="#959595"/>
<path d="M216.856 59.7272C216.483 59.6211 216.15 59.3725 215.946 59.0073C213.811 55.1717 210.3 52.3932 206.058 51.183C201.817 49.9729 197.364 50.4806 193.52 52.6123C192.788 53.0174 191.865 52.7548 191.457 52.0246C191.051 51.2943 191.314 50.3728 192.046 49.9659C201.458 44.7497 213.369 48.1455 218.598 57.5381C219.004 58.2684 218.741 59.1899 218.009 59.5967C217.643 59.8002 217.229 59.835 216.856 59.7289V59.7272Z" fill="#959595"/>
<path d="M211.244 62.8378C210.871 62.7317 210.539 62.4831 210.335 62.1179C209.031 59.7759 206.886 58.0771 204.295 57.3382C201.703 56.5992 198.983 56.9087 196.636 58.211C195.904 58.6161 194.98 58.3536 194.573 57.6233C194.167 56.8931 194.43 55.9715 195.162 55.5647C198.218 53.8711 201.757 53.4678 205.128 54.4275C208.498 55.3891 211.29 57.5972 212.987 60.647C213.393 61.3772 213.13 62.2988 212.398 62.7056C212.032 62.9091 211.617 62.9438 211.244 62.8378Z" fill="#959595"/>
<path d="M211.234 32.4256L204.135 40.3316L206.416 45.2887L202.554 48.4324L204.263 60.5478L206.438 49.7242L212.034 46.3372L210.69 41.3401L219.311 36.8002L211.234 32.4256Z" fill="white"/>
<path d="M185.496 41.7611C193.813 33.4629 193.813 20.0087 185.496 11.7104C177.179 3.41217 163.695 3.41217 155.378 11.7104C147.061 20.0087 147.061 33.4629 155.378 41.7611C163.695 50.0594 177.179 50.0594 185.496 41.7611Z" fill="#404040"/>
<path d="M175.409 25.9419L182.531 31.0833L178.356 36.8385L171.234 31.6971L166.081 38.8033L160.313 34.639L165.466 27.5328L158.345 22.3966L162.519 16.6344L169.639 21.7759L174.794 14.6697L180.564 18.8426L175.409 25.9419Z" fill="white"/>
</g>
<defs>
<clipPath id="clip0_1616_174">
<rect width="249" height="220" fill="white"/>
</clipPath>
</defs>
</svg>
