<svg width="260" height="220" viewBox="0 0 260 220" fill="none" xmlns="http://www.w3.org/2000/svg">
<g clip-path="url(#clip0_1612_94)">
<path d="M135.452 149.362H43.784C40.0935 149.362 36.8466 146.936 35.8096 143.404L19.7569 88.7128C18.2 83.4087 22.1887 78.1001 27.7313 78.1001H119.4C123.09 78.1001 126.337 80.5264 127.374 84.0584L143.427 138.749C144.984 144.053 140.995 149.362 135.452 149.362Z" fill="#007C99"/>
<path d="M48.4058 142.473C47.8186 142.473 47.2924 142.06 47.1273 141.468L31.8714 86.7776C31.7169 86.224 31.902 85.8031 32.084 85.5469C32.266 85.2922 32.5994 84.9872 33.15 84.9872H120.267C120.854 84.9872 121.38 85.4005 121.545 85.9922L136.801 140.683C136.956 141.237 136.771 141.657 136.589 141.914C136.407 142.168 136.073 142.473 135.523 142.473H48.4058Z" fill="white"/>
<path d="M136.231 177.384C136.231 177.384 119.787 188.523 107.608 196.772C99.9164 201.982 89.7611 201.754 82.3114 196.206L43.631 167.405C43.631 167.405 25.3714 158.427 23.8465 154.684C22.3278 150.942 23.9597 150.199 23.9597 150.199C22.311 147.3 24.1509 145.375 24.1509 145.375C23.2424 141.801 25.8669 139.42 25.8669 139.42C25.8669 139.42 24.7825 129.823 27.9392 128.022C31.0944 126.227 33.8489 140.54 37.495 143.129C40.329 145.133 49.9872 145.96 50.1218 144.744C50.4491 141.778 41.6718 136.274 41.6718 136.274C40.6043 135.481 40.0063 134.247 40.0063 132.965C40.0063 131.986 40.3504 130.962 41.1564 130.133C42.2545 129.001 43.9247 128.628 45.448 129.042L51.1083 130.584C53.4789 131.231 55.3815 133.01 56.1829 135.324L61.4838 144.746L96.0057 163.854L113.69 147.356L136.229 177.384H136.231Z" fill="white"/>
<path d="M95.3588 200.972C90.6665 200.972 85.982 199.497 82.0422 196.565L43.3955 167.787C42.2316 167.214 24.9814 158.66 23.4306 154.852C22.2361 151.904 22.8968 150.597 23.3908 150.083C22.1856 147.649 23.2363 145.848 23.6646 145.267C22.9641 142.094 24.8147 139.864 25.3989 139.254C25.2521 137.759 24.5822 129.424 27.716 127.635C28.1228 127.404 28.5617 127.359 28.9884 127.505C30.5867 128.051 31.902 131.232 33.4268 134.915C34.739 138.086 36.2256 141.679 37.755 142.766C40.4284 144.657 48.7133 145.278 49.6814 144.622C49.7624 142.64 44.694 138.699 41.4333 136.654C40.248 135.774 39.5582 134.403 39.5582 132.966C39.5582 131.787 40.0109 130.671 40.8337 129.823C42.019 128.603 43.8329 128.14 45.5657 128.612L51.2261 130.154C53.7297 130.837 55.7333 132.699 56.5928 135.139L61.8111 144.416L95.9369 163.305L113.383 147.03C113.476 146.943 113.599 146.901 113.729 146.911C113.855 146.922 113.972 146.987 114.048 147.088L136.587 177.116C136.661 177.214 136.691 177.337 136.67 177.458C136.65 177.578 136.581 177.685 136.48 177.753L107.857 197.141C104.079 199.7 99.7161 200.972 95.3573 200.972H95.3588ZM28.4898 128.313C28.3813 128.313 28.2742 128.345 28.161 128.409C25.7843 129.767 26.0198 136.78 26.312 139.368C26.3288 139.51 26.2753 139.652 26.1697 139.748C26.0718 139.838 23.7563 142.004 24.5853 145.263C24.6235 145.412 24.5822 145.569 24.4751 145.68C24.4109 145.749 22.8937 147.417 24.3497 149.975C24.4109 150.083 24.4247 150.214 24.3864 150.333C24.3467 150.452 24.261 150.55 24.1463 150.602C24.1463 150.602 22.9534 151.288 24.2626 154.513C25.4601 157.454 38.7935 164.524 43.8298 167C43.8543 167.013 43.8773 167.026 43.9002 167.043L82.5806 195.845C89.8713 201.274 99.8293 201.497 107.355 196.399L135.59 177.275L113.632 148.02L96.3131 164.176C96.1709 164.309 95.9583 164.335 95.7886 164.24L61.2667 145.131C61.1948 145.092 61.1336 145.032 61.0938 144.959L55.7929 135.537C55.7807 135.515 55.7684 135.49 55.7608 135.464C55.0053 133.283 53.222 131.62 50.9921 131.01L45.3317 129.468C43.9109 129.08 42.435 129.454 41.4791 130.438C40.8184 131.118 40.4544 132.013 40.4544 132.959C40.4544 134.115 41.0096 135.219 41.9395 135.91C42.8327 136.468 50.9156 141.635 50.5669 144.787C50.5455 144.982 50.4308 145.255 50.0071 145.444C48.181 146.26 39.9482 145.404 37.235 143.486C35.4946 142.251 34.0217 138.69 32.5963 135.248C31.3376 132.205 29.9107 128.757 28.6963 128.342C28.6244 128.318 28.5571 128.306 28.4898 128.306V128.313Z" fill="#007C99"/>
<path d="M25.8655 139.42C25.8655 139.42 28.5251 148.253 34.161 153.423L25.8655 139.42Z" fill="white"/>
<path d="M34.161 153.871C34.0524 153.871 33.9438 153.832 33.8581 153.754C28.1978 148.561 25.5473 139.916 25.4372 139.55C25.3653 139.313 25.5014 139.065 25.7385 138.993C25.9771 138.923 26.2264 139.056 26.2967 139.292C26.3227 139.379 28.9885 148.07 34.4668 153.095C34.6488 153.263 34.6611 153.545 34.4928 153.727C34.4041 153.823 34.2833 153.871 34.1625 153.871H34.161Z" fill="#007C99"/>
<path d="M24.1525 145.377C24.1525 145.377 27.2633 151.941 31.0501 155.133L24.1525 145.377Z" fill="white"/>
<path d="M31.0501 155.579C30.9476 155.579 30.8452 155.544 30.7611 155.474C26.9436 152.256 23.8756 145.841 23.7472 145.569C23.6416 145.346 23.7365 145.08 23.9613 144.974C24.1876 144.868 24.4522 144.965 24.5578 145.188C24.5884 145.252 27.6716 151.701 31.3407 154.793C31.5303 154.951 31.5533 155.233 31.3942 155.422C31.3055 155.528 31.1786 155.581 31.0516 155.581L31.0501 155.579Z" fill="#007C99"/>
<path d="M23.9597 150.199C23.9597 150.199 26.4511 154.683 30.0131 157.291L23.9597 150.199Z" fill="white"/>
<path d="M30.0131 157.737C29.9214 157.737 29.8281 157.708 29.7486 157.65C26.1498 155.015 23.6722 150.602 23.5682 150.416C23.4489 150.199 23.5269 149.928 23.7426 149.809C23.9582 149.688 24.232 149.768 24.3513 149.983C24.3757 150.027 26.8396 154.414 30.2777 156.931C30.4766 157.077 30.5194 157.356 30.3741 157.556C30.2869 157.675 30.1508 157.739 30.0116 157.739L30.0131 157.737Z" fill="#007C99"/>
<path d="M259.419 117.329C259.058 120.431 257.986 123.357 256.325 125.911C254.665 128.461 252.429 130.639 249.738 132.233L236.901 139.849L220.797 109.624L207.102 81.4537C207.102 81.4537 200.792 79.2927 194.572 73.7644C188.346 68.2316 196.191 55.2185 196.191 55.2185C196.191 55.2185 192.81 56.0283 191.998 54.8754C191.186 53.7209 190.513 46.387 201.266 43.9561C212.019 41.5298 218.51 55.4884 218.51 55.4884C225.204 55.9612 223.511 66.0752 223.511 66.0752L254.647 101.906C258.333 106.156 260.066 111.75 259.417 117.329H259.419Z" fill="white"/>
<path d="M236.903 140.296C236.863 140.296 236.822 140.289 236.782 140.279C236.664 140.245 236.565 140.166 236.507 140.058L220.402 109.833L206.78 81.8105C205.7 81.4079 199.909 79.1051 194.274 74.0984C188.714 69.1588 193.668 58.8846 195.324 55.8392C194.142 56.0145 192.314 56.1015 191.631 55.1315C191.146 54.4437 190.82 52.4109 191.661 50.2347C192.544 47.9532 194.908 44.9352 201.167 43.5199C211.362 41.2186 217.868 53.2207 218.801 55.066C220.316 55.2307 221.535 55.8864 222.43 57.018C224.683 59.8698 224.138 64.8414 223.984 65.9395L254.985 101.615C258.746 105.95 260.523 111.697 259.862 117.38C259.5 120.495 258.406 123.528 256.7 126.155C254.984 128.792 252.654 131.026 249.964 132.617L237.129 140.232C237.059 140.273 236.979 140.294 236.9 140.294L236.903 140.296ZM196.195 54.7716C196.335 54.7716 196.47 54.8372 196.555 54.9546C196.663 55.0995 196.672 55.2947 196.578 55.4487C196.502 55.5753 188.996 68.2087 194.873 73.4304C200.948 78.8275 207.189 81.0083 207.252 81.0297C207.365 81.0678 207.457 81.1502 207.509 81.2569L221.203 109.427L237.079 139.223L249.51 131.848C252.082 130.326 254.311 128.19 255.952 125.669C257.584 123.157 258.63 120.255 258.975 117.277C259.609 111.841 257.908 106.345 254.312 102.199L223.176 66.368C223.089 66.2673 223.051 66.1331 223.072 66.002C223.082 65.9471 223.973 60.4082 221.728 57.5685C220.947 56.5803 219.855 56.0313 218.481 55.9337C218.319 55.9215 218.175 55.8239 218.106 55.676C218.042 55.5402 211.643 42.0727 201.367 44.3907C195.494 45.719 193.304 48.4763 192.501 50.5549C191.745 52.5115 192.094 54.2302 192.366 54.6176C192.805 55.2398 194.807 55.0904 196.089 54.7838C196.124 54.7762 196.158 54.7716 196.193 54.7716H196.195Z" fill="#007C99"/>
<path d="M221.13 109.917C220.968 109.917 220.81 109.828 220.731 109.674C220.618 109.455 220.705 109.185 220.925 109.074L235.448 101.645C235.67 101.532 235.939 101.619 236.052 101.839C236.166 102.058 236.078 102.328 235.858 102.44L221.335 109.868C221.269 109.902 221.199 109.917 221.13 109.917Z" fill="#007C99"/>
<path d="M207.105 116.07L227.272 106.58C237.567 117.736 242.347 126.769 245.021 139.577L216.347 155.221L207.105 116.069V116.07Z" fill="#76D8EF"/>
<path d="M216.348 155.67C216.189 155.67 216.036 155.586 215.953 155.438C215.835 155.221 215.913 154.95 216.13 154.831L244.512 139.346C241.832 126.737 237.096 117.945 227.162 107.126L207.295 116.476C207.07 116.581 206.804 116.485 206.699 116.263C206.593 116.04 206.689 115.773 206.913 115.668L227.078 106.178C227.255 106.094 227.466 106.135 227.6 106.28C237.892 117.435 242.733 126.435 245.458 139.489C245.498 139.681 245.408 139.878 245.235 139.972L216.562 155.616C216.493 155.653 216.42 155.671 216.348 155.671V155.67Z" fill="#007C99"/>
<path d="M208.203 116.006L149.719 119.386C143.587 119.74 138.669 124.569 138.219 130.677L131.678 219.552H223.514L221.13 127.465C220.729 120.745 214.945 115.616 208.203 116.006Z" fill="#76D8EF"/>
<path d="M223.514 220C223.273 220 223.072 219.808 223.066 219.565L220.682 127.479C220.676 127.232 220.871 127.028 221.118 127.022C221.379 127.011 221.57 127.211 221.578 127.456L223.962 219.543C223.968 219.79 223.773 219.994 223.526 220C223.522 220 223.519 220 223.514 220Z" fill="#007C99"/>
<path d="M154.825 119.091L143.564 119.674C137.063 120.01 129.585 123.148 125.502 128.205L106.656 147.536L129.93 186.378L151.328 168.134C158.057 162.396 161.209 153.519 159.599 144.839L154.824 119.091H154.825Z" fill="#76D8EF"/>
<path d="M129.93 186.823C129.905 186.823 129.881 186.821 129.858 186.817C129.728 186.795 129.613 186.718 129.546 186.605L106.273 147.764C106.169 147.59 106.195 147.369 106.335 147.222L125.181 127.891C125.354 127.714 125.638 127.709 125.814 127.882C125.991 128.054 125.996 128.336 125.823 128.513L107.218 147.597L130.041 185.69L151.037 167.79C151.225 167.63 151.508 167.652 151.669 167.839C151.829 168.027 151.806 168.309 151.62 168.469L130.22 186.713C130.139 186.783 130.035 186.82 129.93 186.82V186.823Z" fill="#007C99"/>
<path d="M195.255 83.8784L191.706 120.501C191.683 125.834 161.01 124.31 161.033 118.977L169.495 90.1722L195.254 83.8784H195.255Z" fill="white"/>
<path d="M179.561 124.266C179.47 124.266 179.38 124.266 179.29 124.266C172.05 124.235 160.57 122.771 160.587 118.977C160.587 118.936 160.593 118.893 160.605 118.854L169.069 90.0487C169.113 89.8962 169.237 89.7788 169.392 89.7407L195.15 83.4469C195.292 83.4118 195.439 83.4484 195.551 83.5429C195.661 83.6375 195.717 83.7793 195.704 83.9242L192.154 120.546C192.151 121.835 190.774 122.835 188.066 123.479C185.891 123.996 182.954 124.269 179.562 124.269L179.561 124.266ZM161.483 119.037C161.546 120.144 163.574 121.249 167.068 122.078C170.461 122.881 174.916 123.352 179.293 123.371C179.379 123.371 179.467 123.371 179.553 123.371C186.452 123.371 191.25 122.198 191.258 120.498L194.748 84.461L169.853 90.5444L161.483 119.035V119.037Z" fill="#007C99"/>
<path d="M173.253 101.177C168.725 102.31 164.323 102.336 161.128 101.214C154.568 98.9062 149.72 91.3191 149.58 81.9691C148.637 80.6012 147.163 78.8062 146.655 77.7981C146.441 77.3711 146.221 76.9319 146.215 76.4531C146.215 75.4176 147.186 74.6855 148.015 74.0664C149.353 73.0751 150.572 71.9283 151.65 70.661C156.708 57.7043 171.525 46.9086 182.503 50.5336C193.865 54.2928 196.976 71.5562 192.472 85.1092C191.901 86.8096 191.123 88.391 190.175 89.8429" fill="white"/>
<path d="M166.611 102.485C164.517 102.485 162.593 102.203 160.981 101.636C154.07 99.2035 149.321 91.3694 149.136 82.114C148.816 81.6549 148.442 81.1532 148.068 80.6515C147.313 79.6373 146.6 78.6811 146.258 78.001C146.031 77.5496 145.777 77.0417 145.77 76.4607C145.77 75.1888 146.868 74.3699 147.75 73.711C149.027 72.7655 150.208 71.6614 151.263 70.4307C156.21 57.8568 170.97 46.2558 182.647 50.1111C194.292 53.9649 197.397 71.7239 192.9 85.251C192.331 86.9468 191.542 88.574 190.552 90.0884C190.416 90.2943 190.14 90.3538 189.932 90.2196C189.724 90.0854 189.665 89.8078 189.8 89.6019C190.748 88.1516 191.504 86.593 192.048 84.9704C196.41 71.8444 193.507 54.6481 182.364 50.9606C171.121 47.2486 156.846 58.5903 152.069 70.8257C152.051 70.8714 152.025 70.9141 151.993 70.9523C150.883 72.2577 149.633 73.4274 148.284 74.4263C147.526 74.9921 146.664 75.6356 146.664 76.4546C146.669 76.8252 146.857 77.2018 147.058 77.5999C147.365 78.2099 148.088 79.1798 148.787 80.1192C149.197 80.6698 149.609 81.2218 149.95 81.7175C150 81.7907 150.028 81.8761 150.029 81.9645C150.164 90.9073 154.685 98.473 161.28 100.794C164.366 101.878 168.693 101.86 173.146 100.745C173.388 100.686 173.63 100.831 173.691 101.07C173.75 101.31 173.605 101.552 173.365 101.613C171.037 102.196 168.737 102.487 166.613 102.487L166.611 102.485Z" fill="#007C99"/>
<path d="M172.333 69.6865C172.333 69.6865 167.705 62.3892 167.92 56.2738C167.92 56.2738 154.827 59.7295 150.685 48.519C146.544 37.3085 158.291 33.5843 168.082 38.1442C168.082 38.1442 165.931 31.1184 169.48 30.0447C173.03 28.9726 179.056 35.6767 179.056 35.6767C179.056 35.6767 179.917 31.4386 181.208 28.7042C181.208 28.7042 185.189 37.3405 191.16 38.3058C197.131 39.2712 205.522 41.9537 206.328 57.1858C206.328 57.1858 211.895 60.3777 208.506 76.0398C205.903 88.0692 198.603 95.3208 195.356 98.0369C194.411 98.8284 193.221 99.2645 191.986 99.2645L183.583 100.257C180.744 100.593 178.29 98.2931 178.447 95.4474L179.29 80.2763L172.333 69.685V69.6865Z" fill="#007C99"/>
<path d="M171.563 70.3606C171.563 70.3606 179.544 62.9824 183.794 64.663C188.044 66.3436 185.846 81.4201 180.679 82.6478C175.511 83.8739 171.47 81.7007 171.47 81.7007" fill="white"/>
<path d="M177.441 83.4743C173.873 83.4743 171.389 82.1658 171.256 82.0942C171.039 81.9767 170.958 81.7068 171.074 81.4887C171.192 81.2706 171.462 81.1913 171.681 81.3072C171.721 81.3286 175.648 83.3828 180.575 82.2131C183.263 81.5741 185.212 76.4729 185.542 71.9084C185.8 68.3216 185.05 65.6406 183.629 65.0793C179.69 63.5208 171.946 70.6167 171.868 70.6884C171.686 70.8562 171.403 70.8455 171.234 70.664C171.066 70.4825 171.077 70.2004 171.259 70.0327C171.594 69.7231 179.493 62.4837 183.959 64.2482C185.807 64.9787 186.732 67.8671 186.435 71.9725C186.077 76.9121 184.022 82.3138 180.782 83.0824C179.599 83.363 178.475 83.4728 177.441 83.4728V83.4743Z" fill="#007C99"/>
<path d="M177.075 71.4906C178.253 70.8669 179.43 70.2432 180.607 69.6179C180.821 69.5035 181.052 69.3876 181.293 69.4059C181.569 69.4288 181.804 69.6301 181.934 69.8726C182.064 70.1151 182.105 70.3941 182.131 70.6686C182.248 71.9603 182.037 73.2795 181.521 74.469" fill="white"/>
<path d="M181.523 74.9174C181.463 74.9174 181.403 74.9052 181.345 74.8808C181.117 74.7832 181.013 74.5193 181.111 74.2936C181.598 73.1697 181.796 71.9298 181.686 70.7098C181.666 70.4887 181.636 70.2599 181.541 70.0845C181.471 69.9549 181.354 69.8603 181.258 69.8527C181.151 69.8436 180.961 69.9366 180.819 70.0128L177.286 71.8856C177.068 72.0015 176.797 71.9176 176.681 71.7011C176.564 71.483 176.647 71.213 176.866 71.0971L180.397 69.2244C180.616 69.1085 180.957 68.9316 181.33 68.9621C181.738 68.9956 182.112 69.2564 182.33 69.6621C182.502 69.9778 182.55 70.3148 182.58 70.6305C182.703 71.9969 182.482 73.3877 181.934 74.6489C181.861 74.8182 181.696 74.9189 181.523 74.9189V74.9174Z" fill="#007C99"/>
<path d="M165.045 68.5519C164.274 66.7645 162.373 65.6253 160.218 65.6604L165.045 68.5519Z" fill="white"/>
<path d="M165.045 68.9987C164.872 68.9987 164.705 68.898 164.634 68.7288C163.944 67.129 162.257 66.1072 160.318 66.1072C160.284 66.1072 160.246 66.1072 160.218 66.1072C159.975 66.1072 159.775 65.912 159.77 65.668C159.766 65.421 159.963 65.2181 160.211 65.2136C162.572 65.18 164.612 66.4153 165.456 68.375C165.554 68.6022 165.449 68.8645 165.221 68.9621C165.163 68.9865 165.103 68.9987 165.044 68.9987H165.045Z" fill="#007C99"/>
<path d="M161.757 88.4794C161.321 87.2869 160.394 86.2803 159.241 85.7451C158.086 85.2098 156.717 85.1533 155.523 85.5895" fill="white"/>
<path d="M161.757 88.9278C161.573 88.9278 161.402 88.815 161.336 88.6335C160.938 87.5446 160.106 86.6403 159.053 86.1523C157.999 85.6642 156.768 85.6124 155.677 86.012C155.446 86.0974 155.188 85.9784 155.102 85.7466C155.017 85.5148 155.136 85.2586 155.368 85.1732C156.681 84.6928 158.161 84.7553 159.43 85.3425C160.698 85.9296 161.7 87.0185 162.179 88.3285C162.263 88.5603 162.144 88.8165 161.911 88.9019C161.861 88.9202 161.809 88.9293 161.758 88.9293L161.757 88.9278Z" fill="#007C99"/>
<path d="M218.51 55.4899C218.51 55.4899 204.729 51.7551 203.071 56.928C201.413 62.1009 212.078 63.1791 212.078 63.1791C212.078 63.1791 209.314 68.3871 214.528 68.9987" fill="white"/>
<path d="M214.529 69.4455C214.512 69.4455 214.494 69.4455 214.476 69.4425C212.888 69.2564 211.81 68.6449 211.271 67.6231C210.533 66.2185 211.059 64.4465 211.42 63.5467C209.664 63.2981 204.687 62.3816 203.014 59.8378C202.413 58.9243 202.289 57.8995 202.642 56.7923C204.41 51.2747 218.047 54.9013 218.626 55.0583C218.865 55.1224 219.006 55.3679 218.941 55.6073C218.877 55.8453 218.631 55.9856 218.392 55.9215C214.674 54.915 204.75 53.1566 203.497 57.0653C203.225 57.9147 203.312 58.662 203.764 59.3483C205.53 62.0369 212.058 62.7293 212.123 62.7354C212.272 62.7506 212.402 62.8375 212.472 62.9687C212.542 63.0998 212.544 63.2569 212.474 63.3881C212.461 63.411 211.27 65.7031 212.065 67.2098C212.457 67.9525 213.304 68.4054 214.58 68.5549C214.826 68.5839 215 68.8065 214.973 69.0505C214.945 69.2778 214.752 69.4455 214.528 69.4455H214.529Z" fill="#007C99"/>
<path d="M90.4907 168.866C90.3622 168.866 90.2337 168.811 90.145 168.704C89.9875 168.515 90.0135 168.233 90.2031 168.074L95.7197 163.508C95.9109 163.351 96.1923 163.377 96.3514 163.566C96.5089 163.755 96.4829 164.037 96.2933 164.196L90.7767 168.762C90.6926 168.831 90.5916 168.866 90.4907 168.866Z" fill="#007C99"/>
<path d="M66.3428 116.998H59.699C56.137 116.998 54.1564 116.276 53.7618 114.832C53.5966 114.227 53.7221 113.548 54.1381 112.799C54.4914 112.226 54.8492 111.648 55.2117 111.064C56.3052 108.529 57.9983 104.759 60.2909 99.7556C60.843 98.6088 61.8126 98.0369 63.1998 98.0369C63.8544 98.0369 64.4662 98.2016 65.0336 98.5325C65.7081 98.929 66.1439 99.4857 66.3397 100.202L69.7595 112.635C71.2246 112.679 72.2371 112.828 72.7954 113.081C73.4209 113.379 73.8522 113.963 74.0908 114.834C74.3523 115.749 74.103 116.377 73.3414 116.719C72.8045 116.95 72.0092 117.043 70.9539 116.999C71.4219 118.587 71.8869 120.305 72.3488 122.157C72.5032 122.762 72.4405 123.264 72.1607 123.661C71.8808 124.057 71.4082 124.255 70.7414 124.255C69.0544 124.255 67.9486 123.153 67.4225 120.949L66.3412 116.998H66.3428ZM63.1157 105.211C62.5009 106.897 61.519 109.371 60.1701 112.633H65.1483L63.1157 105.211Z" fill="#959595"/>
<path d="M88.2745 124.47C84.6008 124.47 81.5053 122.895 78.9894 119.743C77.1281 117.406 75.6935 114.391 74.6826 110.699C73.82 107.547 73.8674 104.781 74.8248 102.4C75.9749 99.5451 78.2262 98.1177 81.5772 98.1177C84.7522 98.1177 87.5633 99.3911 90.0149 101.936C92.0796 104.085 93.528 106.681 94.36 109.723C95.7043 114.638 95.871 118.326 94.857 120.783C93.8415 123.241 91.6483 124.469 88.2745 124.469V124.47ZM82.738 102.417C80.9394 102.417 79.7403 103.304 79.1377 105.078C78.6055 106.621 78.6177 108.412 79.1775 110.451C79.9132 113.141 80.736 115.212 81.6445 116.667C83.1081 119.014 84.9281 120.188 87.1029 120.188C88.9229 120.188 90.0623 119.364 90.5212 117.716C90.98 116.069 90.7582 113.597 89.8559 110.301C89.1355 107.667 88.1812 105.694 86.9959 104.383C85.8106 103.071 84.3897 102.415 82.7364 102.415L82.738 102.417Z" fill="#959595"/>
<path d="M110.01 116.998H103.367C99.8047 116.998 97.8241 116.276 97.4295 114.832C97.2644 114.227 97.3898 113.548 97.8058 112.799C98.1591 112.226 98.517 111.648 98.8794 111.064C99.973 108.529 101.666 104.759 103.959 99.7556C104.511 98.6088 105.48 98.0369 106.868 98.0369C107.522 98.0369 108.134 98.2016 108.701 98.5325C109.376 98.929 109.812 99.4857 110.007 100.202L113.427 112.635C114.892 112.679 115.905 112.828 116.463 113.081C117.089 113.379 117.52 113.963 117.758 114.834C118.02 115.749 117.771 116.377 117.009 116.719C116.472 116.95 115.677 117.043 114.622 116.999C115.09 118.587 115.555 120.305 116.016 122.157C116.171 122.762 116.108 123.264 115.828 123.661C115.548 124.057 115.076 124.255 114.409 124.255C112.722 124.255 111.616 123.153 111.09 120.949L110.009 116.998H110.01ZM106.783 105.211C106.169 106.897 105.187 109.371 103.838 112.633H108.816L106.783 105.211Z" fill="#959595"/>
<path d="M11.4049 69.2061L49.1232 67.4996C51.9496 67.3715 53.4866 64.1491 51.8027 61.8829L31.3316 34.3148C29.8236 32.285 26.728 32.4497 25.4449 34.6275L8.19768 63.902C6.77685 66.3131 8.60297 69.3327 11.4049 69.2061Z" fill="#76D8EF"/>
<path d="M29.1689 59.1195C27.4315 61.7884 30.6693 64.6402 33.0659 62.589C34.7941 59.9507 31.5884 57.0653 29.1689 59.1195Z" fill="white"/>
<path d="M26.6775 45.4202C26.6837 45.4888 26.6944 45.5605 26.7051 45.6291L28.2238 54.7076C28.4272 55.9185 29.5268 56.8427 30.7427 56.8213C31.9479 56.8 32.8533 55.8483 32.8227 54.6481L32.5795 45.6779C32.5321 43.9942 31.0593 42.5409 29.3586 42.515C27.713 42.489 26.5215 43.8067 26.6775 45.4217V45.4202Z" fill="white"/>
<path d="M72.9056 13.4966L79.326 46.9787C79.6701 48.7737 81.4091 49.951 83.2092 49.6079L119.366 42.7147C119.848 42.6232 120.345 42.6385 120.821 42.7605L133.06 45.9158C135.419 46.5243 137.609 44.4761 137.15 42.091L129.595 2.68867C129.251 0.8937 127.512 -0.283627 125.712 0.059506L75.5423 9.62453C73.7421 9.96766 72.5614 11.7016 72.9056 13.4966Z" fill="#007C99"/>
<path d="M88.2042 22.781C88.1155 22.7947 88.0207 22.7962 87.9197 22.784C87.1749 22.7032 86.4638 22.7154 85.7893 22.8221C85.4589 22.874 85.1072 22.9563 84.737 23.0692C84.3654 23.182 83.9754 23.3239 83.564 23.4962C83.6558 24.0818 83.7735 24.9526 83.9158 26.1116C84.1605 26.0552 85.0093 25.8387 86.4653 25.4604C87.2957 25.2439 87.8219 25.1188 88.0467 25.0838C88.3067 25.0426 88.5422 25.0899 88.7533 25.2256C88.9643 25.3613 89.0913 25.5657 89.1356 25.8386C89.2182 26.3617 88.9858 26.7033 88.4367 26.8619C88.088 26.9443 87.5665 27.0709 86.8752 27.2432C86.2588 27.4125 85.3289 27.6458 84.0825 27.9462C84.1406 28.5105 84.1956 28.9634 84.2507 29.3066C84.3868 30.1682 84.5153 30.6517 84.6361 30.7538C84.6942 30.8042 84.9756 30.7889 85.4834 30.7081C85.7572 30.6654 86.1686 30.5937 86.7176 30.4931C87.2667 30.3924 87.6781 30.3223 87.9519 30.278C88.0406 30.2643 88.1675 30.2308 88.3358 30.1774C88.504 30.124 88.6294 30.0904 88.7135 30.0767C88.9689 30.0371 89.1983 30.0752 89.4033 30.1911C89.6358 30.3207 89.7749 30.5342 89.8223 30.8286C89.9003 31.3211 89.6893 31.6567 89.1876 31.8351C88.7594 31.9876 87.8509 32.1736 86.4607 32.3917C85.023 32.6174 84.0549 32.5717 83.5563 32.2529C83.0073 31.9022 82.6219 31.0161 82.397 29.5948C82.3038 29.0046 82.2074 28.114 82.1065 26.9184C82.0055 25.7243 81.9092 24.8337 81.8174 24.248C81.7929 24.094 81.7348 23.8698 81.643 23.5755C81.5513 23.2812 81.4932 23.057 81.4687 22.903C81.3632 22.2335 81.6186 21.8507 82.2365 21.7546C82.4307 21.7241 82.6188 21.7516 82.7978 21.8354C83.2902 21.628 83.7613 21.4557 84.2125 21.3184C84.6636 21.1827 85.0934 21.0821 85.5033 21.018C86.6152 20.8426 87.5236 20.832 88.2302 20.9814C88.6615 21.0714 88.9078 21.3184 88.972 21.7241C89.0087 21.9529 88.9613 22.1679 88.8298 22.3692C88.686 22.5995 88.4765 22.7352 88.2027 22.7794L88.2042 22.781Z" fill="white"/>
<path d="M98.5369 29.909C98.2984 29.9471 98.0659 29.8876 97.838 29.7351C96.304 28.6966 94.6981 28.0606 93.0204 27.8273C93.2712 29.0992 93.4073 29.8068 93.4287 29.9471C93.4685 30.1972 93.4134 30.4245 93.2651 30.6258C93.1167 30.8271 92.9087 30.9491 92.6441 30.9902C92.3795 31.0314 92.1455 30.9796 91.9406 30.8332C91.7372 30.6868 91.6148 30.4885 91.5751 30.2384C91.5231 29.909 91.4496 29.4134 91.3548 28.7545C91.26 28.0957 91.1866 27.6016 91.1331 27.2707L90.3056 21.9437C90.2613 21.657 90.3056 21.384 90.4418 21.1248C90.6192 20.7908 90.9098 20.6078 91.3105 20.5758C92.3948 20.4858 92.9515 20.4416 92.9775 20.4416C93.6076 20.4187 94.1552 20.4843 94.6232 20.6368C96.6558 21.2864 97.7829 22.3113 98.0047 23.7097C98.0965 24.2862 97.9787 24.8261 97.6545 25.3308C97.3287 25.8356 96.7949 26.3008 96.0532 26.7278C97.3256 27.196 98.3106 27.7206 99.0095 28.3062C99.1915 28.4587 99.3001 28.6417 99.3338 28.8567C99.372 29.1038 99.3139 29.3295 99.1564 29.5369C98.9988 29.7443 98.7924 29.8678 98.5369 29.9075V29.909ZM92.9836 22.2747C92.9485 22.2747 92.6869 22.2991 92.2006 22.3433L92.7542 25.8478C92.8643 25.8356 92.9622 25.8219 93.0464 25.8082C94.1276 25.6389 94.9061 25.3781 95.3848 25.0289C95.5913 24.8794 95.7733 24.6949 95.9324 24.4768C96.0899 24.2587 96.1618 24.1001 96.1465 24.0041C96.0685 23.5115 95.68 23.086 94.9811 22.7261C94.3173 22.389 93.652 22.2381 92.9836 22.2762V22.2747Z" fill="white"/>
<path d="M107.618 28.4816C107.38 28.5197 107.147 28.4602 106.92 28.3077C105.386 27.2692 103.78 26.6332 102.102 26.3999C102.353 27.6718 102.489 28.3794 102.51 28.5197C102.55 28.7698 102.495 28.997 102.347 29.1983C102.198 29.3996 101.99 29.5216 101.726 29.5628C101.461 29.604 101.227 29.5521 101.022 29.4057C100.819 29.2593 100.696 29.0611 100.657 28.811C100.605 28.4816 100.531 27.9859 100.436 27.3271C100.342 26.6683 100.268 26.1742 100.215 25.8433L99.3872 20.5163C99.3428 20.2296 99.3872 19.9581 99.5233 19.6974C99.7007 19.3634 99.9913 19.1804 100.394 19.1483C101.478 19.0584 102.035 19.0141 102.061 19.0141C102.691 18.9913 103.238 19.0568 103.706 19.2093C105.74 19.859 106.866 20.8838 107.088 22.2823C107.18 22.8588 107.062 23.3986 106.738 23.9034C106.412 24.4082 105.88 24.8733 105.136 25.3003C106.409 25.767 107.394 26.2931 108.093 26.8787C108.275 27.0297 108.383 27.2143 108.417 27.4293C108.457 27.6763 108.397 27.9021 108.239 28.1095C108.082 28.3169 107.875 28.4404 107.62 28.48L107.618 28.4816ZM102.065 20.8472C102.028 20.8472 101.768 20.8716 101.282 20.9159L101.836 24.4204C101.946 24.4082 102.044 24.3945 102.128 24.3807C103.209 24.2115 103.988 23.9507 104.466 23.5999C104.673 23.4505 104.855 23.2659 105.014 23.0479C105.171 22.8298 105.243 22.6712 105.228 22.5751C105.15 22.0825 104.762 21.657 104.063 21.2971C103.399 20.9601 102.734 20.8091 102.065 20.8472Z" fill="white"/>
<path d="M114.502 27.7328C113.196 27.9371 112.026 27.7389 110.989 27.135C109.884 26.4884 109.231 25.5291 109.029 24.2572C108.792 22.7612 109.046 21.3246 109.792 19.9444C110.627 18.3935 111.846 17.4922 113.447 17.2406C114.987 16.9981 116.196 17.1689 117.075 17.753C117.954 18.3355 118.505 19.3344 118.728 20.7466C118.965 22.2427 118.747 23.6655 118.074 25.0152C117.298 26.5753 116.108 27.4812 114.502 27.7343V27.7328ZM113.732 19.0294C112.747 19.1834 111.98 19.7919 111.428 20.8518C110.911 21.8446 110.739 22.8801 110.91 23.9629C111.025 24.6934 111.404 25.2424 112.045 25.6099C112.661 25.9637 113.388 26.0751 114.221 25.9439C115.192 25.7914 115.926 25.189 116.425 24.1368C116.884 23.1775 117.026 22.1451 116.852 21.0409C116.706 20.1168 116.397 19.5068 115.925 19.2124C115.474 18.9318 114.743 18.8708 113.733 19.0294H113.732Z" fill="white"/>
<path d="M127.929 25.2912C127.69 25.3293 127.458 25.2698 127.23 25.1173C125.696 24.0773 124.09 23.4429 122.412 23.2095C122.663 24.4814 122.799 25.189 122.822 25.3293C122.862 25.5794 122.807 25.8067 122.659 26.008C122.51 26.2093 122.302 26.3313 122.038 26.3724C121.773 26.4136 121.539 26.3618 121.336 26.2154C121.131 26.069 121.01 25.8707 120.97 25.6206C120.918 25.2912 120.845 24.7971 120.75 24.1367C120.655 23.4779 120.582 22.9838 120.53 22.6529L119.702 17.3259C119.658 17.0392 119.702 16.7662 119.838 16.507C120.016 16.173 120.305 15.99 120.707 15.958C121.792 15.868 122.348 15.8238 122.374 15.8238C123.003 15.8009 123.552 15.8665 124.02 16.019C126.052 16.6686 127.18 17.6935 127.401 19.0919C127.493 19.6684 127.375 20.2083 127.05 20.713C126.724 21.2178 126.192 21.683 125.45 22.11C126.721 22.5782 127.707 23.1028 128.406 23.6884C128.588 23.8394 128.697 24.0239 128.73 24.2389C128.77 24.486 128.711 24.7117 128.553 24.9191C128.396 25.1265 128.189 25.25 127.934 25.2897L127.929 25.2912ZM122.376 17.6569C122.339 17.6569 122.079 17.6813 121.593 17.7255L122.146 21.23C122.256 21.2178 122.354 21.2041 122.438 21.1904C123.52 21.0211 124.298 20.7603 124.777 20.4111C124.983 20.2616 125.165 20.0771 125.324 19.859C125.482 19.6409 125.554 19.4823 125.539 19.3863C125.461 18.8937 125.072 18.4682 124.373 18.1083C123.709 17.7712 123.044 17.6203 122.376 17.6584V17.6569Z" fill="white"/>
<path d="M229.715 50.7669C228.866 50.3735 228.219 49.7375 227.777 48.8607C227.304 47.8953 227.278 46.9605 227.7 46.0561C228.187 45.0145 228.935 44.1864 229.946 43.5734C231.168 42.8169 232.382 42.7178 233.589 43.2775C234.601 43.7472 235.207 44.5036 235.409 45.5483C235.556 46.3992 235.424 47.2624 235.017 48.1347C234.581 49.0696 233.928 49.829 233.056 50.4147C231.945 51.1665 230.831 51.2839 229.715 50.7654V50.7669ZM248.149 39.2087C248.01 39.2377 246.365 39.5564 243.218 40.1664C241.214 40.5416 239.605 40.9991 238.394 41.5374C237.301 42.0178 236.322 42.0575 235.458 41.6579C234.609 41.2645 234.012 40.6011 233.67 39.6677C233.326 38.7344 233.347 37.8545 233.734 37.0264C234.306 35.8003 235.906 34.873 238.536 34.2478C240.908 33.7826 243.285 33.3083 245.665 32.828C248.286 32.2179 249.88 31.306 250.446 30.0951C251.111 28.6692 251.032 27.0054 250.207 25.1037C249.383 23.2019 248.211 21.898 246.693 21.1935C245.888 20.8198 244.567 20.7802 242.727 21.073C240.887 21.3658 239.677 21.378 239.096 21.1096C238.217 20.7024 237.632 20.0253 237.34 19.0782C237.048 18.1312 237.091 17.2528 237.47 16.4399C238.186 14.9073 240.144 14.1097 243.343 14.0456C246.055 13.9801 248.141 14.2851 249.6 14.9622C252.832 16.4613 255.181 19.0432 256.652 22.7078C258.122 26.3725 258.116 29.7916 256.635 32.9652C255.169 36.1083 252.341 38.19 248.15 39.2102L248.149 39.2087Z" fill="#959595"/>
<path d="M220.922 27.8456C220.853 27.8868 220.05 28.3657 218.51 29.2837C217.527 29.8602 216.768 30.4062 216.233 30.9186C215.748 31.3791 215.24 31.585 214.711 31.5377C214.19 31.492 213.749 31.2556 213.391 30.8286C213.033 30.4031 212.876 29.9349 212.922 29.4256C212.989 28.6722 213.656 27.8807 214.919 27.0541C216.08 26.3602 217.239 25.6603 218.402 24.9572C219.665 24.1398 220.33 23.3575 220.397 22.6132C220.477 21.7363 220.118 20.8762 219.321 20.0314C218.525 19.1865 217.66 18.7229 216.725 18.639C216.23 18.5948 215.528 18.8251 214.615 19.3268C213.702 19.8301 213.068 20.0649 212.711 20.0329C212.171 19.9841 211.733 19.7401 211.4 19.2963C211.065 18.854 210.921 18.3828 210.967 17.8826C211.051 16.9401 211.929 16.1501 213.602 15.5096C215.017 14.9606 216.172 14.7273 217.069 14.8066C219.055 14.9835 220.784 15.897 222.256 17.5486C223.727 19.1987 224.375 20.9998 224.201 22.9503C224.028 24.8825 222.936 26.5128 220.925 27.8441L220.922 27.8456ZM213.422 37.4198C212.9 37.3725 212.438 37.1605 212.039 36.7839C211.606 36.366 211.414 35.878 211.464 35.3229C211.521 34.6824 211.758 34.1044 212.172 33.5904C212.672 32.9606 213.292 32.6785 214.034 32.7456C214.656 32.8005 215.119 33.0841 215.425 33.5965C215.664 34.0159 215.76 34.4948 215.711 35.0331C215.659 35.6081 215.46 36.1311 215.113 36.6039C214.671 37.2109 214.107 37.4839 213.422 37.4213V37.4198Z" fill="#959595"/>
<path d="M45.1484 196.704L42.5606 199.497C41.3432 200.8 39.3029 200.881 37.9984 199.677L35.1965 197.097C33.8904 195.894 33.8093 193.859 35.016 192.557L37.6038 189.752C38.8105 188.45 40.8507 188.369 42.166 189.573L44.9679 192.164C46.274 193.367 46.3551 195.4 45.1484 196.704Z" fill="#959595"/>
<path d="M71.1804 54.064L69.316 56.0771C68.4397 57.015 66.9699 57.0744 66.0278 56.2067L64.009 54.3477C63.0684 53.4799 63.0103 52.0144 63.879 51.0765L65.7433 49.0558C66.612 48.1179 68.0818 48.06 69.0316 48.9262L71.0504 50.7928C71.991 51.659 72.0491 53.1246 71.1804 54.064Z" fill="#959595"/>
<path d="M151.684 18.7701L149.82 20.7832C148.943 21.7211 147.474 21.7806 146.531 20.9128L144.513 19.0538C143.572 18.186 143.514 16.7205 144.383 15.7826L146.247 13.7619C147.116 12.824 148.585 12.7661 149.535 13.6323L151.554 15.4989C152.495 16.3652 152.553 17.8307 151.684 18.7701Z" fill="#959595"/>
<path d="M7.91624 105.346L6.05189 107.359C5.17554 108.297 3.70577 108.357 2.76365 107.489L0.74483 105.63C-0.195758 104.762 -0.253876 103.297 0.61483 102.359L2.47918 100.338C3.34789 99.4003 4.81765 99.3423 5.76742 100.209L7.78624 102.075C8.72683 102.941 8.78495 104.407 7.91624 105.346Z" fill="#959595"/>
</g>
<defs>
<clipPath id="clip0_1612_94">
<rect width="260" height="220" fill="white"/>
</clipPath>
</defs>
</svg>
