<svg width="302" height="220" viewBox="0 0 302 220" fill="none" xmlns="http://www.w3.org/2000/svg">
<g clip-path="url(#clip0_1641_339)">
<path d="M102.708 83.5949C89.5875 73.2699 59.6939 95.0487 65.9593 115.096C68.4669 123.121 91.0861 113.365 91.0861 113.365L103.966 108.571C113.242 107.388 109.009 96.6414 102.708 83.5931V83.5949Z" fill="#007C99"/>
<path d="M37.029 69.7617C38.0398 64.7121 43.9724 66.6946 43.9724 66.6946C43.9724 66.6946 40.9224 61.1652 45.4973 58.4155C48.4592 56.6359 52.3033 61.5303 52.3033 61.5303C52.3033 61.5303 51.0478 59.3926 49.8257 56.9992C48.7639 54.918 49.4946 52.3729 51.4863 51.1577C51.5092 51.1436 51.532 51.1294 51.5532 51.1171C53.5043 49.9213 56.0453 50.3904 57.4294 52.2159C58.9597 54.2354 60.2874 56.1367 60.2874 56.1367C58.7906 49.3251 64.8341 45.5048 68.8543 52.648C71.5257 57.3943 87.5431 74.2064 87.5431 74.2064L95.9164 80.309C96.9712 86.0147 105.318 95.4878 105.318 95.4878C98.843 110.342 90.6864 116.697 75.3892 118.373C75.3892 118.373 67.8172 111.931 63.3021 107.122C56.998 100.405 36.0165 74.8096 37.0272 69.76L37.029 69.7617Z" fill="white"/>
<path d="M75.3909 118.886C75.2694 118.886 75.1532 118.843 75.0598 118.764C74.9841 118.699 67.4139 112.249 62.9305 107.474C57.1881 101.354 35.4265 75.1641 36.5271 69.6612C36.8229 68.1885 37.5326 67.1161 38.6402 66.4724C40.1247 65.6116 41.9596 65.7457 43.0901 65.952C42.4069 64.1266 41.5141 60.211 45.2332 57.9764C46.9061 56.971 48.7515 57.7541 50.1902 58.8C49.9243 58.3044 49.6443 57.7735 49.3678 57.2321C48.1933 54.9304 49.0068 52.0695 51.2168 50.7203L51.5514 51.1171L51.2837 50.6797C53.4708 49.3375 56.2865 49.8649 57.8344 51.9055C58.4613 52.7327 59.0583 53.544 59.5425 54.2143C59.4967 51.5087 60.6378 49.3057 62.6153 48.5491C64.4132 47.8648 67.111 48.5103 69.2981 52.3958C71.8514 56.934 87.0765 72.9753 87.8794 73.8202L96.2157 79.8963C96.3214 79.9739 96.3935 80.0885 96.4182 80.2173C97.436 85.7167 105.617 95.0575 105.7 95.151C105.832 95.2991 105.866 95.5126 105.785 95.6942C99.1564 110.901 90.9329 117.186 75.4437 118.884C75.4261 118.886 75.4068 118.888 75.3891 118.888L75.3909 118.886ZM37.5308 69.8605C36.624 74.3898 56.5701 99.2006 63.6754 106.772C67.7502 111.113 74.4153 116.865 75.5547 117.84C90.3729 116.164 98.32 110.102 104.721 95.5796C103.388 94.0328 96.5767 85.9371 95.4567 80.6053L87.2437 74.6191C87.2191 74.6015 87.1962 74.5803 87.1751 74.5592C86.52 73.8713 71.0837 57.6465 68.4106 52.8985C66.8486 50.1224 64.7672 48.8207 62.9834 49.505C61.3211 50.1418 60.0338 52.5846 60.7892 56.0239C60.8421 56.262 60.7188 56.5054 60.4952 56.6024C60.2733 56.6994 60.0109 56.6271 59.8718 56.426C59.8577 56.4066 58.5317 54.5088 57.0244 52.5211C55.797 50.9019 53.5606 50.4839 51.8226 51.5492L51.7469 51.5951C49.9982 52.6639 49.3502 54.9356 50.2835 56.7629C51.4845 59.1175 52.733 61.2464 52.7453 61.2675C52.8827 61.5003 52.8157 61.7984 52.5939 61.9501C52.372 62.1035 52.0709 62.0559 51.9036 61.8443C51.8684 61.7984 48.3025 57.3255 45.7632 58.8512C41.669 61.3099 44.3087 66.236 44.4231 66.4441C44.5253 66.6293 44.5024 66.8569 44.3685 67.0191C44.2347 67.1814 44.0164 67.2431 43.8156 67.1779C43.7874 67.169 41.0228 66.2713 39.1544 67.3578C38.3145 67.8481 37.7686 68.6894 37.5344 69.8588L37.5308 69.8605Z" fill="#007C99"/>
<path d="M60.2891 56.135C60.2891 56.135 65.991 65.7898 70.4461 70.1604L60.2891 56.135Z" fill="white"/>
<path d="M70.4462 70.6736C70.3177 70.6736 70.1873 70.626 70.0887 70.5272C65.6371 66.1602 60.0849 56.7929 59.8507 56.3978C59.7063 56.1544 59.7873 55.8405 60.0303 55.6958C60.2733 55.553 60.5867 55.6323 60.7311 55.8757C60.7875 55.971 66.4506 65.5217 70.8054 69.7953C71.0079 69.9928 71.0097 70.3173 70.8125 70.5202C70.7121 70.6225 70.58 70.6736 70.4462 70.6736Z" fill="#007C99"/>
<path d="M52.3032 61.5303C52.3032 61.5303 55.966 68.379 62.4885 74.4692L52.3032 61.5303Z" fill="white"/>
<path d="M62.4885 74.9825C62.3635 74.9825 62.2385 74.9366 62.1398 74.8449C55.6314 68.767 51.8895 61.8425 51.8525 61.7737C51.7186 61.525 51.8137 61.2146 52.062 61.0806C52.3103 60.9465 52.622 61.04 52.7541 61.2905C52.791 61.3593 56.4591 68.1391 62.8372 74.0971C63.0432 74.2893 63.0555 74.6139 62.8618 74.8202C62.7615 74.9296 62.6241 74.9825 62.4885 74.9825Z" fill="#007C99"/>
<path d="M43.9741 66.6946C43.9741 66.6946 48.0084 74.2752 53.4638 79.1273L43.9741 66.6946Z" fill="white"/>
<path d="M53.462 79.6388C53.3405 79.6388 53.219 79.5965 53.1222 79.51C47.6598 74.6509 43.6871 67.2484 43.5216 66.9345C43.3895 66.6858 43.4828 66.3736 43.7329 66.2413C43.9847 66.109 44.2911 66.2025 44.4249 66.453C44.4654 66.5288 48.4804 74.0107 53.8019 78.7446C54.0132 78.9333 54.0326 79.2561 53.8441 79.4677C53.742 79.5824 53.6029 79.6406 53.462 79.6406V79.6388Z" fill="#007C99"/>
<path d="M100.135 89.4241C98.9099 83.3956 101.798 62.1159 95.8529 60.6908C83.8328 57.8088 85.5426 81.2138 85.5426 81.2138" fill="white"/>
<path d="M100.134 89.9355C99.896 89.9355 99.6829 89.768 99.6336 89.5264C99.2356 87.5721 99.2585 84.1822 99.2849 80.2596C99.336 72.5837 99.4064 62.07 95.7331 61.1899C93.5478 60.6661 91.7745 61.0153 90.3112 62.2605C85.0636 66.7263 86.0409 81.0339 86.0515 81.1767C86.0726 81.4589 85.8613 81.7041 85.5796 81.7253C85.2873 81.7535 85.0531 81.533 85.0319 81.2526C84.9879 80.6441 84.0071 66.2818 89.6491 61.4809C91.3537 60.0293 93.4809 59.5955 95.9708 60.1934C100.435 61.264 100.368 71.3597 100.308 80.2666C100.283 83.9723 100.26 87.4716 100.636 89.3235C100.692 89.6004 100.514 89.8703 100.236 89.9267C100.201 89.9338 100.167 89.9373 100.134 89.9373V89.9355Z" fill="#007C99"/>
<path d="M205.489 89.3676C205.489 89.3676 192.977 87.9108 180.888 90.7698C168.799 93.6306 134.146 124.717 134.146 124.717L102.708 83.5948C109.352 98.8019 80.4059 122.374 65.9592 115.097C65.9592 115.097 100.037 171.479 132.228 172.044C164.42 172.606 201.833 112.078 201.833 112.078L205.489 89.3694V89.3676Z" fill="#76D8EF"/>
<path d="M260.71 90.9815C272.756 91.5353 279.453 102.414 277.366 114.311L265.202 192.838C264.073 209.786 158.644 202.747 159.773 185.799L181.373 104.635C183.565 95.673 191.584 89.3694 200.797 89.3694L260.71 90.9832V90.9815Z" fill="#76D8EF"/>
<path d="M159.773 186.309C159.729 186.309 159.685 186.304 159.641 186.291C159.368 186.219 159.206 185.938 159.278 185.665L180.878 104.501C180.95 104.227 181.232 104.065 181.503 104.137C181.776 104.21 181.938 104.49 181.866 104.763L160.266 185.928C160.204 186.157 159.998 186.307 159.773 186.307V186.309Z" fill="#007C99"/>
<path d="M229.298 67.6946C230.092 70.3562 232.123 72.7355 234.79 73.4798C237.213 74.1588 239.779 73.4798 242.197 72.799C245.807 71.7936 255.756 60.7049 257.85 57.5848C261.405 52.2724 261.428 45.071 258.806 39.2418C256.203 33.4567 254.876 33.4514 249.364 30.3366C249.323 30.3084 249.274 30.2907 249.234 30.2625L246.777 32.185C242.096 38.6474 237.664 45.2915 233.496 52.0978C232.859 53.1437 232.221 54.1949 231.64 55.2743C230.89 56.6412 230.222 58.0381 229.729 59.5073C228.835 62.1388 228.509 65.0331 229.296 67.6946H229.298Z" fill="#007C99"/>
<path d="M236.039 91.7293C236.039 91.7293 234.565 68.9452 241.301 55.9128L211.271 59.1052L208.685 90.3271C213.425 96.5038 221.161 99.0524 236.039 91.7311V91.7293Z" fill="white"/>
<path d="M220.495 96.7366C215.406 96.7366 211.402 94.7083 208.28 90.6393C208.202 90.5388 208.165 90.4118 208.176 90.2848L210.762 59.0628C210.782 58.8177 210.974 58.6219 211.218 58.5954L241.248 55.403C241.433 55.3854 241.617 55.4683 241.723 55.6235C241.829 55.7787 241.841 55.9798 241.755 56.1473C235.165 68.901 236.535 91.4683 236.55 91.6958C236.564 91.9022 236.451 92.0962 236.264 92.1879C230.11 95.2162 224.897 96.7348 220.495 96.7348V96.7366ZM209.211 90.1701C214.645 97.0999 223.015 97.4968 235.511 91.4189C235.368 88.5687 234.612 68.7441 240.429 56.5213L211.745 59.5708L209.211 90.1719V90.1701Z" fill="#007C99"/>
<path d="M220.671 75.7021C212.087 77.8327 202.058 75.5839 196.797 70.0316C183.35 55.8405 190.704 38.0777 198.197 26.6698C202.866 19.5601 211.455 16.0996 219.724 18.0538L226.998 19.7717C238.222 22.4209 245.303 33.3826 243.373 44.7694C243.361 44.847 243.347 44.9228 243.334 45.0004C243.002 47.0393 242.405 49.0588 241.537 51.0078C242.063 55.396 239.158 61.5374 237.027 68.8834" fill="white"/>
<path d="M214.092 77.0002C207.197 77.0002 200.399 74.5786 196.427 70.3844C182.978 56.1915 189.735 38.6245 197.77 26.3876C202.549 19.1156 211.417 15.5652 219.842 17.5547L227.116 19.2726C238.492 21.9588 245.854 33.1957 243.879 44.8541L243.842 45.0816C243.505 47.1417 242.907 49.1612 242.061 51.0872C242.391 54.2796 241.043 58.2762 239.485 62.8955C238.825 64.8515 238.143 66.8763 237.52 69.0245C237.441 69.2962 237.161 69.4531 236.886 69.3738C236.615 69.2944 236.46 69.0104 236.537 68.7388C237.166 66.5694 237.853 64.5358 238.515 62.5674C240.056 57.9976 241.387 54.0503 241.029 51.0678C241.019 50.9761 241.033 50.8826 241.07 50.7979C241.908 48.9142 242.501 46.9371 242.831 44.9176L242.87 44.6847C244.755 33.5555 237.733 22.8318 226.882 20.2709L219.608 18.553C211.599 16.6587 203.169 20.0363 198.626 26.952C190.793 38.8785 184.183 55.9745 197.17 69.6807C202.204 74.9948 212.036 77.3195 220.55 75.2083C220.821 75.1395 221.101 75.307 221.17 75.5822C221.238 75.8573 221.071 76.1342 220.796 76.203C218.616 76.7445 216.35 77.0038 214.094 77.0038L214.092 77.0002Z" fill="#007C99"/>
<path d="M235.334 36.8413C235.57 36.6508 235.725 36.552 235.766 36.5238C235.724 36.5591 235.574 36.6702 235.334 36.8413Z" fill="#007C99"/>
<path d="M196.58 27.4528C200.103 30.393 204.937 31.1003 209.512 31.3331C210.379 31.3807 211.259 31.4107 212.113 31.3049C214.091 34.7724 218.264 36.3545 222.194 37.1341C223.927 37.478 225.672 37.7197 227.435 37.8678C228.539 37.9648 231.813 37.471 232.633 38.1377C233.579 38.9014 232.621 40.2877 232.276 41.1184C231.688 42.5488 231.307 44.0445 231.117 45.5789C230.68 49.0729 230.939 51.9143 231.281 53.8457C231.376 54.3977 231.637 54.888 231.99 55.2761C232.572 54.1966 233.209 53.1437 233.846 52.0995C238.015 45.2932 242.447 38.6492 247.127 32.1868L249.584 30.2643C249.624 30.2925 249.674 30.3101 249.714 30.3383C249.978 28.758 250.693 27.1001 250.817 25.5004C250.986 23.1969 250.718 20.8705 250.063 18.657C249.665 17.3307 249.133 16.0467 248.466 14.8297C245.682 9.79238 240.783 6.07968 235.326 4.28242C230.203 2.59627 224.626 2.53101 219.342 3.65452C218.799 2.87847 218.042 2.23646 217.202 1.79023C215.726 1.0036 214.017 0.742565 212.333 0.673778C207.801 0.476238 203.157 1.55918 199.387 4.09546C195.625 6.63174 192.813 10.6866 192.148 15.1824C191.473 19.6782 193.093 24.5462 196.583 27.4511L196.58 27.4528Z" fill="#007C99"/>
<path d="M231.989 55.2761C232.642 55.9816 233.637 56.3431 234.646 56.1456C234.646 56.1456 245.56 54.0097 245.569 54.0079C246.15 53.8933 247.071 51.835 247.312 51.4011C248.64 49.0183 249.535 46.3938 250.019 43.7129C250.361 41.8698 250.498 39.9896 250.464 38.1165C250.426 35.9171 249.732 33.7918 249.621 31.6541C249.598 31.2273 249.637 30.7881 249.714 30.3384C249.674 30.3101 249.624 30.2925 249.584 30.2643L247.128 32.1868C242.447 38.6492 238.015 45.2932 233.847 52.0996C233.209 53.1455 232.572 54.1966 231.991 55.2761H231.989Z" fill="#007C99"/>
<path d="M235.334 36.8413C235.576 36.6702 235.724 36.5591 235.766 36.5238C235.725 36.5503 235.57 36.6508 235.334 36.8413Z" fill="#007C99"/>
<path d="M210.548 44.7023C210.53 46.2386 209.723 47.6831 208.644 48.7766C207.565 49.8701 206.224 50.6603 204.891 51.4222C203.671 52.1189 202.379 52.8632 201.706 54.0996C200.811 55.7399 201.398 58.0275 202.97 59.0364" fill="white"/>
<path d="M202.97 59.5479C202.875 59.5479 202.78 59.5214 202.696 59.4667C200.891 58.3097 200.232 55.7399 201.259 53.8545C202.007 52.4805 203.405 51.6815 204.64 50.9778C206.038 50.1788 207.276 49.4363 208.283 48.4168C209.4 47.2862 210.023 45.9652 210.039 44.6971C210.042 44.4166 210.271 44.1909 210.549 44.1909H210.555C210.836 44.1944 211.064 44.4272 211.06 44.7094C211.042 46.2439 210.313 47.8171 209.01 49.1382C207.913 50.2494 206.612 51.0325 205.147 51.8685C203.976 52.5369 202.766 53.2266 202.157 54.3448C201.391 55.7505 201.901 57.7418 203.247 58.6042C203.485 58.7559 203.553 59.0734 203.402 59.3115C203.305 59.4632 203.139 59.5479 202.97 59.5479Z" fill="#007C99"/>
<path d="M231.105 53.7257C231.105 53.7257 243.574 43.8592 247.619 52.5546C251.664 61.2499 244.197 68.446 235.063 67.3983" fill="white"/>
<path d="M236.837 68.0121C236.233 68.0121 235.622 67.9768 235.005 67.9063C234.725 67.8745 234.523 67.6205 234.556 67.3383C234.588 67.0579 234.84 66.8515 235.123 66.8886C239.828 67.4283 244.224 65.728 246.582 62.451C248.57 59.6872 248.774 56.2496 247.156 52.7715C246.353 51.0466 245.189 50.0253 243.595 49.6461C238.657 48.475 231.494 54.0714 231.422 54.1296C231.2 54.306 230.879 54.2672 230.703 54.0449C230.529 53.8227 230.566 53.5017 230.788 53.3253C231.096 53.0819 238.407 47.3585 243.831 48.6496C245.722 49.0994 247.152 50.3411 248.082 52.3394C249.864 56.1685 249.625 59.9729 247.411 63.0507C245.15 66.1954 241.206 68.0121 236.837 68.0121Z" fill="#007C99"/>
<path d="M239.607 54.4559C240.874 55.2867 241.67 56.7964 241.639 58.3133C241.607 59.8301 240.748 61.3046 239.446 62.0806" fill="white"/>
<path d="M239.446 62.5921C239.272 62.5921 239.101 62.5022 239.006 62.3417C238.862 62.0983 238.941 61.7843 239.184 61.6397C240.336 60.9536 241.098 59.6431 241.126 58.3009C241.155 56.9604 240.448 55.6182 239.327 54.8827C239.091 54.7275 239.024 54.4101 239.179 54.1737C239.334 53.9374 239.651 53.8721 239.887 54.0256C241.297 54.9498 242.185 56.6359 242.149 58.3221C242.114 60.0082 241.154 61.6573 239.707 62.518C239.624 62.5674 239.534 62.5903 239.446 62.5903V62.5921Z" fill="#007C99"/>
<path d="M216.332 45.6953C217.255 45.6371 218.192 45.877 218.947 46.3673C219.703 46.8577 220.268 47.5914 220.523 48.415" fill="white"/>
<path d="M224.69 41.0426C224.537 40.8891 224.293 40.845 224.091 40.9509C223.429 41.2983 222.642 41.3989 221.874 41.2348C221.108 41.0708 220.361 40.6263 219.828 40.0196C219.631 39.8168 219.317 39.7868 219.106 39.9737C218.894 40.1607 218.873 40.4852 219.06 40.6969C219.752 41.4782 220.67 42.0232 221.661 42.2366C222.661 42.4501 223.693 42.316 224.565 41.8574C224.815 41.7269 224.912 41.4165 224.78 41.166C224.755 41.1184 224.725 41.0779 224.688 41.0408L224.69 41.0426Z" fill="#007C99"/>
<path d="M201.722 38.9173C202.645 38.8591 203.581 39.0989 204.337 39.5893C205.092 40.0796 205.658 40.8133 205.913 41.637" fill="white"/>
<path d="M209.574 35.4885C209.421 35.3351 209.178 35.291 208.975 35.3968C208.313 35.7443 207.526 35.8448 206.758 35.6808C205.992 35.5167 205.242 35.0758 204.712 34.4655C204.524 34.2645 204.201 34.2327 203.99 34.4197C203.779 34.6066 203.758 34.9312 203.944 35.1428C204.636 35.9242 205.554 36.4692 206.545 36.6826C207.545 36.896 208.577 36.7619 209.449 36.3051C209.699 36.1729 209.796 35.8642 209.664 35.6137C209.639 35.5679 209.607 35.5256 209.572 35.4903L209.574 35.4885Z" fill="#007C99"/>
<path d="M209.208 68.9469C209.149 68.9469 209.09 68.9363 209.03 68.9152C208.766 68.8164 208.63 68.5218 208.727 68.2573C209.898 65.0825 213.075 62.8108 216.452 62.7297C216.729 62.7209 216.968 62.9466 216.975 63.2306C216.982 63.5128 216.758 63.7474 216.475 63.7544C213.506 63.825 210.715 65.8215 209.685 68.6118C209.609 68.8182 209.414 68.9469 209.206 68.9469H209.208Z" fill="#007C99"/>
<path d="M13.82 19.583C13.82 19.583 3.93935 19.2531 1.01268 31.9645C-1.91399 44.6759 6.38881 55.6817 10.6661 60.2975C28.2596 79.2843 46.5398 133.853 52.8299 153.831C54.2193 158.246 58.3487 161.212 62.9693 161.124L117.891 160.069C122.536 159.979 126.564 156.821 127.761 152.325L130.045 143.755L26.6977 28.3083C26.6977 28.3083 23.5121 19.3219 13.82 19.583Z" fill="#404040"/>
<path d="M62.7721 161.532C58.0862 161.532 53.8582 158.441 52.446 153.954C45.5678 132.107 27.6978 79.2736 10.3702 60.5726C6.43103 56.3219 -2.40533 45.0145 0.619956 31.8745C3.53078 19.2302 13.355 19.1773 13.8181 19.179C23.1881 18.9215 26.6941 27.1918 27.048 28.0931L130.344 143.485C130.436 143.587 130.469 143.726 130.434 143.859L128.15 152.429C126.912 157.073 122.697 160.382 117.898 160.473L62.9764 161.528C62.9077 161.528 62.839 161.53 62.7721 161.53V161.532ZM13.7107 19.9851C12.6454 19.9851 4.0978 20.3555 1.40533 32.0544C-1.5319 44.817 7.10899 55.8651 10.9619 60.0223C28.4004 78.8433 46.3197 131.811 53.2155 153.709C54.5239 157.861 58.4349 160.722 62.7721 160.722C62.8355 160.722 62.8989 160.722 62.9623 160.72L117.884 159.666C122.325 159.581 126.227 156.519 127.374 152.221L129.601 143.861L26.3965 28.5781C26.3613 28.5393 26.3349 28.4934 26.3172 28.444C26.1922 28.0948 23.1969 19.9816 14.2373 19.9816C14.1034 19.9816 13.9678 19.9816 13.8305 19.9868C13.8234 19.9868 13.8146 19.9868 13.8058 19.9868C13.79 19.9868 13.7565 19.9868 13.709 19.9868L13.7107 19.9851Z" fill="#959595"/>
<path d="M123.964 148.651C128.231 148.631 131.223 144.432 129.851 140.386C121.661 116.233 99.0261 46.9 95.4039 37.8307C91.5263 28.1195 84.1902 27.2676 84.1902 27.2676L13.8198 19.5829C13.8198 19.5829 19.5288 20.1174 23.4063 29.8268C27.2804 39.5275 57.535 124.745 64.6245 144.728C65.5138 147.233 67.884 148.901 70.5377 148.889L123.964 148.649V148.651Z" fill="white"/>
<path d="M70.5096 149.295C67.7009 149.295 65.1863 147.519 64.2442 144.864C58.0492 127.399 26.9476 39.7832 23.0313 29.9767C19.3686 20.8034 14.0699 20.0203 13.7935 19.9851H13.7759C13.5557 19.9586 13.3973 19.7611 13.4184 19.5406C13.4413 19.3201 13.6403 19.1561 13.8569 19.179C13.8639 19.179 13.8745 19.1808 13.8903 19.1825L84.2361 26.8637C84.5478 26.9007 91.8574 27.8567 95.779 37.679C98.1175 43.5365 108.435 74.6685 117.535 102.135C122.568 117.327 127.323 131.675 130.233 140.254C130.929 142.305 130.608 144.494 129.351 146.259C128.094 148.025 126.132 149.042 123.966 149.051L70.5395 149.291H70.5096V149.295ZM16.7677 20.3114C18.8227 21.5619 21.5874 24.1881 23.7797 29.6786C27.7013 39.4992 58.8082 127.13 65.0032 144.596C65.8308 146.928 68.0408 148.489 70.5078 148.489H70.5343L123.961 148.249C125.865 148.24 127.588 147.346 128.694 145.795C129.798 144.245 130.08 142.323 129.469 140.518C126.558 131.936 121.804 117.588 116.769 102.395C107.672 74.9383 97.3603 43.8187 95.0288 37.9824C91.2939 28.631 84.2149 27.6785 84.1427 27.6697L16.7677 20.3114Z" fill="#959595"/>
<path d="M39.2461 56.6147C48.2145 81.5612 60.4865 116.081 67.3242 135.359C67.8753 136.906 69.351 137.922 70.9887 137.883L117.826 136.827C120.406 136.768 122.181 134.199 121.32 131.759C118.56 123.92 115.142 114.263 111.754 104.033C106.544 88.3076 100.935 71.3738 96.6683 58.7365C96.1894 57.3079 94.9162 56.3025 93.4194 56.165L43.1677 51.5386C40.3995 51.2829 38.3022 53.9938 39.2461 56.6147Z" fill="#959595"/>
<path d="M47.3798 64.6168L58.3944 92.4789C58.8346 93.7152 60.0127 94.5248 61.3211 94.4948L99.3889 95.7577C101.449 95.7118 102.867 93.6588 102.18 91.7099C99.9771 85.4468 96.6612 76.4075 93.2521 66.3118C92.87 65.1707 91.8521 64.3664 90.6565 64.257L50.5125 60.562C48.3007 60.3574 46.6261 62.5233 47.3798 64.6168Z" fill="white"/>
<path d="M99.197 48.9071C99.1847 48.9071 99.1723 48.9071 99.16 48.9071L27.8651 42.3389C27.6432 42.3177 27.4812 42.1219 27.5006 41.8997C27.5217 41.6775 27.7154 41.5134 27.9391 41.5346L99.234 48.1028C99.4558 48.124 99.6178 48.3198 99.5985 48.542C99.5791 48.7519 99.403 48.9089 99.197 48.9089V48.9071Z" fill="#959595"/>
<path d="M87.492 38.4657C87.4796 38.4657 87.4673 38.4657 87.455 38.4657L30.5663 33.2256C30.3444 33.2044 30.1824 33.0086 30.2018 32.7864C30.2229 32.5642 30.4166 32.4054 30.6402 32.4213L87.5289 37.6614C87.7508 37.6826 87.9128 37.8784 87.8935 38.1006C87.8741 38.3105 87.698 38.4675 87.492 38.4675V38.4657Z" fill="#959595"/>
<path d="M28.9077 0.40387L77.7683 5.8715C82.6179 10.0975 86.9815 21.8652 82.7729 37.3915L33.7679 33.1144C38.6175 22.2726 31.6601 6.49764 28.9077 0.40387Z" fill="white"/>
<path d="M82.7728 37.7937C82.7604 37.7937 82.7499 37.7937 82.7376 37.7937L33.7326 33.5166C33.6022 33.506 33.486 33.4319 33.4209 33.319C33.354 33.2062 33.3469 33.0686 33.3997 32.9487C38.2582 22.0839 30.945 5.89091 28.5413 0.569671C28.4815 0.437389 28.4973 0.283943 28.5818 0.165771C28.6681 0.0493634 28.809 -0.0123679 28.9534 0.00174208L77.814 5.46938C77.895 5.4782 77.9725 5.51171 78.0341 5.56638C82.5157 9.47133 87.5801 21.1985 83.1619 37.4974C83.1144 37.6738 82.9542 37.7954 82.7728 37.7954V37.7937ZM34.3577 32.7599L82.4717 36.9594C86.6081 21.3044 81.8729 10.0851 77.5992 6.25778L29.5662 0.883619C32.2076 6.75868 38.7442 22.001 34.3577 32.7599Z" fill="#959595"/>
<path d="M76.3399 11.3339C76.3276 11.3339 76.3135 11.3339 76.2994 11.3321L42.8646 8.04624C42.6427 8.02508 42.4807 7.82754 42.5036 7.60531C42.5248 7.38307 42.7202 7.22081 42.9439 7.24374L76.3787 10.5296C76.6006 10.5508 76.7626 10.7483 76.7397 10.9705C76.7185 11.1787 76.5442 11.3356 76.3382 11.3356L76.3399 11.3339Z" fill="#959595"/>
<path d="M77.6483 15.9972C77.6343 15.9972 77.6202 15.9972 77.6061 15.9954L48.7056 12.9671C48.4838 12.9441 48.3235 12.7448 48.3464 12.5244C48.3693 12.3021 48.5577 12.1364 48.7884 12.1646L77.6888 15.1929C77.9107 15.2159 78.071 15.4152 78.0481 15.6356C78.0269 15.8438 77.8509 15.9972 77.6483 15.9972Z" fill="#959595"/>
<path d="M78.9585 20.6606C78.9444 20.6606 78.9286 20.6606 78.9127 20.6588L63.5098 18.9303C63.288 18.9056 63.1295 18.7063 63.1541 18.4841C63.1788 18.2636 63.376 18.1049 63.5997 18.1278L79.0025 19.8563C79.2244 19.881 79.3829 20.0803 79.3582 20.3025C79.3354 20.5089 79.161 20.6606 78.9585 20.6606Z" fill="#959595"/>
<path d="M71.7688 78.6087L65.9736 85.5244L70.9975 89.8032L76.791 82.8929L86.182 90.895L89.2795 87.1982L79.8902 79.1925L85.6837 72.2821L80.6615 67.9997L74.8663 74.9136L65.477 66.908L62.376 70.6065L71.7688 78.6087Z" fill="#CA0000"/>
<path d="M67.097 104.451C66.5476 104.451 66.0985 104.01 66.0897 103.458C66.0809 102.901 66.5247 102.442 67.0811 102.432L103.731 101.825C104.305 101.823 104.746 102.261 104.756 102.818C104.765 103.375 104.321 103.834 103.765 103.845L67.1146 104.451H67.097Z" fill="white"/>
<path d="M69.055 111.303C68.5056 111.303 68.0565 110.862 68.0477 110.31C68.0389 109.753 68.4827 109.294 69.0391 109.284L105.689 108.677H105.707C106.256 108.677 106.706 109.118 106.714 109.67C106.723 110.228 106.279 110.686 105.723 110.697L69.0726 111.303H69.055Z" fill="white"/>
<path d="M86.3756 118.473C85.8386 118.473 85.393 118.05 85.3701 117.508C85.3455 116.951 85.7769 116.48 86.3334 116.455L107.621 115.529C108.183 115.513 108.648 115.937 108.673 116.494C108.697 117.051 108.266 117.522 107.709 117.547L86.4214 118.473C86.4073 118.473 86.3915 118.473 86.3774 118.473H86.3756Z" fill="white"/>
<path d="M209.56 155.812C204.624 151.762 196.024 151.155 195.182 156.824C195.182 156.824 196.039 162.551 202.581 165.04" fill="white"/>
<path d="M202.581 165.551C202.521 165.551 202.46 165.541 202.4 165.518C195.656 162.951 194.712 157.145 194.675 156.9C194.668 156.851 194.668 156.799 194.675 156.748C194.964 154.806 196.101 153.399 197.966 152.678C201.292 151.392 206.415 152.568 209.884 155.415C210.102 155.595 210.134 155.916 209.956 156.136C209.778 156.355 209.456 156.388 209.236 156.209C206.082 153.621 201.294 152.491 198.334 153.635C196.837 154.214 195.951 155.286 195.7 156.822C195.825 157.5 196.911 162.336 202.763 164.563C203.027 164.664 203.159 164.96 203.059 165.225C202.981 165.429 202.787 165.555 202.581 165.555V165.551Z" fill="#007C99"/>
<path d="M163.92 115.356L200.808 124.509C205.506 125.674 208.375 130.433 207.209 135.142L191.766 197.584C190.602 202.29 185.847 205.162 181.149 203.996L144.261 194.844C139.563 193.678 136.696 188.916 137.86 184.21L153.303 121.768C154.467 117.059 159.222 114.191 163.92 115.356Z" fill="#C4C4C4"/>
<path d="M183.257 204.766C182.521 204.766 181.772 204.678 181.027 204.493L144.139 195.341C139.174 194.108 136.134 189.06 137.365 184.086L152.809 121.644C154.038 116.671 159.081 113.626 164.045 114.859L200.933 124.011C203.338 124.607 205.367 126.107 206.647 128.232C207.927 130.357 208.303 132.855 207.707 135.266L192.264 197.708C191.22 201.934 187.421 204.766 183.259 204.766H183.257ZM161.814 115.609C158.109 115.609 154.731 118.129 153.8 121.889L138.357 184.332C137.826 186.475 138.161 188.697 139.3 190.589C140.438 192.482 142.245 193.815 144.384 194.346L181.272 203.498C185.69 204.595 190.176 201.886 191.269 197.461L206.712 135.019C207.242 132.874 206.908 130.652 205.769 128.761C204.631 126.87 202.824 125.537 200.685 125.006L163.797 115.854C163.133 115.69 162.467 115.611 161.812 115.611L161.814 115.609Z" fill="#007C99"/>
<path d="M147.88 172.251L145.223 182.996C144.774 184.81 145.879 186.645 147.691 187.095L154.354 188.748C156.165 189.197 157.997 188.09 158.446 186.276L161.103 175.531C161.552 173.717 160.447 171.881 158.635 171.432L151.972 169.779C150.161 169.33 148.328 170.437 147.88 172.251Z" fill="white"/>
<path d="M164.864 140.305C164.705 140.305 164.543 140.268 164.392 140.188L161.194 138.516C160.694 138.254 160.499 137.636 160.761 137.134C161.023 136.633 161.641 136.439 162.14 136.7L165.338 138.372C165.838 138.635 166.033 139.252 165.771 139.755C165.588 140.104 165.232 140.305 164.864 140.305Z" fill="#007C99"/>
<path d="M166.273 134.61C166.114 134.61 165.952 134.573 165.801 134.493L162.603 132.821C162.103 132.558 161.907 131.941 162.17 131.438C162.432 130.938 163.05 130.742 163.548 131.005L166.746 132.677C167.246 132.939 167.442 133.557 167.179 134.059C166.996 134.409 166.641 134.61 166.273 134.61Z" fill="#007C99"/>
<path d="M167.681 128.914C167.523 128.914 167.361 128.877 167.209 128.798L164.012 127.126C163.511 126.863 163.316 126.246 163.578 125.743C163.841 125.242 164.459 125.048 164.957 125.309L168.155 126.981C168.655 127.244 168.851 127.862 168.588 128.364C168.405 128.713 168.049 128.914 167.681 128.914Z" fill="#007C99"/>
<path d="M169.39 192.117C169.307 192.117 169.226 192.108 169.143 192.087L165.468 191.175C164.92 191.039 164.586 190.484 164.721 189.935C164.857 189.385 165.413 189.051 165.959 189.187L169.634 190.099C170.182 190.235 170.517 190.791 170.381 191.339C170.266 191.805 169.847 192.117 169.39 192.117Z" fill="white"/>
<path d="M171.092 185.228C171.011 185.228 170.929 185.219 170.846 185.198L167.171 184.286C166.623 184.15 166.289 183.594 166.424 183.046C166.56 182.496 167.116 182.159 167.662 182.298L171.337 183.21C171.885 183.346 172.219 183.901 172.084 184.45C171.968 184.917 171.55 185.228 171.092 185.228Z" fill="white"/>
<path d="M172.797 178.342C172.714 178.342 172.633 178.333 172.55 178.312L168.875 177.4C168.328 177.264 167.993 176.709 168.129 176.16C168.264 175.612 168.819 175.277 169.367 175.412L173.042 176.324C173.589 176.46 173.924 177.016 173.788 177.564C173.674 178.03 173.255 178.342 172.797 178.342Z" fill="white"/>
<path d="M174.5 171.455C174.419 171.455 174.336 171.446 174.253 171.425L170.578 170.513C170.031 170.377 169.696 169.821 169.832 169.273C169.967 168.724 170.524 168.387 171.07 168.525L174.745 169.437C175.292 169.573 175.627 170.128 175.491 170.677C175.375 171.144 174.958 171.455 174.5 171.455Z" fill="white"/>
<path d="M176.203 164.567C176.12 164.567 176.039 164.558 175.956 164.537L172.281 163.625C171.733 163.489 171.399 162.934 171.534 162.385C171.67 161.837 172.226 161.503 172.772 161.637L176.447 162.549C176.995 162.685 177.33 163.241 177.194 163.789C177.078 164.255 176.66 164.567 176.203 164.567Z" fill="white"/>
<path d="M177.905 157.68C177.823 157.68 177.742 157.671 177.659 157.65L173.984 156.738C173.436 156.602 173.102 156.046 173.237 155.498C173.373 154.948 173.929 154.614 174.475 154.75L178.15 155.662C178.698 155.798 179.032 156.353 178.897 156.902C178.781 157.367 178.363 157.68 177.905 157.68Z" fill="white"/>
<path d="M179.61 150.792C179.529 150.792 179.446 150.783 179.363 150.762L175.688 149.85C175.141 149.714 174.806 149.159 174.942 148.61C175.077 148.06 175.632 147.723 176.18 147.863L179.855 148.774C180.402 148.91 180.737 149.466 180.601 150.014C180.485 150.482 180.068 150.792 179.61 150.792Z" fill="white"/>
<path d="M181.313 143.905C181.23 143.905 181.149 143.896 181.066 143.875L177.391 142.963C176.844 142.827 176.509 142.271 176.645 141.723C176.78 141.174 177.335 140.839 177.883 140.975L181.558 141.887C182.105 142.023 182.44 142.578 182.304 143.127C182.188 143.592 181.771 143.905 181.313 143.905Z" fill="white"/>
<path d="M183.016 137.017C182.935 137.017 182.852 137.008 182.769 136.987L179.094 136.075C178.547 135.94 178.212 135.384 178.348 134.835C178.483 134.285 179.038 133.95 179.585 134.088L183.261 134.999C183.808 135.135 184.143 135.691 184.007 136.239C183.891 136.707 183.474 137.017 183.016 137.017Z" fill="white"/>
<path d="M184.72 130.13C184.637 130.13 184.556 130.121 184.474 130.1L180.799 129.188C180.251 129.052 179.916 128.497 180.052 127.948C180.187 127.399 180.744 127.066 181.29 127.2L184.965 128.112C185.513 128.248 185.847 128.803 185.712 129.352C185.597 129.818 185.178 130.13 184.72 130.13Z" fill="white"/>
<path d="M189.04 148.369C188.959 148.369 188.876 148.36 188.793 148.339C188.245 148.203 187.911 147.647 188.047 147.099L192.047 130.923C192.183 130.375 192.738 130.04 193.285 130.176C193.833 130.311 194.168 130.867 194.032 131.416L190.031 147.591C189.915 148.058 189.498 148.369 189.04 148.369Z" fill="white"/>
<path d="M191.119 160.119C191.038 160.119 190.956 160.11 190.873 160.089C190.325 159.953 189.991 159.397 190.126 158.849L196.744 132.089C196.879 131.541 197.434 131.206 197.982 131.341C198.529 131.477 198.864 132.033 198.728 132.581L192.111 159.341C191.994 159.808 191.577 160.119 191.119 160.119Z" fill="white"/>
<path d="M146.673 177.122L146.427 178.116L159.65 181.396L159.896 180.402L146.673 177.122Z" fill="#007C99"/>
<path d="M152.181 169.837L150.042 178.495L151.035 178.741L153.175 170.083L152.181 169.837Z" fill="#007C99"/>
<path d="M157.439 171.142L155.3 179.8L156.293 180.046L158.432 171.388L157.439 171.142Z" fill="#007C99"/>
<path d="M152.669 179.147L150.53 187.806L151.523 188.052L153.662 179.394L152.669 179.147Z" fill="#007C99"/>
<path d="M209.56 155.812C214.36 159.738 221.821 168.144 221.821 168.144L210.252 191.739C210.252 191.739 197.381 190.053 191.267 187.289C185.16 184.512 188.242 180.284 188.242 180.284C188.242 180.284 184.393 177.102 184.354 174.76C184.31 172.405 186.703 171.432 186.703 171.432C186.703 171.432 183.523 169.126 183.635 166.165C183.753 163.205 187.013 163.14 187.013 163.14C185.611 162.498 181.476 157.628 184.836 154.579C188.186 151.526 202.903 158.81 202.903 158.81" fill="white"/>
<path d="M210.252 192.251C210.231 192.251 210.208 192.251 210.185 192.246C209.657 192.177 197.168 190.517 191.058 187.755C188.844 186.748 187.509 185.43 187.092 183.836C186.699 182.34 187.235 181.026 187.58 180.39C186.573 179.501 183.878 176.927 183.841 174.769C183.808 172.957 184.993 171.872 185.794 171.347C184.82 170.47 183.033 168.53 183.123 166.147C183.202 164.165 184.535 163.218 185.754 162.84C184.665 161.816 183.384 160.006 183.1 158.165C182.861 156.616 183.341 155.246 184.491 154.201C187.997 151.006 201.59 157.591 203.127 158.353C203.381 158.479 203.485 158.785 203.36 159.039C203.234 159.292 202.93 159.397 202.675 159.272C198.668 157.29 187.715 152.648 185.178 154.962C184.282 155.775 183.922 156.801 184.109 158.009C184.445 160.181 186.437 162.318 187.222 162.678C187.439 162.777 187.559 163.013 187.511 163.248C187.462 163.481 187.259 163.652 187.022 163.655C186.909 163.659 184.241 163.756 184.144 166.19C184.044 168.835 186.971 170.999 187 171.021C187.15 171.13 187.229 171.313 187.208 171.497C187.185 171.682 187.066 171.839 186.893 171.91C186.81 171.945 184.826 172.788 184.863 174.753C184.891 176.478 187.546 179.047 188.566 179.891C188.775 180.063 188.812 180.368 188.654 180.587C188.645 180.6 187.659 181.998 188.082 183.587C188.422 184.864 189.564 185.953 191.479 186.824C196.885 189.267 207.827 190.884 209.956 191.182L221.21 168.229C219.921 166.791 213.481 159.681 209.236 156.207C209.017 156.029 208.984 155.706 209.164 155.485C209.341 155.267 209.664 155.233 209.884 155.413C214.659 159.32 222.129 167.719 222.205 167.804C222.344 167.959 222.374 168.183 222.283 168.37L210.713 191.965C210.627 192.142 210.447 192.251 210.254 192.251H210.252Z" fill="#007C99"/>
<path d="M188.591 180.34C188.591 180.34 191.162 181.469 193.865 181.854L188.591 180.34Z" fill="white"/>
<path d="M193.865 182.365C193.84 182.365 193.817 182.365 193.792 182.36C191.052 181.97 188.492 180.855 188.384 180.808C188.126 180.695 188.008 180.391 188.122 180.134C188.235 179.875 188.534 179.756 188.795 179.871C188.819 179.882 191.338 180.977 193.935 181.346C194.215 181.386 194.409 181.645 194.37 181.924C194.333 182.18 194.115 182.365 193.865 182.365Z" fill="#007C99"/>
<path d="M187.011 163.142C187.011 163.142 189.933 165.285 193.472 165.713L187.011 163.142Z" fill="white"/>
<path d="M193.472 166.225C193.451 166.225 193.432 166.225 193.41 166.221C189.779 165.782 186.833 163.646 186.71 163.555C186.483 163.387 186.434 163.068 186.599 162.84C186.765 162.613 187.085 162.562 187.314 162.729C187.342 162.75 190.176 164.8 193.534 165.205C193.814 165.239 194.013 165.495 193.979 165.775C193.947 166.034 193.727 166.225 193.472 166.225Z" fill="#007C99"/>
<path d="M186.703 171.43C186.703 171.43 188.18 173.564 192.535 173.178L186.703 171.43Z" fill="white"/>
<path d="M191.508 173.739C187.726 173.739 186.345 171.812 186.284 171.723C186.122 171.49 186.18 171.17 186.412 171.01C186.643 170.848 186.96 170.906 187.122 171.135C187.185 171.222 188.54 173.014 192.491 172.668C192.771 172.647 193.021 172.851 193.046 173.134C193.07 173.416 192.863 173.664 192.581 173.689C192.204 173.723 191.847 173.739 191.508 173.739Z" fill="#007C99"/>
<path d="M257.361 90.7698C257.361 90.7698 273.043 90.6234 282.227 101.181C291.59 111.944 316.917 204.005 289.899 216.778C264.314 228.873 204.481 196.158 204.481 196.158L220.819 161.641L265.591 185.797L257.361 90.7698Z" fill="#76D8EF"/>
<path d="M275.708 220C265.67 220 252.867 217.157 237.418 211.485C219.433 204.881 204.385 196.69 204.235 196.607C203.997 196.477 203.902 196.184 204.018 195.939L220.356 161.422C220.416 161.295 220.525 161.2 220.659 161.156C220.793 161.112 220.937 161.126 221.061 161.191L264.998 184.898L260.49 132.851C260.465 132.569 260.673 132.32 260.954 132.297C261.252 132.266 261.485 132.481 261.507 132.763L266.098 185.753C266.114 185.94 266.026 186.122 265.869 186.226C265.711 186.33 265.51 186.337 265.346 186.249L221.048 162.348L205.151 195.937C210.565 198.824 265.744 227.627 289.679 216.316C289.934 216.194 290.239 216.305 290.359 216.561C290.478 216.816 290.371 217.122 290.114 217.242C286.222 219.081 281.411 220 275.706 220H275.708Z" fill="#007C99"/>
</g>
<defs>
<clipPath id="clip0_1641_339">
<rect width="302" height="220" fill="white"/>
</clipPath>
</defs>
</svg>
