<svg width="259" height="249" viewBox="0 0 259 249" fill="none" xmlns="http://www.w3.org/2000/svg">
<g clip-path="url(#clip0_1624_277)">
<path d="M7.41821 138.979C7.41821 138.979 11.0171 128.712 16.5377 125.549C23.4187 121.606 132.274 128.964 140.746 136.057C149.218 143.153 146.439 235.387 141.58 239.561C136.72 243.736 109.496 242.066 109.496 242.066L7.41821 138.979Z" fill="black"/>
<path d="M32.2522 184.192L0.730015 110.321C-1.23302 105.712 0.895324 100.379 5.4964 98.4126L48.721 79.9078C53.3152 77.9345 58.6395 80.0803 60.606 84.6858L92.1282 158.553C94.0981 163.155 91.956 168.488 87.3618 170.462L44.1406 188.963C39.5396 190.94 34.2153 188.797 32.2522 184.189V184.192Z" fill="#007C99"/>
<path d="M45.6095 81.2428L32.0459 87.0493L70.6811 177.608L84.2447 171.801L45.6095 81.2428Z" fill="#18181C"/>
<path d="M39.4404 128.206L27.7688 100.849L23.6677 102.604L35.3394 129.962L39.4404 128.206Z" fill="white"/>
<path d="M24.0038 115.016L19.4753 104.401L15.3743 106.157L19.9027 116.771L24.0038 115.016Z" fill="white"/>
<path d="M52.0584 172.939C47.4229 174.922 42.0538 172.766 40.0735 168.123C38.0933 163.479 40.2457 158.101 44.8813 156.117C49.534 154.127 54.9031 156.283 56.8833 160.926C58.8636 165.57 56.7111 170.948 52.0584 172.939Z" fill="#EA4747"/>
<path d="M110.291 143.634C119.92 133.989 119.92 118.352 110.291 108.707C100.663 99.0624 85.0521 99.0624 75.4237 108.707C65.7953 118.352 65.7953 133.989 75.4237 143.634C85.0521 153.279 100.663 153.279 110.291 143.634Z" fill="#C4C4C4"/>
<path d="M92.8068 151.578C87.2379 151.578 81.8517 149.749 77.3711 146.286C72.0089 142.142 68.5753 136.153 67.7075 129.423C66.8396 122.692 68.6408 116.027 72.7804 110.656C76.9165 105.285 82.8952 101.845 89.6142 100.976C96.3333 100.106 102.987 101.911 108.349 106.054C113.711 110.197 117.145 116.186 118.013 122.917L116.618 123.096C115.798 116.741 112.558 111.084 107.492 107.168C102.426 103.253 96.1439 101.552 89.7968 102.37C83.4531 103.191 77.805 106.437 73.8962 111.511C69.9874 116.586 68.2861 122.882 69.1057 129.237C69.9254 135.591 73.1661 141.249 78.2321 145.164C83.2981 149.08 89.5798 150.784 95.927 149.963L96.106 151.36C95.004 151.502 93.9019 151.574 92.8068 151.574V151.578Z" fill="#959595"/>
<path d="M119.039 160.13C130.432 155.281 135.744 142.099 130.903 130.687C126.062 119.275 112.903 113.954 101.51 118.803C90.1174 123.652 84.8059 136.834 89.6465 148.247C94.4871 159.659 107.647 164.979 119.039 160.13Z" fill="#C4C4C4"/>
<path d="M110.254 162.631C98.8129 162.631 88.8461 154.099 87.3446 142.439C85.7122 129.775 94.6698 118.145 107.312 116.51C113.439 115.717 119.5 117.362 124.391 121.14C129.281 124.917 132.408 130.375 133.197 136.512L131.802 136.692C131.062 130.93 128.124 125.804 123.53 122.258C118.939 118.711 113.246 117.166 107.492 117.911C95.6203 119.446 87.2068 130.372 88.7394 142.263C90.2719 154.155 101.172 162.579 113.05 161.047L113.229 162.444C112.23 162.572 111.235 162.638 110.254 162.638V162.631Z" fill="#959595"/>
<path d="M2.01472 235.48C10.2767 240.955 122.889 254.744 133.607 244.788C141.246 237.692 134.857 146.096 132.495 144.009C130.132 141.922 11.5268 128.008 6.73633 138.027C-0.175612 152.481 -1.80459 231.861 2.01472 235.48Z" fill="#76D8EF"/>
<path d="M109.262 249C94.4426 249 76.8304 247.565 66.8258 246.62C39.0712 243.994 6.25065 239.127 1.62891 236.067L2.40379 234.89C6.3643 237.512 36.5261 242.338 66.9566 245.216C103.982 248.717 128.72 248.365 133.128 244.267C136.111 241.497 137.233 222.426 136.124 193.251C135.16 167.847 132.977 146.379 131.999 144.516C129.002 143.053 65.6066 135.136 29.5006 135.136C29.1527 135.136 28.8152 135.136 28.4708 135.136L28.4639 133.728C28.798 133.728 29.1355 133.728 29.473 133.728C65.3724 133.728 130.927 141.683 132.956 143.474C134.947 145.233 137.605 183.471 137.908 208.058C138.18 230.154 136.892 242.683 134.079 245.298C131.079 248.086 121.05 248.997 109.255 248.997L109.262 249Z" fill="#404040"/>
<path d="M146.188 176.682L146.181 180.915C146.181 180.915 106.49 176.927 101.857 183.419C97.8935 188.977 101.995 213.684 107.829 215.772C113.663 217.859 140.715 218.918 148.87 214.937C153.62 212.618 155.328 175.912 146.188 176.678V176.682Z" fill="#00A3C9"/>
<path d="M146.663 194.376C146.287 194.376 145.974 194.079 145.96 193.696L145.478 180.942C145.464 180.552 145.767 180.225 146.153 180.211C146.528 180.19 146.866 180.501 146.883 180.887L147.365 193.641C147.379 194.031 147.076 194.359 146.69 194.372C146.68 194.372 146.673 194.372 146.663 194.372V194.376Z" fill="#404040"/>
<path d="M167.387 107.825L163.661 136.648L163.593 137.164L163.081 137.077L163.079 137.077C163.079 137.077 163.077 137.077 163.076 137.076C163.073 137.076 163.068 137.074 163.062 137.073C163.049 137.071 163.03 137.068 163.006 137.064C162.956 137.056 162.883 137.043 162.787 137.027C162.594 136.994 162.31 136.945 161.943 136.882C161.209 136.757 160.143 136.575 158.818 136.349C156.169 135.896 152.482 135.266 148.334 134.558L122.509 130.163C116.197 129.087 111.134 124.363 109.631 118.141L109.621 118.103L109.618 118.064L106.029 73.2847C105.009 70.0277 103.131 65.3588 101.458 61.0403C100.619 58.876 99.8329 56.8012 99.239 55.0527C98.7247 53.5387 98.3396 52.2265 98.2019 51.3032L98.1577 50.9318L98.1586 50.9313C98.061 49.6925 98.2475 48.7489 98.625 48.038C99.0049 47.3225 99.5568 46.8826 100.115 46.6207C100.666 46.3622 101.221 46.2774 101.629 46.2542C101.667 46.2521 101.704 46.2518 101.74 46.2506C101.74 46.2387 101.739 46.2266 101.739 46.2144C101.727 45.8498 101.731 45.3475 101.788 44.8013C101.898 43.7502 102.227 42.3647 103.234 41.6042L104.397 40.7263L104.276 41.1807C104.515 41.1461 104.757 41.1445 104.992 41.1697C105.575 41.232 106.15 41.4473 106.642 41.6889C107.037 41.8831 107.394 42.1027 107.68 42.2951C107.753 41.822 107.874 41.2016 108.065 40.5748C108.264 39.9268 108.548 39.2378 108.959 38.6976C109.375 38.1515 109.96 37.7125 110.741 37.6937L111.009 37.7017C111.625 37.7509 112.184 38.0158 112.664 38.3597C113.212 38.7529 113.689 39.2714 114.076 39.7726C114.276 40.0316 114.455 40.2903 114.611 40.5315C114.856 39.4393 115.214 38.6161 115.661 38.0319C116.303 37.1943 117.126 36.8573 117.968 36.9479C118.777 37.035 119.53 37.5065 120.114 38.1291C120.628 38.6779 121.042 39.3755 121.271 40.1226L121.357 40.446L121.36 40.4589L123.648 51.8484L128.145 49.0536L128.413 48.8993L128.687 48.7747C130.073 48.2131 131.692 48.5999 132.674 49.781L132.675 49.7818L132.869 50.0375C133.768 51.3505 133.665 53.1346 132.577 54.3379L127.877 59.5491L133.509 102.242L166.966 107.267L167.449 107.339L167.387 107.825Z" fill="white" stroke="#007C99"/>
<path d="M121.323 199.15C121.323 203.18 118.058 206.45 114.028 206.45C109.999 206.45 106.741 203.18 106.741 199.15C106.741 195.121 110.006 191.851 114.028 191.851C118.051 191.851 121.323 195.114 121.323 199.15Z" fill="white"/>
<path d="M115.562 41.8751L114.177 42.126L116.037 52.4521L117.422 52.2012L115.562 41.8751Z" fill="#404040"/>
<path d="M207.055 110.563L166.875 104.953C162.164 104.115 154.649 132.307 158.768 137.682L188.83 145.485L207.055 110.563Z" fill="#007C99"/>
<path d="M108.752 43.0249L107.391 43.3848L110.19 54.006L111.551 53.6462L108.752 43.0249Z" fill="#404040"/>
<path d="M164.351 224.327C171.27 235.905 258.694 233.162 259.004 227.218C254.406 204.411 254.792 174.129 242.387 129.502C238.85 116.779 226.655 108.469 213.54 109.842L208.695 110.349C205.058 110.728 201.497 111.715 198.232 113.357C187.177 118.925 179.384 128.709 177.538 141.373L164.358 224.327H164.351Z" fill="#007C99"/>
<path d="M102.93 46.5061L101.622 47.025L105.085 55.7698L106.394 55.2509L102.93 46.5061Z" fill="#404040"/>
<path d="M165.043 224.437L163.655 224.213L177.792 136.692C177.875 136.284 179.752 127.322 184.198 123.889L185.059 125.004C181.03 128.119 179.197 136.857 179.177 136.947L165.046 224.441L165.043 224.437Z" fill="#404040"/>
<path d="M199.214 149.103L222.313 166.742L222.726 167.058L222.394 167.459L222.393 167.46C222.392 167.46 222.392 167.462 222.391 167.463C222.389 167.465 222.385 167.469 222.381 167.473C222.373 167.483 222.361 167.498 222.345 167.517C222.313 167.556 222.266 167.613 222.203 167.688C222.079 167.838 221.894 168.06 221.656 168.346C221.181 168.92 220.49 169.752 219.632 170.786C217.915 172.854 215.526 175.732 212.839 178.97L196.12 199.138C192.032 204.067 185.409 206.089 179.27 204.28L179.232 204.269L179.197 204.253L138.622 184.97C135.291 184.226 130.309 183.518 125.733 182.807C123.439 182.451 121.249 182.095 119.438 181.735C117.869 181.423 116.541 181.101 115.672 180.759L115.328 180.611V180.61C114.207 180.075 113.483 179.442 113.056 178.76C112.626 178.073 112.521 177.375 112.573 176.76C112.625 176.154 112.829 175.631 113.013 175.266C113.03 175.232 113.049 175.199 113.066 175.168C113.055 175.162 113.044 175.157 113.033 175.151C112.712 174.979 112.279 174.725 111.834 174.402C110.979 173.781 109.944 172.803 109.788 171.552L109.61 170.105L109.943 170.437C110.033 170.212 110.152 170.003 110.291 169.811C110.637 169.337 111.111 168.947 111.566 168.642C111.931 168.397 112.3 168.198 112.61 168.047C112.237 167.746 111.76 167.332 111.313 166.852C110.851 166.357 110.396 165.766 110.134 165.139C109.869 164.506 109.781 163.78 110.156 163.094L110.296 162.867C110.647 162.357 111.156 162.006 111.694 161.762C112.308 161.484 112.996 161.33 113.623 161.246C113.948 161.202 114.261 161.176 114.548 161.162C113.725 160.404 113.191 159.682 112.908 159.003C112.504 158.028 112.623 157.147 113.123 156.463C113.603 155.806 114.388 155.389 115.219 155.195C115.951 155.024 116.763 155.014 117.524 155.19L117.847 155.277L117.86 155.281L128.867 158.994L128.696 153.702V153.393L128.725 153.094C128.932 151.612 130.076 150.404 131.59 150.143H131.591L131.909 150.103C133.496 149.981 134.99 150.962 135.488 152.507L137.651 159.182L177.44 175.651L198.52 149.189L198.824 148.806L199.214 149.103Z" fill="white" stroke="#007C99"/>
<path d="M116.187 161.01L115.712 162.335L125.585 165.887L126.06 164.563L116.187 161.01Z" fill="#007C99"/>
<path d="M113.778 167.483L113.409 168.841L124.007 171.727L124.376 170.369L113.778 167.483Z" fill="#007C99"/>
<path d="M113.882 174.265L113.677 175.658L122.982 177.031L123.187 175.638L113.882 174.265Z" fill="#007C99"/>
<path d="M206.652 134.777L191.055 154.965L217.453 178.338L233.77 155.131C237.617 149.639 237.906 142.363 234.4 136.65C234.211 136.34 234.014 136.036 233.808 135.733C227.44 126.311 213.726 125.87 206.656 134.773L206.652 134.777Z" fill="#007C99"/>
<path d="M217.573 179.386L190.094 155.058L206.094 134.346L207.207 135.208L192.012 154.875L217.329 177.289L230.567 158.46L231.717 159.271L217.573 179.386Z" fill="#404040"/>
<mask id="path-29-outside-1_1624_277" maskUnits="userSpaceOnUse" x="189.199" y="43.214" width="55" height="76" fill="black">
<rect fill="white" x="189.199" y="43.214" width="55" height="76"/>
<path d="M204.269 49.6435C208.599 46.2113 213.703 44.3956 219.051 45.5722L219.05 45.5732C226.253 47.1538 232.427 49.8502 236.703 54.0195C240.88 58.0915 243.177 63.5021 242.924 70.4179L242.892 71.0918C242.472 78.136 239.595 84.4776 235.117 89.3887L229.121 111.406L228.989 111.89L228.523 112.073C222.356 114.5 215.953 117.072 211.041 117.773C208.592 118.123 206.309 118.043 204.577 117.065C202.755 116.036 201.774 114.155 201.66 111.481L201.615 110.438H201.781L203.298 98.4619C200.946 97.687 198.651 96.5118 196.494 94.8213H196.493C192.35 91.5706 190.473 86.5009 190.228 80.959C189.982 75.4156 191.357 69.2913 193.84 63.7236C196.322 58.1568 199.945 53.0705 204.269 49.6435ZM225.825 112.06C225.048 112.364 224.273 112.665 223.504 112.961C224.273 112.665 225.048 112.365 225.825 112.061L228.156 111.143L225.825 112.06ZM193.363 89.4961C193.401 89.5678 193.442 89.6379 193.481 89.709C193.433 89.6216 193.384 89.5347 193.338 89.4463L193.363 89.4961ZM192.642 87.9316C192.698 88.0735 192.757 88.2139 192.817 88.3535L192.643 87.9316C192.586 87.7897 192.531 87.647 192.478 87.5029L192.642 87.9316ZM241.94 69.7734C241.934 70.187 241.919 70.6066 241.894 71.0322L241.925 70.3945C241.933 70.186 241.937 69.979 241.94 69.7734ZM241.94 69.0713C241.938 68.8838 241.934 68.6976 241.928 68.5127C241.934 68.6976 241.938 68.8838 241.94 69.0713ZM195.716 62.1103C195.56 62.416 195.409 62.7243 195.261 63.0342C195.409 62.7246 195.561 62.4167 195.716 62.1113V62.1103ZM199.493 56.0381C199.434 56.1163 199.376 56.1955 199.317 56.2744C199.484 56.0509 199.651 55.8296 199.821 55.6113L199.493 56.0381ZM204.89 50.4267C204.861 50.4491 204.834 50.4725 204.806 50.4951C204.848 50.4615 204.89 50.4278 204.932 50.3945L204.89 50.4267ZM218.37 46.4551C218.525 46.4839 218.681 46.5156 218.836 46.5498C219.14 46.6164 219.441 46.6853 219.74 46.7558C219.66 46.7369 219.58 46.7169 219.499 46.6982L218.836 46.5488C218.525 46.4804 218.215 46.423 217.905 46.376L218.37 46.4551ZM212.002 46.7148C211.977 46.7215 211.952 46.7286 211.927 46.7353C211.969 46.724 212.011 46.7122 212.053 46.7012L212.002 46.7148ZM216.98 46.2666C217.134 46.2798 217.288 46.2951 217.442 46.3135L216.981 46.2656C216.827 46.2524 216.673 46.2424 216.52 46.2344L216.98 46.2666Z"/>
</mask>
<path d="M204.269 49.6435C208.599 46.2113 213.703 44.3956 219.051 45.5722L219.05 45.5732C226.253 47.1538 232.427 49.8502 236.703 54.0195C240.88 58.0915 243.177 63.5021 242.924 70.4179L242.892 71.0918C242.472 78.136 239.595 84.4776 235.117 89.3887L229.121 111.406L228.989 111.89L228.523 112.073C222.356 114.5 215.953 117.072 211.041 117.773C208.592 118.123 206.309 118.043 204.577 117.065C202.755 116.036 201.774 114.155 201.66 111.481L201.615 110.438H201.781L203.298 98.4619C200.946 97.687 198.651 96.5118 196.494 94.8213H196.493C192.35 91.5706 190.473 86.5009 190.228 80.959C189.982 75.4156 191.357 69.2913 193.84 63.7236C196.322 58.1568 199.945 53.0705 204.269 49.6435ZM225.825 112.06C225.048 112.364 224.273 112.665 223.504 112.961C224.273 112.665 225.048 112.365 225.825 112.061L228.156 111.143L225.825 112.06ZM193.363 89.4961C193.401 89.5678 193.442 89.6379 193.481 89.709C193.433 89.6216 193.384 89.5347 193.338 89.4463L193.363 89.4961ZM192.642 87.9316C192.698 88.0735 192.757 88.2139 192.817 88.3535L192.643 87.9316C192.586 87.7897 192.531 87.647 192.478 87.5029L192.642 87.9316ZM241.94 69.7734C241.934 70.187 241.919 70.6066 241.894 71.0322L241.925 70.3945C241.933 70.186 241.937 69.979 241.94 69.7734ZM241.94 69.0713C241.938 68.8838 241.934 68.6976 241.928 68.5127C241.934 68.6976 241.938 68.8838 241.94 69.0713ZM195.716 62.1103C195.56 62.416 195.409 62.7243 195.261 63.0342C195.409 62.7246 195.561 62.4167 195.716 62.1113V62.1103ZM199.493 56.0381C199.434 56.1163 199.376 56.1955 199.317 56.2744C199.484 56.0509 199.651 55.8296 199.821 55.6113L199.493 56.0381ZM204.89 50.4267C204.861 50.4491 204.834 50.4725 204.806 50.4951C204.848 50.4615 204.89 50.4278 204.932 50.3945L204.89 50.4267ZM218.37 46.4551C218.525 46.4839 218.681 46.5156 218.836 46.5498C219.14 46.6164 219.441 46.6853 219.74 46.7558C219.66 46.7369 219.58 46.7169 219.499 46.6982L218.836 46.5488C218.525 46.4804 218.215 46.423 217.905 46.376L218.37 46.4551ZM212.002 46.7148C211.977 46.7215 211.952 46.7286 211.927 46.7353C211.969 46.724 212.011 46.7122 212.053 46.7012L212.002 46.7148ZM216.98 46.2666C217.134 46.2798 217.288 46.2951 217.442 46.3135L216.981 46.2656C216.827 46.2524 216.673 46.2424 216.52 46.2344L216.98 46.2666Z" fill="white"/>
<path d="M204.269 49.6435L203.647 48.8599L203.647 48.8599L204.269 49.6435ZM219.051 45.5722L219.758 46.2794L221.049 44.988L219.266 44.5956L219.051 45.5722ZM219.05 45.5732L218.343 44.8661L217.051 46.1583L218.836 46.55L219.05 45.5732ZM236.703 54.0195L237.401 53.3035L237.401 53.3035L236.703 54.0195ZM242.924 70.4179L243.923 70.4657L243.923 70.4545L242.924 70.4179ZM242.892 71.0918L243.89 71.1512L243.891 71.1395L242.892 71.0918ZM235.117 89.3887L234.378 88.7149L234.216 88.8931L234.152 89.1259L235.117 89.3887ZM229.121 111.406L230.086 111.669L230.086 111.669L229.121 111.406ZM228.989 111.89L229.355 112.82L229.822 112.637L229.954 112.153L228.989 111.89ZM228.523 112.073L228.157 111.143L228.156 111.143L228.523 112.073ZM211.041 117.773L211.182 118.763H211.182L211.041 117.773ZM204.577 117.065L204.085 117.936L204.086 117.936L204.577 117.065ZM201.66 111.481L202.659 111.439L202.659 111.438L201.66 111.481ZM201.615 110.438V109.438H200.571L200.616 110.481L201.615 110.438ZM201.781 110.438V111.438H202.663L202.773 110.564L201.781 110.438ZM203.298 98.4619L204.29 98.5875L204.394 97.77L203.611 97.5121L203.298 98.4619ZM196.494 94.8213L197.111 94.0343L196.839 93.8213H196.494V94.8213ZM196.493 94.8213L195.876 95.608L196.148 95.8213H196.493V94.8213ZM190.228 80.959L189.229 81.0032L189.229 81.0032L190.228 80.959ZM193.84 63.7236L192.927 63.3164L192.927 63.3164L193.84 63.7236ZM225.825 112.06L226.19 112.991L226.191 112.99L225.825 112.06ZM225.825 112.061L226.19 112.992L226.192 112.991L225.825 112.061ZM228.156 111.143L228.523 112.073L227.79 110.212L228.156 111.143ZM193.363 89.4961L192.472 89.9503L192.478 89.962L193.363 89.4961ZM193.481 89.709L192.603 90.1886L194.358 89.2293L193.481 89.709ZM193.338 89.4463L194.224 88.9835L192.447 89.9005L193.338 89.4463ZM192.642 87.9316L191.708 88.2891L191.713 88.3021L192.642 87.9316ZM192.817 88.3535L191.899 88.7488L193.741 87.9707L192.817 88.3535ZM192.643 87.9316L191.714 88.3021L191.719 88.3144L192.643 87.9316ZM192.478 87.5029L193.412 87.1455L191.539 87.8488L192.478 87.5029ZM241.94 69.7734L242.939 69.7872L240.94 69.7593L241.94 69.7734ZM241.894 71.0322L240.895 70.9833L242.892 71.0917L241.894 71.0322ZM241.925 70.3945L242.924 70.4435L242.924 70.4315L241.925 70.3945ZM241.94 69.0713L240.941 69.0842L242.94 69.0587L241.94 69.0713ZM195.716 62.1103H196.716L194.825 61.6569L195.716 62.1103ZM195.261 63.0342L194.359 62.602L196.163 63.4663L195.261 63.0342ZM195.716 62.1113L196.607 62.5647L196.716 62.351V62.1113H195.716ZM199.493 56.0381L198.7 55.4285L198.695 55.4351L199.493 56.0381ZM199.317 56.2744L198.515 55.6779L200.12 56.8712L199.317 56.2744ZM199.821 55.6113L200.614 56.2208L199.033 54.9966L199.821 55.6113ZM204.89 50.4267L204.281 49.6334L204.275 49.6382L204.269 49.6431L204.89 50.4267ZM204.806 50.4951L204.181 49.7142L205.43 51.2761L204.806 50.4951ZM204.932 50.3945L205.551 51.1794L204.323 49.6012L204.932 50.3945ZM218.37 46.4551L218.553 45.4719L218.545 45.4705L218.538 45.4692L218.37 46.4551ZM218.836 46.5498L218.621 47.5264L218.622 47.5265L218.836 46.5498ZM219.74 46.7558L219.511 47.7292L219.97 45.7825L219.74 46.7558ZM219.499 46.6982L219.724 45.7239L219.719 45.7227L219.499 46.6982ZM218.836 46.5488L219.056 45.5733L219.051 45.5722L218.836 46.5488ZM217.905 46.376L218.056 45.3873L217.738 47.3618L217.905 46.376ZM212.002 46.7148L212.258 47.6815L212.262 47.6804L212.002 46.7148ZM211.927 46.7353L211.666 45.77L212.188 47.7007L211.927 46.7353ZM212.053 46.7012L212.313 47.6668L211.8 45.7337L212.053 46.7012ZM216.98 46.2666L217.065 45.2702L217.057 45.2696L217.049 45.269L216.98 46.2666ZM217.442 46.3135L217.339 47.3081L217.56 45.3204L217.442 46.3135ZM216.981 46.2656L217.084 45.2709L217.075 45.27L217.066 45.2692L216.981 46.2656ZM216.52 46.2344L216.572 45.2357L216.45 47.2319L216.52 46.2344ZM204.269 49.6435L204.89 50.4272C209.059 47.1222 213.864 45.4549 218.836 46.5489L219.051 45.5722L219.266 44.5956C213.542 43.3363 208.138 45.3004 203.647 48.8599L204.269 49.6435ZM219.051 45.5722L218.344 44.8651L218.343 44.8661L219.05 45.5732L219.757 46.2803L219.758 46.2794L219.051 45.5722ZM219.05 45.5732L218.836 46.55C225.941 48.1091 231.913 50.7462 236.005 54.7355L236.703 54.0195L237.401 53.3035C232.94 48.9542 226.565 46.1985 219.264 44.5965L219.05 45.5732ZM236.703 54.0195L236.005 54.7355C239.971 58.6019 242.167 63.7353 241.925 70.3814L242.924 70.4179L243.923 70.4545C244.186 63.2689 241.789 57.5811 237.401 53.3035L236.703 54.0195ZM242.924 70.4179L241.925 70.3702L241.893 71.044L242.892 71.0918L243.891 71.1395L243.923 70.4657L242.924 70.4179ZM242.892 71.0918L241.893 71.0323C241.488 77.8361 238.71 83.9637 234.378 88.7149L235.117 89.3887L235.856 90.0624C240.48 84.9914 243.456 78.4359 243.89 71.1512L242.892 71.0918ZM235.117 89.3887L234.152 89.1259L228.156 111.143L229.121 111.406L230.086 111.669L236.082 89.6514L235.117 89.3887ZM229.121 111.406L228.156 111.143L228.025 111.627L228.989 111.89L229.954 112.153L230.086 111.669L229.121 111.406ZM228.989 111.89L228.623 110.959L228.157 111.143L228.523 112.073L228.889 113.004L229.355 112.82L228.989 111.89ZM228.523 112.073L228.156 111.143C221.938 113.59 215.667 116.102 210.9 116.783L211.041 117.773L211.182 118.763C216.239 118.041 222.773 115.41 228.889 113.004L228.523 112.073ZM211.041 117.773L210.9 116.783C208.516 117.124 206.507 117.006 205.069 116.195L204.577 117.065L204.086 117.936C206.11 119.079 208.668 119.123 211.182 118.763L211.041 117.773ZM204.577 117.065L205.069 116.195C203.632 115.383 202.763 113.878 202.659 111.439L201.66 111.481L200.661 111.524C200.785 114.432 201.877 116.689 204.085 117.936L204.577 117.065ZM201.66 111.481L202.659 111.438L202.614 110.395L201.615 110.438L200.616 110.481L200.661 111.524L201.66 111.481ZM201.615 110.438V111.438H201.781V110.438V109.438H201.615V110.438ZM201.781 110.438L202.773 110.564L204.29 98.5875L203.298 98.4619L202.306 98.3363L200.789 110.313L201.781 110.438ZM203.298 98.4619L203.611 97.5121C201.362 96.7714 199.171 95.6494 197.111 94.0343L196.494 94.8213L195.877 95.6082C198.13 97.3742 200.529 98.6026 202.985 99.4117L203.298 98.4619ZM196.494 94.8213V93.8213H196.493V94.8213V95.8213H196.494V94.8213ZM196.493 94.8213L197.11 94.0345C193.27 91.0214 191.464 86.2735 191.227 80.9147L190.228 80.959L189.229 81.0032C189.482 86.7282 191.43 92.1198 195.876 95.608L196.493 94.8213ZM190.228 80.959L191.227 80.9147C190.989 75.5562 192.32 69.5866 194.753 64.1309L193.84 63.7236L192.927 63.3164C190.394 68.996 188.975 75.2751 189.229 81.0032L190.228 80.959ZM193.84 63.7236L194.753 64.1309C197.186 58.675 200.72 53.732 204.89 50.4272L204.269 49.6435L203.647 48.8599C199.17 52.409 195.458 57.6386 192.927 63.3164L193.84 63.7236ZM225.825 112.06L225.46 111.129C224.685 111.432 223.912 111.733 223.145 112.027L223.504 112.961L223.862 113.894C224.634 113.598 225.412 113.296 226.19 112.991L225.825 112.06ZM223.504 112.961L223.862 113.894C224.634 113.598 225.411 113.297 226.19 112.992L225.825 112.061L225.46 111.13C224.686 111.433 223.913 111.733 223.145 112.027L223.504 112.961ZM225.825 112.061L226.192 112.991L228.523 112.073L228.156 111.143L227.79 110.212L225.459 111.13L225.825 112.061ZM228.156 111.143L227.79 110.212L225.459 111.129L225.825 112.06L226.191 112.99L228.522 112.073L228.156 111.143ZM193.363 89.4961L192.478 89.962C192.518 90.0376 192.583 90.1515 192.603 90.1886L193.481 89.709L194.358 89.2293C194.301 89.1244 194.284 89.098 194.248 89.0302L193.363 89.4961ZM193.481 89.709L194.358 89.2293C194.304 89.1301 194.265 89.0606 194.224 88.9835L193.338 89.4463L192.451 89.909C192.504 90.0088 192.562 90.1131 192.603 90.1886L193.481 89.709ZM193.338 89.4463L192.447 89.9005L192.472 89.9503L193.363 89.4961L194.254 89.0419L194.229 88.9921L193.338 89.4463ZM192.642 87.9316L191.713 88.3021C191.774 88.4553 191.837 88.6047 191.899 88.7488L192.817 88.3535L193.736 87.9582C193.678 87.8231 193.623 87.6916 193.571 87.5612L192.642 87.9316ZM192.817 88.3535L193.741 87.9707L193.566 87.5488L192.643 87.9316L191.719 88.3144L191.894 88.7363L192.817 88.3535ZM192.643 87.9316L193.571 87.5612C193.517 87.4252 193.465 87.2908 193.416 87.157L192.478 87.5029L191.539 87.8488C191.596 88.0031 191.655 88.1543 191.714 88.3021L192.643 87.9316ZM192.478 87.5029L191.544 87.8603L191.708 88.289L192.642 87.9316L193.576 87.5742L193.412 87.1455L192.478 87.5029ZM241.94 69.7734L240.94 69.7593C240.934 70.1587 240.92 70.5631 240.895 70.9727L241.894 71.0322L242.892 71.0917C242.918 70.65 242.933 70.2153 242.939 69.7875L241.94 69.7734ZM241.894 71.0322L242.892 71.0812L242.924 70.4435L241.925 70.3945L240.926 70.3456L240.895 70.9833L241.894 71.0322ZM241.925 70.3945L242.924 70.4315C242.932 70.212 242.937 69.9964 242.939 69.7872L241.94 69.7734L240.94 69.7597C240.937 69.9616 240.933 70.16 240.926 70.3575L241.925 70.3945ZM241.94 69.0713L242.94 69.0584C242.938 68.8656 242.934 68.6721 242.927 68.4783L241.928 68.5127L240.928 68.547C240.934 68.7232 240.938 68.902 240.941 69.0842L241.94 69.0713ZM241.928 68.5127L240.928 68.547C240.934 68.7234 240.938 68.9022 240.941 69.0838L241.94 69.0713L242.94 69.0587C242.938 68.8654 242.934 68.6718 242.927 68.4783L241.928 68.5127ZM195.716 62.1103L194.825 61.6569C194.665 61.9714 194.51 62.287 194.359 62.602L195.261 63.0342L196.163 63.4663C196.309 63.1617 196.456 62.8607 196.607 62.5637L195.716 62.1103ZM195.261 63.0342L196.163 63.4663C196.308 63.1628 196.456 62.8621 196.607 62.5647L195.716 62.1113L194.825 61.6579C194.665 61.9714 194.51 62.2864 194.359 62.602L195.261 63.0342ZM195.716 62.1113H196.716V62.1103H195.716H194.716V62.1113H195.716ZM199.493 56.0381L198.695 55.4351C198.633 55.5173 198.568 55.6068 198.515 55.6779L199.317 56.2744L200.12 56.8709C200.184 56.7843 200.235 56.7153 200.291 56.641L199.493 56.0381ZM199.317 56.2744L200.12 56.8712C200.283 56.6522 200.446 56.437 200.61 56.226L199.821 55.6113L199.033 54.9966C198.857 55.2222 198.685 55.4497 198.515 55.6776L199.317 56.2744ZM199.821 55.6113L199.029 55.0018L198.7 55.4285L199.493 56.0381L200.286 56.6476L200.614 56.2208L199.821 55.6113ZM204.89 50.4267L204.269 49.6431C204.246 49.6607 204.226 49.6775 204.212 49.6887C204.197 49.7016 204.189 49.7082 204.181 49.7141L204.806 50.4951L205.43 51.2761C205.451 51.2595 205.471 51.243 205.483 51.233C205.497 51.2212 205.505 51.2152 205.511 51.2104L204.89 50.4267ZM204.806 50.4951L205.43 51.276C205.476 51.2393 205.513 51.21 205.551 51.1794L204.932 50.3945L204.312 49.6096C204.267 49.6455 204.219 49.6837 204.181 49.7142L204.806 50.4951ZM204.932 50.3945L204.323 49.6012L204.281 49.6334L204.89 50.4267L205.499 51.22L205.541 51.1878L204.932 50.3945ZM218.37 46.4551L218.187 47.4382C218.331 47.4649 218.476 47.4944 218.621 47.5264L218.836 46.5498L219.051 45.5731C218.886 45.5368 218.72 45.5029 218.553 45.4719L218.37 46.4551ZM218.836 46.5498L218.622 47.5265C218.92 47.5919 219.216 47.6597 219.511 47.7292L219.74 46.7558L219.97 45.7825C219.666 45.7109 219.36 45.6409 219.05 45.573L218.836 46.5498ZM219.74 46.7558L219.97 45.7825C219.916 45.7697 219.799 45.7411 219.724 45.7239L219.499 46.6982L219.274 47.6725C219.361 47.6927 219.404 47.704 219.511 47.7292L219.74 46.7558ZM219.499 46.6982L219.719 45.7227L219.056 45.5733L218.836 46.5488L218.616 47.5243L219.279 47.6738L219.499 46.6982ZM218.836 46.5488L219.051 45.5722C218.718 45.499 218.386 45.4376 218.056 45.3873L217.905 46.376L217.755 47.3646C218.043 47.4085 218.332 47.4618 218.621 47.5254L218.836 46.5488ZM217.905 46.376L217.738 47.3618L218.202 47.4409L218.37 46.4551L218.538 45.4692L218.073 45.3901L217.905 46.376ZM212.002 46.7148L211.746 45.7481C211.724 45.7541 211.67 45.7689 211.666 45.77L211.927 46.7353L212.188 47.7007C212.234 47.6882 212.23 47.6888 212.258 47.6815L212.002 46.7148ZM211.927 46.7353L212.188 47.7006C212.245 47.6851 212.267 47.6786 212.306 47.6686L212.053 46.7012L211.8 45.7337C211.754 45.7457 211.692 45.7628 211.666 45.77L211.927 46.7353ZM212.053 46.7012L211.793 45.7355L211.742 45.7492L212.002 46.7148L212.262 47.6804L212.313 47.6668L212.053 46.7012ZM216.98 46.2666L216.894 47.2629C217.039 47.2753 217.183 47.2896 217.325 47.3065L217.442 46.3135L217.56 45.3204C217.393 45.3006 217.228 45.2842 217.065 45.2702L216.98 46.2666ZM217.442 46.3135L217.545 45.3188L217.084 45.2709L216.981 46.2656L216.877 47.2603L217.339 47.3081L217.442 46.3135ZM216.981 46.2656L217.066 45.2692C216.899 45.2549 216.734 45.2442 216.572 45.2357L216.52 46.2344L216.467 47.233C216.612 47.2406 216.755 47.2499 216.895 47.262L216.981 46.2656ZM216.52 46.2344L216.45 47.2319L216.91 47.2641L216.98 46.2666L217.049 45.269L216.589 45.2368L216.52 46.2344Z" fill="#404040" mask="url(#path-29-outside-1_1624_277)"/>
<path d="M210.234 100.469C204.858 100.469 200.192 98.9369 196.3 95.8838L197.168 94.773C202.675 99.0922 209.893 100.151 218.62 97.9158L218.968 99.2819C215.879 100.072 212.965 100.469 210.234 100.469Z" fill="#404040"/>
<path d="M237.444 89.6984C241.551 89.6984 244.88 86.3637 244.88 82.2503C244.88 78.1368 241.551 74.8021 237.444 74.8021C233.338 74.8021 230.009 78.1368 230.009 82.2503C230.009 86.3637 233.338 89.6984 237.444 89.6984Z" fill="white"/>
<path d="M238.853 87.2076L238.323 85.9036C239.842 85.2861 240.758 84.4478 241.047 83.4094C241.515 81.7259 240.217 79.9251 240.203 79.9078L241.329 79.0626C241.402 79.1592 243.062 81.4154 242.4 83.7854C241.991 85.2654 240.795 86.4176 238.85 87.2076H238.853Z" fill="#404040"/>
<path d="M199.94 83.3404C199.833 83.3404 199.723 83.3162 199.62 83.2645C198.57 82.7298 197.795 81.7673 197.492 80.6254C197.189 79.4835 197.385 78.2623 198.032 77.2756L203.357 69.141C203.57 68.8167 204.004 68.7236 204.331 68.9375C204.655 69.1513 204.745 69.586 204.534 69.9137L199.21 78.0484C198.783 78.7004 198.652 79.5077 198.852 80.2632C199.052 81.0187 199.565 81.6534 200.261 82.0088C200.608 82.1847 200.743 82.609 200.567 82.9575C200.443 83.2024 200.195 83.3438 199.94 83.3438V83.3404Z" fill="#404040"/>
<path d="M214.295 85.8139C214.883 87.3663 213.664 89.2672 211.574 90.0641C209.483 90.861 207.31 90.2469 206.721 88.6945C206.132 87.1421 208.364 87.4112 210.458 86.6177C212.552 85.8242 213.709 84.2649 214.298 85.8139H214.295Z" stroke="#404040" stroke-width="2" stroke-miterlimit="10"/>
<path d="M237.293 98.9335C235.068 98.9335 232.936 98.3298 231.187 97.1534C228.018 95.0214 226.452 91.0024 227.457 87.6009C228.235 84.9721 230.295 83.0713 232.003 81.7086C232.868 81.0187 233.725 80.2218 234.631 79.3766C235.478 78.5866 236.342 77.7793 237.238 77.0479C233.811 76.772 230.415 74.6469 228.428 71.342C226.338 67.8646 226.19 64.0801 226.321 60.8339C226.359 59.8507 225.935 59.6506 224.588 59.1711C224.364 59.0917 224.13 59.0089 223.893 58.9158C222.308 58.2983 220.642 57.8118 218.94 57.4738C212.183 56.1318 205.203 57.0874 199.272 60.1715C198.962 60.3336 198.58 60.2405 198.377 59.9542C196.29 57.0287 194.265 53.8963 193.6 50.8122C192.839 47.2899 193.345 43.7435 194.984 41.0768C196.879 38.0031 200.347 36.1678 203.632 36.5093C205.519 36.7059 207.451 37.6029 209.225 39.107C210.551 40.2282 211.66 41.5564 212.714 42.8776C216.543 38.7448 222.195 36.323 227.943 36.392C234.128 36.4541 240.065 39.7935 243.072 44.8992C246.041 49.9428 245.93 56.5182 242.896 61.2582C248.472 62.9003 253.118 68.0681 254.385 74.1812C255.611 80.1079 253.875 86.7764 249.739 92.0201C247.349 95.049 244.494 97.1948 241.477 98.2263C240.096 98.6989 238.681 98.93 237.3 98.93L237.293 98.9335Z" fill="#404040"/>
<path d="M217.484 46.2033C217.349 46.2033 217.215 46.1653 217.094 46.086C216.771 45.8686 216.685 45.4339 216.898 45.1097C218.71 42.3878 221.561 40.5283 224.526 40.1316C227.788 39.6969 231.152 41.1251 232.892 43.6814C233.112 44.0023 233.026 44.4404 232.706 44.6612C232.382 44.882 231.945 44.7957 231.728 44.4749C230.281 42.3464 227.464 41.1665 224.709 41.5288C222.14 41.8703 219.657 43.5021 218.066 45.8893C217.931 46.0929 217.707 46.2033 217.48 46.2033H217.484Z" fill="white"/>
<path d="M202.833 55.4418C202.506 55.4418 202.175 55.4108 201.841 55.3245C200.757 55.0485 199.94 54.1757 199.858 53.2064C199.754 51.9955 200.657 51.1537 201.383 50.481L201.535 50.3396C201.803 50.0877 202.1 49.7807 202.241 49.4323C202.351 49.1632 202.348 48.8665 202.231 48.6975C202.117 48.5319 201.865 48.4008 201.494 48.3145C201.221 48.2524 200.936 48.2145 200.633 48.1765C200.199 48.1213 199.747 48.0661 199.296 47.9247C198.211 47.5866 197.454 46.769 197.364 45.8479C197.233 44.4714 198.477 43.5297 199.586 43.1433C199.792 43.0708 200.009 43.0053 200.223 42.9397C200.87 42.7431 201.483 42.5568 201.845 42.1532C202.107 41.8634 202.551 41.8427 202.837 42.1014C203.126 42.3602 203.147 42.8086 202.888 43.095C202.262 43.7884 201.394 44.054 200.629 44.2852C200.433 44.3438 200.236 44.4025 200.047 44.4714C199.372 44.706 198.714 45.2097 198.762 45.7134C198.8 46.117 199.283 46.4447 199.713 46.5793C200.047 46.6828 200.416 46.7311 200.808 46.7794C201.132 46.8208 201.469 46.8622 201.81 46.9415C202.54 47.1106 203.074 47.4348 203.391 47.904C203.78 48.4767 203.835 49.246 203.539 49.967C203.295 50.5673 202.854 51.0295 202.496 51.3676L202.341 51.5125C201.786 52.0265 201.215 52.5612 201.259 53.0891C201.294 53.5099 201.766 53.8549 202.189 53.9619C202.778 54.1102 203.457 53.9998 204.111 53.8929C204.493 53.8308 204.855 54.0895 204.92 54.4724C204.982 54.8554 204.724 55.2176 204.342 55.2831C203.873 55.359 203.364 55.4453 202.837 55.4453L202.833 55.4418Z" fill="white"/>
<path d="M237.469 70.8659C237.31 70.8659 237.152 70.8142 237.021 70.7038C233.794 68.0233 232.289 63.4799 233.277 59.3987C233.37 59.0193 233.749 58.7881 234.125 58.8813C234.503 58.9744 234.734 59.3539 234.641 59.7299C233.777 63.3005 235.092 67.2747 237.916 69.6171C238.216 69.8655 238.257 70.3105 238.009 70.6106C237.872 70.7797 237.668 70.8659 237.469 70.8659Z" fill="white"/>
<path d="M117.664 42.354L116.318 42.7561L119.012 51.8113L120.359 51.4092L117.664 42.354Z" fill="#007C99"/>
<path d="M110.532 44.3032L109.205 44.7766L112.492 54.0226L113.819 53.5492L110.532 44.3032Z" fill="#404040"/>
<path d="M105.79 47.8921L104.464 48.3599L106.972 55.4888L108.297 55.021L105.79 47.8921Z" fill="#404040"/>
<path d="M116.635 65.3839C126.446 55.5562 126.446 39.6224 116.635 29.7947C106.824 19.9669 90.9175 19.9669 81.1066 29.7946C71.2956 39.6224 71.2956 55.5562 81.1066 65.3839C90.9175 75.2117 106.824 75.2116 116.635 65.3839Z" fill="#0ABE00"/>
<path d="M95.4878 63L82 53.0684L84.5196 49.525L94.5227 56.8906L116.515 26L120 28.5659L95.4878 63Z" fill="white"/>
</g>
<defs>
<clipPath id="clip0_1624_277">
<rect width="259" height="249" fill="white"/>
</clipPath>
</defs>
</svg>
