<svg width="262" height="249" viewBox="0 0 262 249" fill="none" xmlns="http://www.w3.org/2000/svg">
<g clip-path="url(#clip0_1619_223)">
<path d="M85.1425 162.869L71.2324 175.228L68.4644 175.029L61.1372 181.869L72.496 194.859L79.7489 188.73L80.2352 186.008L95.1696 173.417L85.1425 162.869Z" fill="#404040"/>
<path d="M19.2659 209.935C18.3799 210.735 7.39118 220.303 7.18276 220.484C5.66669 221.81 4.15131 222.909 2.53207 224.069C-5.5504 229.88 7.29213 251.438 18.913 248.773C21.4045 248.192 23.5011 246.535 25.4739 244.919C40.6504 232.401 54.914 218.889 69.6331 205.853C69.9034 205.583 73.287 206.951 74.4709 206.184C75.8411 205.314 76.5262 203.657 76.5888 202.04C76.7608 197.584 71.74 187.88 64.9831 181.585C61.6614 178.497 54.7895 174.953 50.9691 179.118C49.8892 180.279 49.3705 181.936 49.5782 183.491C48.748 184.216 47.9377 184.921 47.1074 185.646L19.2659 209.935Z" fill="#959595"/>
<path d="M66.5389 202.66C65.6502 194.699 58.6456 189.488 52.5552 185.09C51.9987 184.689 52.6096 183.848 53.1633 184.25C59.6506 188.933 66.6394 194.215 67.5687 202.545C67.6464 203.227 66.6125 203.348 66.5389 202.66Z" fill="#C4C4C4"/>
<path d="M15.8925 242.969C13.8633 236.958 9.7897 231.78 4.42707 228.382C3.84307 228.015 4.41056 227.141 4.98287 227.508C10.5464 231.031 14.7699 236.404 16.8782 242.636C17.0969 243.286 16.1126 243.617 15.8932 242.968L15.8925 242.969Z" fill="#C4C4C4"/>
<path d="M175.87 227.551C174.813 228.918 170.696 231.543 169.226 232.463C166.036 234.476 163.865 235.205 161.336 232.422C161.55 232.284 175.275 223.424 175.557 223.24C175.952 223.779 176.346 224.318 176.513 224.939C176.741 225.852 176.409 226.805 175.87 227.551Z" fill="#959595"/>
<path d="M195.552 218.847C194.55 220.232 190.365 222.879 188.908 223.779C187.517 224.649 185.649 225.811 183.842 225.5C181.786 225.168 180.001 222.723 179.17 220.92L193.018 211.987C193.831 212.756 195.951 215.165 196.216 216.257C196.423 217.148 196.112 218.101 195.551 218.847L195.552 218.847Z" fill="#959595"/>
<path d="M133.144 226.951C124.014 214.855 114.44 201.364 103.875 185.708C101.6 182.347 96.2433 176.192 97.963 173.505C98.7251 172.319 100.631 172.05 103.784 172.683C104.461 172.819 104.25 173.836 103.581 173.699C95.8595 172.152 98.2897 176.272 103.22 183.013C106.627 187.659 117.423 204.401 133.971 226.328C139.276 233.345 144.971 239.422 153.208 236.432C156.618 235.179 150.533 238.77 255.499 171.055C261.728 167.028 262.599 158.136 258.272 151.483L201.76 64.1703C199.045 59.9928 193.882 58.5035 190.248 60.8429C185.891 63.6492 177.616 66.165 178.541 71.8676C178.647 72.5316 177.631 72.7321 177.516 72.0338C176.453 65.4839 185.444 62.7078 189.685 59.9722C193.798 57.321 199.607 58.9511 202.633 63.6059L259.145 150.919C263.863 158.175 262.666 167.655 256.063 171.925L162.449 232.317C160.62 233.441 157.145 236.09 153.563 237.405C144.797 240.582 138.783 234.411 133.144 226.95V226.951Z" fill="#C4C4C4"/>
<path d="M205.987 89.4979C206.236 88.6081 206.911 87.8218 207.794 87.5458C210.569 86.6765 213.443 90.8987 211.728 93.2717C209.318 96.6047 205.1 92.6682 205.987 89.4979Z" fill="#959595"/>
<path d="M198.266 78.4484C198.515 77.5585 199.19 76.7723 200.073 76.4963C202.848 75.627 205.723 79.8492 204.007 82.2222C201.598 85.5552 197.38 81.6194 198.266 78.4491V78.4484Z" fill="#959595"/>
<path d="M190.708 68.4674C190.957 67.5775 191.632 66.7913 192.515 66.5152C195.29 65.6459 198.164 69.8681 196.449 72.2412C194.039 75.5741 189.821 71.6383 190.708 68.468V68.4674Z" fill="#959595"/>
<path d="M193.829 146.394C193.672 156.814 190.019 164.356 177.115 171.325C167.005 176.755 156.562 177.605 145.495 179.284C133.952 181.066 121.723 181.709 110.678 177.211C108.27 176.216 105.986 175.015 103.744 173.709C104.657 173.419 104.657 172.776 104.512 171.864C104.326 170.561 104.736 158.99 104.762 158.228C104.948 153.772 105.447 152.135 109.474 149.855C111.671 148.566 114.058 145.685 114.001 143.907C113.944 142.876 112.841 141.731 111.925 141.648C111.654 141.524 111.343 141.42 111.032 141.379C112.215 140.529 113.357 139.368 113.523 137.938C113.71 136.197 112.361 134.581 110.72 133.938C109.101 133.316 107.253 133.441 105.551 133.731C105.385 133.772 105.24 133.814 105.073 133.835C106.957 132.753 109.573 131.002 109.828 128.861C110.053 126.998 108.43 124.642 104.907 124.447C105.862 123.639 106.693 122.665 106.797 121.463C107.004 119.743 105.634 118.105 104.014 117.463C102.374 116.82 100.568 116.986 98.8234 117.256C95.404 117.809 91.92 118.91 89.0447 120.84C90.3159 118.311 94.9796 113.359 96.4565 111.722C103.694 103.722 115.112 102.575 125.19 101.649C133.683 100.815 144 102.066 152.803 102.043C162.042 102.043 171.841 103.473 179.046 109.255C188.842 117.054 193.982 134.737 193.828 146.393L193.829 146.394Z" fill="#C4C4C4"/>
<path d="M148.652 123.183C148.028 124.322 146.804 125.006 145.641 125.628C134.5 131.508 121.956 137.617 112.589 141.876C112.382 141.752 112.153 141.668 111.925 141.648C111.654 141.524 111.344 141.42 111.032 141.379C112.215 140.529 113.357 139.368 113.523 137.938C113.71 136.197 112.361 134.581 110.72 133.938C109.101 133.316 107.253 133.441 105.551 133.731C105.385 133.772 105.24 133.814 105.074 133.835C106.957 132.753 109.574 131.002 109.828 128.861C110.053 126.998 108.43 124.642 104.907 124.447C105.863 123.639 106.693 122.665 106.797 121.463C107.004 119.743 105.634 118.105 104.014 117.463C101.059 116.305 95.3829 117.799 92.533 118.996C92.4876 116.9 92.4732 111.995 92.5537 107.825C92.6369 102.002 90.5396 87.8259 98.9275 86.4993C102.041 86.0228 105.135 87.2663 108.02 88.5517C121.947 94.7514 134.932 105.102 145.08 116.55C146.534 118.167 150.062 120.634 148.651 123.183H148.652Z" fill="#959595"/>
<path d="M114.979 120.423C115.063 120.151 115.334 121.675 111.907 104.099C111.503 102.039 109.284 100.902 107.368 101.771C106.911 101.976 106.453 102.186 105.996 102.392C104.348 103.135 103.569 105.094 104.377 106.706C106.375 110.696 108.92 114.538 110.966 118.588C111.516 119.685 111.909 121.446 113.478 121.305C113.853 121.273 114.811 120.921 114.979 120.423Z" fill="white"/>
<path d="M118.557 128.372C118.178 130.032 116.639 131.1 115.125 130.753C113.61 130.41 112.693 128.78 113.072 127.121C113.451 125.461 114.986 124.392 116.504 124.74C118.018 125.087 118.936 126.713 118.557 128.372Z" fill="white"/>
<path d="M87.6793 165.064C84.3362 162.577 81.0173 159.799 80.3377 155.635C79.6271 151.273 81.1067 145.882 81.5524 141.65C82.3834 133.919 79.504 119.915 98.7375 116.749C100.542 116.455 102.45 116.282 104.205 116.988C105.89 117.643 107.557 119.458 107.312 121.524C107.235 122.396 106.825 123.235 106.067 124.061C110.316 124.866 112.544 129.518 107.31 133.002C108.48 132.932 109.73 133.006 110.9 133.459C112.624 134.124 114.254 135.896 114.037 137.994C113.909 139.1 113.275 140.159 112.15 141.153C113.318 141.384 114.484 142.705 114.518 143.893C114.54 144.691 114.208 145.42 113.916 145.966C112.951 147.758 111.505 149.257 109.731 150.302C105.931 152.463 105.471 153.824 105.291 158.258L105.218 159.936C104.914 166.861 105.073 167.666 105.07 168.233C105.131 170.022 105.19 171.713 102.314 171.893C97.0103 172.23 91.8822 168.21 87.68 165.065L87.6793 165.064ZM101.389 117.53C100.564 117.53 99.7246 117.637 98.9053 117.771C80.7029 120.768 83.4537 133.59 82.5863 141.759C82.1213 146.086 80.6885 151.348 81.364 155.469C82.0608 159.759 85.8826 162.312 88.9911 164.75C92.8025 167.602 97.5633 171.139 102.249 170.858C104.117 170.741 104.096 170.118 104.031 168.269C104.035 167.728 103.876 166.764 104.181 159.89L104.252 158.215C104.434 153.764 104.909 151.851 109.21 149.404C111.411 148.108 113.522 145.377 113.479 143.923C113.459 143.201 112.569 142.227 111.87 142.157C111.813 142.152 111.76 142.137 111.709 142.115C111.062 141.828 110.637 141.99 110.519 141.511C110.466 141.305 110.545 141.088 110.72 140.964C112.115 139.963 112.884 138.926 113.005 137.882C113.168 136.322 111.848 134.935 110.526 134.425C108.926 133.803 107.07 134.004 105.635 134.25C105.428 134.252 104.802 134.595 104.581 134.021C104.492 133.786 104.587 133.519 104.806 133.392C106.603 132.341 109.091 130.717 109.319 128.801C109.507 127.204 108.08 125.153 104.879 124.96C104.41 124.932 104.216 124.345 104.577 124.046C105.645 123.152 106.203 122.293 106.28 121.418C106.484 119.686 104.831 117.531 101.39 117.531L101.389 117.53Z" fill="#C4C4C4"/>
<path d="M91.9799 129.87C95.1145 126.095 99.8787 123.886 104.824 123.983C105.503 123.996 105.493 125.019 104.813 125.019C104.606 125.067 97.6775 124.631 92.7785 130.531C92.3369 131.058 91.5438 130.397 91.9799 129.869V129.87Z" fill="#C4C4C4"/>
<path d="M102.356 145.313C104.783 143.15 107.747 141.641 110.931 140.95C111.601 140.805 111.821 141.817 111.149 141.962C108.143 142.615 105.34 144.042 103.05 146.086C102.542 146.536 101.844 145.774 102.356 145.313Z" fill="#C4C4C4"/>
<path d="M96.5823 139.555C98.6383 136.586 101.665 134.337 105.106 133.222C105.767 133.016 106.075 133.997 105.426 134.207C102.201 135.252 99.364 137.361 97.438 140.143C97.0466 140.706 96.1929 140.121 96.5823 139.554V139.555Z" fill="#C4C4C4"/>
<path d="M179.586 65.1955C174.392 68.8663 167.238 68.6665 162.645 63.7028L162.853 61.2363C161.794 64.4279 160.195 67.2465 158.181 69.6299C179.046 78.0234 193.766 98.23 193.766 121.835C193.766 152.921 168.188 178.144 136.63 178.144C105.072 178.144 79.4944 152.922 79.4944 121.835C79.4944 99.7633 92.3665 80.6553 111.114 71.4124C107.956 68.8032 105.792 65.3569 105.093 63.2674C101.647 66.6876 96.3114 68.0341 91.6608 66.77C76.0482 79.5155 66.1243 98.7477 66.1243 120.28C66.1243 158.662 97.6817 189.791 136.63 189.791C175.579 189.791 207.116 158.662 207.116 120.28C207.116 97.8359 196.34 77.8984 179.586 65.1948L179.586 65.1955Z" fill="#404040"/>
<path d="M164.625 39.8762L163.677 31.2395C163.6 30.5639 164.633 30.4355 164.706 31.1262L165.655 39.7629C165.733 40.442 164.699 40.5669 164.625 39.8762Z" fill="#007C99"/>
<path d="M95.252 67.767C85.9114 67.767 80.0054 58.9155 81.3921 51.1358C82.4707 45.0803 87.9001 40.0774 94.0214 39.4986C97.3645 39.1676 101.655 40.4001 103.182 43.8684C103.46 44.4994 102.507 44.9093 102.233 44.2852C100.909 41.2886 97.0831 40.2353 94.1212 40.5306C88.4462 41.0668 83.4158 45.7044 82.4143 51.3178C81.4169 56.9167 84.533 63.0024 89.6645 65.475C94.6605 67.8968 101.286 66.6354 105.086 62.5423C105.56 62.0397 106.312 62.7476 105.848 63.2468C103.121 66.1836 99.1839 67.767 95.252 67.767Z" fill="#959595"/>
<path d="M162.263 64.0543C161.794 63.5496 162.566 62.8472 163.025 63.3519C166.817 67.447 172.613 68.3658 177.79 65.6872C182.87 63.0923 185.842 56.929 184.703 51.35C183.564 45.7772 178.42 41.2598 172.739 40.8423C169.921 40.626 166.237 41.6903 164.856 44.5316C164.557 45.1462 163.622 44.6964 163.923 44.0785C165.523 40.7826 169.543 39.5665 172.816 39.8082C178.943 40.2593 184.493 45.1318 185.721 51.144C186.948 57.1618 183.744 63.8106 178.266 66.6093C172.606 69.5337 166.34 68.4578 162.263 64.0543Z" fill="#959595"/>
<path d="M128.412 78.2967C118.481 78.2919 109.426 72.638 105.344 63.895C99.5664 51.5182 101.549 32.8435 112.855 26.3774C113.441 26.0313 113.97 26.935 113.37 27.2762C102.539 33.4725 100.698 51.4887 106.285 63.4583C110.197 71.8381 118.882 77.2564 128.412 77.2612C130.381 77.2612 131.998 77.6066 133.881 77.0477C134.546 76.8533 134.834 77.8469 134.177 78.0412C132.074 78.6599 130.361 78.2974 128.411 78.2974L128.412 78.2967Z" fill="#959595"/>
<path d="M144.733 77.1994C157.642 74.8985 167.335 61.1615 163.67 43.1961C163.534 42.5232 164.548 42.32 164.688 42.9894C168.486 61.625 158.312 75.8316 144.916 78.2191C144.236 78.3324 144.061 77.3196 144.734 77.1988L144.733 77.1994Z" fill="#959595"/>
<path d="M130.164 98.6083C130.087 94.7082 129.802 78.4093 129.798 78.1772C129.784 77.4899 130.827 77.4659 130.836 78.1573C130.84 78.3921 131.125 94.6938 131.202 98.5884C131.216 99.2757 130.179 99.3005 130.164 98.6083Z" fill="#959595"/>
<path d="M147.109 97.0133C147.122 93.0568 145.937 81.2884 145.954 77.2873C145.956 77.0017 146.187 76.771 146.473 76.771H146.475C146.761 76.7717 146.994 77.0045 146.992 77.2908C146.976 81.2012 148.164 93.0438 148.148 97.0167C148.143 97.7102 147.105 97.6985 147.11 97.0126L147.109 97.0133Z" fill="#959595"/>
<path d="M169.995 52.7123C172.479 50.0289 176.824 49.2248 180.106 50.8433C180.723 51.1468 180.263 52.0792 179.648 51.7723C176.759 50.3482 172.939 51.0568 170.757 53.4148C170.299 53.9187 169.525 53.2184 169.995 52.7123Z" fill="#959595"/>
<path d="M174.61 56.4078C174.961 54.889 174.627 53.2266 173.71 51.9604C173.31 51.4015 174.152 50.7979 174.553 51.3534C175.64 52.8592 176.04 54.8354 175.619 56.642C175.467 57.308 174.454 57.0766 174.61 56.4085L174.61 56.4078Z" fill="#959595"/>
<path d="M88.5577 53.8487C91.0395 51.1653 95.3862 50.3626 98.6666 51.9804C99.2843 52.2839 98.8235 53.2136 98.2085 52.9094C95.3215 51.4853 91.5018 52.1932 89.3199 54.5505C88.8617 55.0538 88.0886 54.3555 88.5577 53.848V53.8487Z" fill="#959595"/>
<path d="M93.1698 57.5456C93.5207 56.0268 93.1864 54.3644 92.2715 53.0969C91.8718 52.5393 92.7138 51.9344 93.1148 52.4919C94.1996 53.9977 94.5992 55.9739 94.1789 57.7784C94.0262 58.4458 93.0137 58.2144 93.1692 57.5456H93.1698Z" fill="#959595"/>
<path d="M131.461 63.5119C133.199 62.9344 134.583 62.8678 136.031 61.9099C137.787 60.7522 137.548 59.2979 137.215 57.2847C137.104 56.6063 135.442 45.2732 135.279 44.064C135.189 43.4007 136.208 43.2249 136.308 43.9267C136.468 45.116 138.149 56.5713 138.239 57.1171C138.573 59.1482 138.92 61.248 136.602 62.7751C134.959 63.8627 133.523 63.9184 131.789 64.4965C131.135 64.7142 130.812 63.7302 131.461 63.5132V63.5119Z" fill="#C4C4C4"/>
<path d="M123.962 33.6367C127.321 33.945 123.563 38.8888 120.798 40.1646C119.611 40.7118 118.396 40.2037 118.96 38.7089C119.312 37.7778 119.881 36.9387 120.5 36.1772C121.449 35.0113 122.347 33.4877 123.962 33.636V33.6367Z" fill="#959595"/>
<path d="M149.7 35.288C149.744 35.8085 149.575 36.3866 149.132 36.664C147.682 37.5725 143.822 34.9179 142.706 33.3221C141.958 32.2523 142.246 30.969 143.82 31.2615C144.8 31.4435 145.727 31.8562 146.586 32.3313C147.903 33.0592 149.563 33.6744 149.7 35.288Z" fill="#959595"/>
<path d="M171.697 22.1711C170.396 21.5806 170.306 21.3265 170.368 20.2643C171.011 8.32351 159.326 4.42886 155.669 8.86596C153.531 4.82506 149.876 1.48865 145.454 0.369423C141.011 -0.749808 135.883 0.701073 133.185 4.38973C132.499 5.3833 132.035 5.30777 131.254 4.47281C128.099 0.949638 122.804 -0.501242 118.257 0.929038C113.731 2.33803 110.222 6.5451 109.641 11.25C106.111 8.43132 100.693 9.05342 97.0598 11.7471C89.5166 17.3728 86.9171 31.6626 89.399 41.404C95.164 38.4439 101.087 40.4008 102.707 44.0778L103.019 46.0052C103.102 44.8654 103.227 43.6837 103.434 42.482C106.384 43.8553 110.34 40.3404 111.987 37.2388C113.62 34.1187 114.047 30.542 114.336 27.038C114.273 27.0641 114.215 27.1087 114.147 27.1087C114.003 27.1087 113.858 27.0483 113.756 26.9309C111.536 24.3828 109.936 21.3018 109.129 18.0217C108.969 17.3549 109.969 17.1119 110.139 17.7745C110.905 20.8953 112.428 23.8259 114.539 26.2504C114.663 26.3933 114.663 26.5725 114.608 26.74C121.267 31.4765 130.651 30.1561 135.664 23.4338C135.539 23.3061 135.459 23.142 135.51 22.958C136.07 20.9667 135.859 18.7633 134.93 16.9114C134.623 16.2955 135.554 15.8368 135.859 16.4479C136.901 18.5264 137.138 21.0017 136.512 23.2367C136.494 23.2992 136.445 23.337 136.409 23.3857C139.624 29.376 147.258 31.3419 153.009 27.4328C152.973 26.8876 154.282 23.6474 153.147 18.9232C152.986 18.2565 153.996 18.0148 154.156 18.6822C155.192 22.995 154.248 27.2687 153.87 27.7199C155.424 32.5058 157.147 37.359 160.547 41.0291C161.42 41.9622 162.644 42.8322 163.848 42.9984C163.879 43.2215 164.181 45.4332 164.181 45.4648L164.243 44.6147C164.534 43.9102 164.97 43.2888 165.489 42.7498C165.712 42.6757 166.084 42.3323 166.319 42.0453C166.319 42.0247 166.34 42.0041 166.361 41.9828C168.505 40.4399 171.817 39.8048 175.018 40.7187C179.426 31.9207 176.751 24.4068 171.696 22.1704L171.697 22.1711Z" fill="#404040"/>
<path d="M149.959 104.115C152.721 103.726 155.093 101.399 155.54 98.6537C155.987 95.9043 154.467 92.9531 151.974 91.7124C153.537 90.5849 153.319 88.0066 151.986 86.612C150.65 85.2215 148.627 84.7587 146.71 84.5438C141.39 83.956 135.91 84.8198 131.048 87.0535C129.366 87.828 127.059 88.481 126.609 90.5403C126.223 92.2837 127.218 93.5409 128.855 94.1122C129.269 94.2585 129.773 94.38 129.939 94.7851C130.082 95.1422 129.871 95.5596 129.57 95.8027C129.265 96.0458 128.888 96.1673 128.542 96.3459C125.992 97.669 126.181 101.419 128.863 102.472C134.554 104.714 140.188 105.561 146.236 104.637" fill="#C4C4C4"/>
<path d="M130.352 96.1412C127.087 96.1412 126.247 93.4509 126.145 90.2525C126.137 89.9669 126.362 89.7272 126.648 89.7183C126.92 89.7307 127.173 89.9339 127.183 90.2203C127.332 94.9945 129.005 95.3948 131.942 94.943L146.152 92.7169C146.855 92.6276 146.975 93.6363 146.315 93.7407C130.423 96.2284 131.254 96.1412 130.352 96.1412Z" fill="#959595"/>
<path d="M129.251 70.8321C128.927 67.758 127.046 66.0888 125.176 66.0133C124.524 65.981 123.875 66.1485 123.238 66.3058C122.562 66.4623 122.33 65.4598 122.99 65.2999C123.667 65.133 124.426 64.9469 125.218 64.9771C127.589 65.0746 129.899 67.1078 130.285 70.723C130.354 71.4103 129.324 71.5167 129.251 70.8321Z" fill="#C4C4C4"/>
<path d="M137.52 209.762C168.058 189.754 198.777 169.079 228.821 148.312C229.393 147.924 229.974 148.777 229.414 149.165C199.36 169.936 168.633 190.615 138.087 210.629C137.524 211.002 136.935 210.143 137.52 209.762Z" fill="#959595"/>
<path d="M148.59 216.079C159.597 210.166 170.233 203.358 180.204 195.843C180.754 195.431 181.376 196.257 180.829 196.671C170.817 204.216 160.136 211.054 149.08 216.992C148.482 217.314 147.979 216.406 148.59 216.079V216.079Z" fill="#959595"/>
<path d="M134.738 103.355C134.058 103.236 134.25 102.21 134.92 102.335C139.519 103.149 144.198 103.277 148.839 102.72C150.648 102.502 152.081 102.182 153.206 101.325C154.873 100.054 155.465 97.5804 154.555 95.6942C154.257 95.0756 155.195 94.6286 155.492 95.2452C156.607 97.5578 155.881 100.59 153.835 102.149C152.448 103.207 150.674 103.543 148.965 103.749C144.227 104.321 139.446 104.19 134.738 103.355Z" fill="#959595"/>
</g>
<defs>
<clipPath id="clip0_1619_223">
<rect width="262" height="249" fill="white"/>
</clipPath>
</defs>
</svg>
