<svg width="239" height="249" viewBox="0 0 239 249" fill="none" xmlns="http://www.w3.org/2000/svg">
<g clip-path="url(#clip0_1661_1526)">
<path d="M187.321 128.032H140.006C119.978 128.032 99.8924 128.498 79.8648 128.032C78.6894 128.111 74.079 127.683 70.3278 129.938C65.1321 133.165 65.4582 139.598 65.4033 145.09C65.4033 145.79 65.4033 146.49 65.4227 147.191C68.5758 145.712 71.7095 144.234 74.8432 142.756C82.2055 139.297 92.7832 129.353 105.77 144.448C106.957 145.829 108.086 147.366 108.378 149.175C108.689 150.964 107.969 153.065 106.315 153.823C105.206 154.368 103.882 154.174 102.636 153.765C104.325 156.875 103.201 159.705 101.352 160.553C99.3017 161.485 96.4306 160.134 94.3256 158.998C94.4428 159.134 94.5594 159.231 94.6759 159.367C95.8633 160.748 96.9724 162.304 97.2838 164.075C97.6147 165.884 96.8753 167.984 95.2398 168.762C93.8776 169.384 92.2039 168.995 90.8022 168.393C90.9388 168.704 91.0165 169.035 91.0553 169.327C91.5027 170.26 91.0165 171.874 90.1599 172.419C88.359 173.537 84.4947 172.72 82.3944 171.602C76.9977 168.596 75.7654 169.922 65.8313 175.648C66.1233 186.268 66.6483 196.889 67.5632 207.451C68.2108 214.782 69.8898 220.174 77.1778 221.552C79.2634 221.952 71.7537 222.11 182.863 221.941C189.344 221.941 194.599 216.923 194.599 210.699V134.995C194.599 131.144 191.329 128.032 187.32 128.032L187.321 128.032ZM153.475 140.363C152.521 139.177 151.567 137.971 150.633 136.764C149.674 137.839 148.625 139.095 147.461 139.994C146.964 140.366 146.348 139.599 146.877 139.216C147.956 138.382 148.868 137.287 150.049 135.967C149.27 134.936 148.492 133.924 147.753 132.874C147.385 132.369 148.161 131.774 148.551 132.311C149.252 133.283 149.972 134.256 150.711 135.228L153.144 132.505C153.57 132.033 154.277 132.661 153.865 133.166L151.296 136.025C152.249 137.29 153.242 138.534 154.234 139.74C154.642 140.237 153.879 140.848 153.476 140.362L153.475 140.363ZM166.963 140.246C165.62 141.005 164.433 141.394 163.304 141.413C163.109 141.299 158.395 142.168 159.022 135.266C159.48 130.701 162.379 130.806 167.061 131.415C168.658 131.643 169.669 132.21 169.669 135.014C169.627 137.731 169.234 138.939 166.964 140.246H166.963ZM182.729 135.286C179.62 134.563 176.244 136.127 172.88 135.753C172.226 135.707 172.334 134.708 172.977 134.8C176.296 135.158 179.519 133.541 182.942 134.333C183.559 134.465 183.382 135.425 182.728 135.287L182.729 135.286Z" fill="#C4C4C4"/>
<path d="M166.942 132.384C162.029 131.762 160.326 131.882 160.001 135.353C159.719 138.32 160.315 140.54 163.281 140.448C164.239 140.418 165.286 140.074 166.482 139.392C168.341 138.336 168.674 137.466 168.686 135.011C168.701 132.687 167.981 132.515 166.942 132.384Z" fill="#C4C4C4"/>
<path d="M97.4118 52.9229C95.9317 52.8393 94.2774 52.6218 93.3606 51.4578C92.3098 50.1239 92.4578 47.4406 93.2842 45.9748C94.5681 43.6985 97.6348 43.07 100.213 43.5058C102.792 43.9415 105.177 45.171 107.744 45.6737C109.734 46.0632 113.376 45.5933 114.882 47.201C116.704 49.1454 113.396 50.5777 111.932 51.1593C107.354 52.9778 102.277 53.1987 97.4124 52.9236L97.4118 52.9229Z" fill="#404040"/>
<path d="M100.73 100.236C98.9984 104.867 103.517 108.432 106.316 118.092C94.1462 118.157 81.2405 118.157 68.5959 117.877C67.659 117.938 61.616 117.464 57.0739 120.017C56.8408 120.211 56.4825 120.322 55.6722 120.99C49.2468 125.868 50.8655 136.68 50.5728 139.137C50.5923 141.919 50.5923 144.7 50.6311 147.482C41.7639 147.176 33.4164 149.014 25.6984 153.317C24.9007 153.764 24.0247 154.25 23.1293 154.056C21.1831 153.628 21.2996 150.808 21.8836 148.901C21.9459 148.707 24.667 140.19 24.667 139.993C26.6126 133.747 24.4098 133.316 22.9545 131.065C20.8328 127.817 22.5265 123.518 24.4145 120.153C26.3219 116.788 28.4824 112.917 27.1979 109.28C26.1732 106.397 22.8962 104.292 18.2255 95.7427C13.3439 86.7586 20.003 85.9922 22.6437 82.2247C26.8764 86.0136 32.9663 86.5692 38.0194 84.4227C40.7432 89.6895 45.6463 95.0326 51.9156 98.6027C53.5411 99.5384 56.2903 101.123 58.2218 101.364C58.2218 102.181 58.5533 103.076 58.6886 103.991C58.7348 104.319 59.5553 110.5 59.5841 110.721C59.8171 112.554 59.4012 116.026 60.8686 117.275C61.7051 117.976 62.932 117.917 64.0217 117.801C75.7895 116.744 75.5022 116.819 76.0695 116.303C76.342 116.03 76.478 115.7 76.5363 115.311C77.2214 115.386 79.5708 115.625 79.9814 115.078C80.2519 114.752 80.2841 115.364 78.8529 101.481C79.826 101.287 80.7603 100.995 81.6751 100.625C95.1173 95.3311 100.513 81.7789 98.6662 67.0139C98.1404 62.8709 97.6348 58.9032 95.7468 55.1678C92.6915 49.138 87.2225 44.7427 81.1105 43.4388C71.9942 41.5032 57.7363 40.7302 49.23 44.159C45.357 45.7152 42.0867 48.4968 39.3428 51.5897C37.9806 53.1458 36.4817 54.8573 35.4892 56.6858C35.4309 56.803 35.3525 56.9194 35.3144 57.0553C31.0515 55.6538 26.3782 57.0031 22.9163 59.8563C22.9163 53.9283 24.0508 45.9381 28.0739 41.8834C30.3898 39.5682 34.2441 38.4599 37.0269 40.1907C38.6818 22.4299 60.7326 19.7553 61.5698 25.9719C63.5355 21.3429 68.7714 18.3471 73.773 18.989C78.7558 19.6308 83.0568 23.8709 83.7774 28.8312C83.5597 27.3393 90.5986 21.7599 93.9566 23.8127C96.1172 25.1158 97.6542 28.0528 98.5885 30.2903C99.3868 32.1965 99.9125 34.2579 101.177 35.8917C101.8 36.7083 102.578 37.3896 103.123 38.2644C104.583 40.5789 101.936 44.5472 101.04 46.8229C99.3473 51.1794 100.359 56.1397 100.553 60.6716C100.729 64.6787 103.337 68.4516 103.161 72.264C103.123 73.5089 102.597 74.6561 102.403 75.8823C101.527 81.8144 108.67 87.4165 106.353 92.9597C105.166 95.8003 101.799 97.3363 100.728 100.235L100.73 100.236Z" fill="#76D8EF"/>
<path d="M31.91 86.1555C21.9391 86.1555 15.7307 76.7236 17.2007 68.4643C18.723 59.9286 28.1575 53.8767 35.8146 56.7159C36.4207 56.9395 36.0737 57.8524 35.4763 57.6275C28.3779 55.0018 19.5776 60.6762 18.1591 68.635C17.0869 74.6615 20.4268 81.2013 25.9293 83.8484C29.5921 85.6228 34.1248 85.6301 38.0541 83.8618C38.6381 83.5954 39.0406 84.4849 38.4533 84.7486C36.3704 85.6863 34.1235 86.1555 31.9114 86.1555H31.91Z" fill="#404040"/>
<path d="M33.212 70.4389C30.8017 67.9517 26.6681 67.2898 23.6021 68.8975C23.0328 69.198 22.5794 68.3359 23.15 68.0367C26.5824 66.2363 31.2109 66.9759 33.9119 69.7622C34.3599 70.226 33.6574 70.9007 33.2127 70.4382L33.212 70.4389Z" fill="#404040"/>
<path d="M28.1219 74.0397C27.635 72.1402 28.0061 70.0386 29.1158 68.4188C29.4775 67.8907 30.2838 68.4349 29.9181 68.9677C28.9658 70.3598 28.6463 72.1656 29.0649 73.7981C29.2236 74.4199 28.284 74.6635 28.1219 74.039V74.0397Z" fill="#404040"/>
<path d="M61.1806 116.607C58.9048 115.868 58.8278 113.659 58.8847 111.434C58.9544 108.812 58.5412 104.066 57.7174 101.288C57.5319 100.676 58.4648 100.39 58.649 101.012C59.5056 103.899 59.9275 108.686 59.8578 111.459C59.8116 113.28 59.75 115.121 61.4866 115.684C62.7785 116.121 64.3504 115.704 65.714 115.422C71.8152 114.133 72.4227 114.384 76.5877 114.826C77.3458 114.908 78.2453 114.98 79.1615 114.903C79.6022 114.843 79.7147 114.833 79.635 114.286C79.2097 110.139 78.8213 105.964 78.3879 101.744C78.3263 101.126 79.2854 100.973 79.357 101.645C79.7944 105.95 80.2036 110.32 80.6021 114.171C80.736 115.168 80.3623 115.724 79.2794 115.868C78.2453 115.957 77.2876 115.88 76.4832 115.793C72.4273 115.356 71.982 115.094 65.9156 116.373C64.3725 116.679 62.7424 117.137 61.1812 116.607H61.1806Z" fill="#404040"/>
<path d="M74.1719 103.161C73.5498 103.161 73.5183 102.23 74.1418 102.19C77.1509 102 78.9866 101.114 79.5438 100.943C82.1551 99.9869 84.6224 99.084 86.8787 97.5888C92.8032 93.6626 97.3486 86.7185 98.6158 78.5014C99.7476 70.5406 98.2849 69.1076 99.3726 69.0079C99.6518 68.9851 99.8762 69.1819 99.901 69.4483C101.055 82.2703 95.6663 92.931 87.4152 98.3993C84.9037 100.065 82.0567 101.058 79.2197 102.097C77.532 102.718 75.9849 103.046 74.2034 103.159C74.194 103.16 74.1827 103.16 74.1733 103.16L74.1719 103.161Z" fill="#404040"/>
<path d="M60.5839 102.127C50.2667 100.064 42.2963 93.4537 38.0301 84.9769C34.0104 76.986 31.3757 64.8775 36.0323 54.8593C36.3022 54.2757 37.1869 54.6859 36.9143 55.2696C32.4037 64.9726 34.9835 76.7517 38.9008 84.5398C43.0129 92.7134 50.7034 99.1556 60.7741 101.174C61.4037 101.3 61.2182 102.258 60.5839 102.127Z" fill="#404040"/>
<path d="M69.6447 81.1719C71.1583 80.5508 72.3263 80.4926 73.568 79.4712C75.1211 78.2049 74.8967 76.5343 74.6154 74.4172C74.1721 71.1175 73.8332 66.3648 73.148 60.0759C73.0811 59.4508 74.0375 59.3102 74.1172 59.9715C74.876 66.9892 74.6898 66.2791 75.4419 73.1844C75.7319 75.9125 76.4572 78.3695 74.1855 80.2228C72.7643 81.3901 71.4804 81.4684 70.0137 82.0721C69.4123 82.3164 69.054 81.4155 69.6447 81.1719Z" fill="#404040"/>
<path d="M59.9738 41.9142C48.9641 46.6234 39.754 57.4984 35.3927 68.9797C35.0907 69.7789 34.287 69.4697 33.9287 68.6933C32.6682 65.9631 35.6037 49.7946 38.2263 41.6538" fill="#76D8EF"/>
<path d="M57.0502 41.6357C55.6016 37.2839 56.3758 32.2781 59.0688 28.5721C59.4452 28.0534 60.2341 28.6217 59.8557 29.1437C57.3429 32.6 56.623 37.2691 57.9738 41.3278C58.1781 41.9382 57.2552 42.2448 57.0502 41.6357Z" fill="#404040"/>
<path d="M43.7434 54.2682C43.2531 51.9357 42.9966 49.5449 42.9812 47.1628C42.9792 46.8951 43.1962 46.6756 43.4641 46.6736H43.4681C44.4821 46.6736 43.4554 48.1789 44.6977 54.0681C44.7527 54.3305 44.5839 54.5888 44.3213 54.6437C44.0682 54.6999 43.8016 54.538 43.7434 54.2676V54.2682Z" fill="#404040"/>
<path d="M57.3565 54.3272C56.8964 54.6417 56.5327 55.1718 56.6017 55.724C56.7658 57.0405 59.3094 57.9823 60.6053 58.3571C65.558 59.7881 67.4835 57.1336 61.8979 54.9008C60.4098 54.3057 58.7823 53.352 57.3565 54.3272Z" fill="#404040"/>
<path d="M82.4721 51.5603C83.0058 51.7209 83.5128 52.1158 83.6146 52.6633C83.701 53.1271 83.484 53.593 83.2215 53.9845C82.5584 54.9765 81.5887 55.7207 80.5961 56.3833C76.3092 59.246 73.6698 57.2976 78.317 53.4799C79.5554 52.4625 80.8172 51.0617 82.4721 51.5596V51.5603Z" fill="#404040"/>
<path d="M60.7708 42.0774C65.7107 41.718 70.6406 42.7655 75.4298 44.0265C87.4381 47.1869 89.1285 52.6539 96.9349 49.5496C98.6654 48.8615 100.416 47.9479 101.427 46.3844C103.133 43.746 100.752 37.7055 98.1879 36.1574C96.0153 34.8455 90.9803 35.9305 88.5505 36.6701" fill="#76D8EF"/>
<path d="M77.9848 42.6083C79.6786 38.3267 82.7232 34.5532 86.5554 31.9843C87.0858 31.6263 87.635 32.4321 87.0992 32.7915C83.427 35.2526 80.513 38.8655 78.8903 42.965C78.6512 43.5654 77.7497 43.204 77.9855 42.6076L77.9848 42.6083Z" fill="#404040"/>
<path d="M66.4722 89.7324C63.1349 89.7324 61.0708 86.4788 61.9716 83.6129C62.1632 82.9991 63.0948 83.2902 62.8992 83.9033C62.4223 85.426 63.0606 87.2465 64.382 88.1394C65.7067 89.0323 67.6302 88.9439 68.8678 87.9292C69.3601 87.5216 69.9856 88.2733 69.484 88.6815C68.6341 89.379 67.5532 89.7317 66.4735 89.7317L66.4722 89.7324Z" fill="#404040"/>
<path d="M84.4577 118.092C68.2676 118.032 60.7901 116.774 55.6713 120.99C55.3793 120.406 55.3016 119.706 55.4764 118.928C55.9372 116.786 58.2692 115.984 60.342 115.096C67.1519 111.966 74.77 111.54 79.9805 112.781C83.4618 113.759 84.735 115.938 84.457 118.092H84.4577Z" fill="#007C99"/>
<path d="M52.3629 204.551L2.0313 204.104C1.01934 190.411 5.1067 176.464 9.58251 163.646C10.9843 159.658 12.3465 155.243 14.5847 151.684C16.7453 148.222 19.6646 145.187 22.3898 142.173C29.6959 134.282 40.2207 132.482 50.7863 131.416C50.4039 135.09 50.631 147.543 50.6892 154.097C41.6773 158.356 32.6661 162.577 23.6355 166.817L37.4734 194.145C41.4249 191.384 46.5041 187.844 51.3703 184.614C51.6041 191.267 51.9349 197.919 52.3629 204.552V204.551Z" fill="#007C99"/>
<path d="M55.2716 121.016C55.1443 120.294 55.072 119.508 55.0492 118.609C55.0352 117.956 56.0049 117.959 56.0223 118.584C56.0431 119.434 56.1114 120.174 56.2293 120.846C56.3425 121.476 55.3848 121.653 55.2716 121.016Z" fill="#404040"/>
<path d="M17.2122 64.1547C17.9603 65.2102 19.1042 64.6386 19.9407 64.1105C31.2538 57.1142 45.008 51.6125 66.4542 48.6307C103.266 43.4348 113.388 50.2839 115.784 48.4547C118.204 46.6515 104.871 37.9873 102.979 37.0202C102.93 36.8254 102.218 33.1522 101.263 30.1597C97.7419 18.7259 89.1614 8.91853 78.2474 3.94891C64.1858 -2.54072 46.6891 -1.45376 34.8583 10.3703H34.8141C31.1178 13.7998 27.8174 17.7146 25.1773 22.0243C19.1725 31.7012 18.0032 39.929 18.8403 50.654C19.0165 52.8969 19.9407 55.7113 18.9723 57.8217C18.4881 58.9213 17.3 59.5371 16.9035 60.5926C16.5083 61.5598 16.6396 63.2745 17.2116 64.1547H17.2122Z" fill="#007C99"/>
<path d="M34.8582 10.3702C68.9622 -2.25164 72.4387 34.8656 72.4387 35.6574C72.4387 36.7129 72.7468 36.3173 73.4949 36.1413C77.2132 35.3147 92.2165 35.5155 96.3334 35.6574C96.5095 34.8214 90.129 14.2402 78.2473 3.94952C64.1856 -2.54011 46.6889 -1.45315 34.8582 10.3709V10.3702Z" fill="#007C99"/>
<path d="M20.3364 32.4903C20.3806 32.4903 20.3806 32.4461 20.4248 32.4461C21.8333 31.3029 23.813 30.5553 25.5295 31.2153C28.5145 32.4943 29.9732 38.6961 30.4581 41.9021C30.6342 43.1337 30.7226 44.3203 30.7661 45.5519C30.7661 46.0793 30.4139 47.9701 30.9858 48.3228C31.03 48.3228 31.0742 48.3228 31.1177 48.367C31.5136 48.4112 32.6139 47.5752 33.0104 47.3557C39.2295 44.4268 40.7585 43.5794 41.1945 43.3974C41.2829 39.7034 41.019 35.9647 39.7867 32.4468C37.085 24.8267 30.9731 21.183 25.1772 22.025C23.0435 25.4639 21.329 29.2702 20.3364 32.491V32.4903Z" fill="#007C99"/>
<path d="M21.4293 57.4931C50.951 28.8834 105.201 35.9707 105.746 36.0477C106.373 36.1327 106.275 37.0858 105.613 37.0108C105.069 36.9365 51.2852 29.9141 22.1057 58.1925C21.6403 58.6396 20.9672 57.9388 21.4293 57.4937V57.4931Z" fill="#404040"/>
<path d="M130.372 97.9595L124.183 109.864C123.906 110.415 123.001 109.974 123.326 109.417L129.516 97.5124C129.805 96.9341 130.653 97.3993 130.372 97.9595H130.372ZM153.007 44.4308C152.054 40.9885 151.995 37.3314 152.832 33.8497C153.025 33.2265 153.926 33.4782 153.786 34.0832C152.988 37.3896 153.027 40.8908 153.941 44.1784C154.127 44.7795 153.186 45.086 153.007 44.4308ZM191.778 28.4811C191.525 27.2757 191.174 25.9525 190.143 25.2912C187.593 23.6179 184.168 30.5038 183.292 32.1965C181.365 35.8141 179.769 39.8406 175.954 41.8827C172.276 43.8471 167.352 43.1276 164.393 40.1706C156.426 32.2078 168.582 20.6161 167.216 17.0239C165.618 12.7831 151.595 18.3458 148.064 31.0867C146.098 38.1085 147.675 45.9468 151.859 51.9183C139.967 73.2754 124.786 91.929 115.171 114.745C114.743 115.776 114.47 116.904 114.393 118.032C140.911 117.819 142.533 117.889 146.059 117.876C146.95 115.875 148.767 111.242 149.563 109.201C144.05 104.329 148.494 100.71 152.463 101.615C152.463 101.596 152.463 101.557 152.482 101.518C151.334 100.915 150.205 100.313 149.095 99.6508C147.869 98.9307 146.604 98.0947 146.02 96.811C145.339 95.2742 145.864 93.3292 147.188 92.2791C148.648 91.1118 150.73 91.2677 152.871 91.9872C152.229 91.6372 151.587 91.2871 150.964 90.9177C148.9 89.7116 145.67 88.6608 145.145 86.0552C144.775 84.246 145.748 82.2615 147.402 81.4449C149.602 80.3754 151.645 81.7957 153.591 82.7093C153.747 82.7869 153.923 82.8646 154.098 82.9616C153.183 82.2421 152.443 81.3472 152.424 80.2388C152.385 78.9544 153.455 77.8072 154.701 77.4378C156.561 76.8863 158.547 77.7162 160.287 78.5857C164.749 64.836 163.135 70.1905 167.177 59.349C167.197 59.252 167.236 59.1543 167.313 59.096C167.715 58.7748 172.693 58.9561 176.773 57.7735C191.007 53.5374 194.718 43.2742 191.779 28.4804L191.778 28.4811Z" fill="#404040"/>
<path d="M52.7928 216.924C51.9028 206.494 51.2524 195.075 50.8848 184.63C50.8754 184.361 51.0864 184.136 51.3542 184.127C51.588 184.152 51.8485 184.329 51.8579 184.596C52.2242 195.063 52.8745 206.396 53.7626 216.842C54.0821 220.601 54.6024 224.912 56.7697 228.497C60.3367 234.545 67.5369 234.561 74.3722 234.497C76.1637 234.48 106.799 234.49 196.859 234.486C204.65 234.486 210.989 228.413 210.989 220.948V126.534C210.989 122.029 207.148 118.365 202.425 118.365C78.9706 118.486 89.0641 118.816 68.5851 118.365C67.7318 118.436 61.8255 117.906 57.3122 120.441C57.136 120.636 55.5267 121.36 54.1169 123.247L53.6092 123.091L53.999 123.383C50.3885 128.207 50.9993 134.316 51.1768 154.092C51.1815 154.716 50.2083 154.772 50.2036 154.099C50.0201 135.948 50.0536 133.78 50.3028 131.366C50.6564 127.753 51.6108 124.951 53.2201 122.8C54.4685 120.976 56.5614 119.811 56.761 119.646C61.5984 116.909 67.7479 117.465 68.5965 117.393C88.4506 117.83 81.3475 117.512 202.425 117.393C207.684 117.393 211.962 121.494 211.962 126.534V220.949C211.962 228.95 205.187 235.46 196.859 235.46C107.028 235.463 76.1597 235.454 74.3802 235.471C60.1471 235.596 54.1591 232.993 52.7942 216.926L52.7928 216.924Z" fill="#404040"/>
<path d="M144.95 168.489C144.444 166.855 143.957 165.221 143.451 163.587C143.004 162.148 142.75 160.553 142.089 159.191C141.505 158.026 140.9 157.697 139.617 157.83C139.39 157.798 138.688 157.884 138.371 158.122C138.157 158.297 138.021 158.55 137.865 158.783C137.573 159.97 136.036 159.892 135.16 160.008C134.417 160.108 134.14 160.102 133.408 159.736C131.727 158.912 130.091 157.673 130.255 155.807C130.324 155.014 130.263 155.546 132.377 150.011C132.669 149.253 132.63 148.222 132.143 147.56C131.642 146.902 130.184 145.947 129.535 145.634H129.516C129.379 145.576 129.263 145.537 129.127 145.596C129.049 145.634 128.991 145.732 128.932 145.79C128.815 145.907 128.659 145.965 128.504 145.946C128.27 145.907 128.134 145.596 127.978 145.46C127.647 145.187 127.142 145.031 126.771 144.818C125.992 144.429 125.214 144.02 124.455 143.612C123.249 142.97 122.314 143.203 121.556 144.312C120.621 145.635 119.687 146.958 118.792 148.3C118.321 149.04 118.218 148.645 113.732 148.32C111.917 148.166 110.683 148.688 109.528 146.841C107.515 143.742 107.138 142.995 106.725 142.582C106.044 141.959 105.012 142.309 104.117 142.659C105.843 144.384 107.993 146.778 108.379 149.176C108.691 150.965 107.971 153.066 106.316 153.824C105.207 154.369 103.883 154.175 102.638 153.766C104.327 156.875 103.202 159.706 101.353 160.554C99.303 161.486 96.4319 160.135 94.327 158.998C94.4442 159.134 94.5607 159.231 94.6772 159.368C95.8647 160.749 96.9737 162.305 97.2851 164.075C97.616 165.884 96.8766 167.985 95.2411 168.763C93.8789 169.385 92.2052 168.996 90.8035 168.394C90.9401 168.705 91.0178 169.035 91.0567 169.327C91.504 170.261 91.0178 171.875 90.1612 172.419C89.16 173.041 87.6852 172.965 86.5018 172.886L86.4435 173.236C86.3853 173.897 86.755 175.006 85.9767 175.337C84.4002 175.998 82.8437 176.698 81.2866 177.399C78.8535 178.508 81.3837 180.434 80.0215 181.873C79.6793 182.214 79.5373 182.343 79.6907 182.904C79.9304 184.155 81.0891 188.165 82.1432 188.797C82.5517 189.05 83.0581 189.069 83.5443 189.05C86.5567 188.965 89.5136 188.136 89.831 188.136C90.2791 188.038 90.4927 188.174 90.7653 188.524C94.7053 193.447 94.8225 193.073 94.5413 193.776C93.8401 195.468 92.7892 196.869 93.5876 198.814C94.4763 200.934 97.3575 201.934 101.801 204.279C101.957 204.357 102.132 204.454 102.327 204.473C103.555 204.683 104.717 202.312 106.414 200.019C106.55 199.825 106.9 199.669 107.134 199.688C108.049 199.766 108.944 199.844 109.839 199.941C110.228 199.961 111.222 199.922 111.863 200.018H111.883C112.116 200.057 112.291 200.116 112.389 200.194C112.759 200.524 112.915 201.963 113.07 202.469C113.321 203.159 113.557 203.773 114.024 204.765C114.276 205.29 114.549 205.835 115.036 206.185C116.623 207.337 118.471 206.416 125.818 204.22C127.083 203.831 127.59 202.956 127.356 201.672C127.064 200.058 126.791 198.444 126.48 196.829C126.321 195.995 126.495 196.428 131.229 192.336C131.895 191.797 131.594 192.022 136.679 193.912C137.166 194.087 137.691 194.126 138.313 194.262C139.615 192.837 138.438 195.038 143.121 186.209C144.235 184.128 143.051 183.451 141.077 182.163C137.719 179.776 138.079 180.331 138.079 179.479C138.78 173.303 138.405 173.393 139.11 173.08C140.687 172.419 142.244 171.719 143.801 171.018C144.891 170.531 145.281 169.618 144.95 168.489V168.489ZM102.287 184.108C100.788 182.551 99.6198 180.645 98.9193 178.428C96.5833 171.056 100.593 163.119 108.223 160.63C112.524 159.23 116.981 160.008 120.465 162.362C123.073 164.093 125.137 166.738 126.207 169.987C128.426 177.319 124.553 185.256 116.942 187.765C111.59 189.515 105.945 187.939 102.287 184.108Z" fill="#007C99"/>
<path d="M142.633 166.544C141.854 163.996 141.076 161.428 140.278 158.88C139.967 157.859 139.139 157.204 137.923 157.44C136.249 157.732 134.556 158.024 132.882 158.335C132.098 158.501 132.404 158.202 128.444 153.628C127.868 152.938 128.093 153.242 130.06 148.065C130.449 147.034 130.273 146.256 129.534 145.633H129.515C129.225 145.385 122.334 141.768 122.138 141.665C120.931 141.023 119.997 141.276 119.238 142.365C118.304 143.688 117.37 145.011 116.474 146.353C115.981 147.128 116.017 146.706 109.974 146.256C109.507 146.217 109.273 146.1 109.098 145.673C108.456 144.194 107.774 142.716 107.132 141.238C106.606 140.032 105.712 139.584 104.446 139.973C103.629 140.226 102.83 140.46 102.013 140.712C104.266 142.598 107.907 146.26 108.377 149.174C108.689 150.963 107.969 153.064 106.314 153.822C105.205 154.367 103.881 154.173 102.636 153.764C104.325 156.873 103.2 159.704 101.351 160.552C99.301 161.484 96.4298 160.133 94.3249 158.996C94.4421 159.132 94.5586 159.229 94.6751 159.366C95.8626 160.747 96.9716 162.303 97.2831 164.073C97.6139 165.882 96.8745 167.983 95.2391 168.761C93.8768 169.383 92.2032 168.994 90.8014 168.392C90.938 168.703 91.0157 169.033 91.0546 169.325C91.502 170.259 91.0157 171.873 90.1591 172.417C88.7393 173.299 85.8662 172.926 84.1644 172.359C84.1644 173.506 84.3613 173.025 78.968 175.452C77.8971 175.939 77.4885 176.852 77.8388 177.981C80.3081 186.062 80.225 186.246 80.8753 186.734C81.3033 187.084 81.8679 187.201 82.549 187.084C84.2032 186.792 85.8581 186.52 87.5124 186.189C88.3415 186.045 88.0294 186.221 92.0277 190.916C92.2802 191.208 92.378 191.441 92.2226 191.83C91.5997 193.347 91.0157 194.884 90.4317 196.402C89.9254 197.705 90.2368 198.579 91.4825 199.241C97.9856 202.71 98.8234 203.315 99.6961 203.19C100.953 203.103 101.131 202.141 104.095 198.075C104.483 197.522 104.851 197.765 110.615 198.289C111.273 198.324 111.183 198.531 111.861 200.02H111.881C111.964 200.217 113.373 203.473 113.574 203.755C114.119 204.611 114.916 204.882 116.026 204.552C118.518 203.793 121.008 203.034 123.5 202.276C124.765 201.887 125.271 201.012 125.037 199.728C124.745 198.114 124.473 196.499 124.161 194.885C124.037 194.058 124.178 194.483 128.91 190.392C129.573 189.855 129.272 190.077 134.36 191.967C134.847 192.143 135.372 192.182 135.995 192.317C137.384 190.864 136.237 192.875 140.802 184.265C141.473 182.984 141.446 182.018 140.063 181.114C135.706 178.04 135.675 178.394 135.762 177.535C136.464 171.345 136.089 171.448 136.793 171.136C138.37 170.474 139.927 169.774 141.483 169.074C142.574 168.587 142.963 167.673 142.632 166.545L142.633 166.544ZM96.6026 176.484C94.2666 169.112 98.2763 161.175 105.906 158.686C111.239 156.955 116.806 158.55 120.464 162.362C121.983 163.919 123.17 165.844 123.889 168.042C126.108 175.375 122.235 183.311 114.625 185.82C110.304 187.24 105.789 186.482 102.285 184.108C99.6774 182.377 97.6333 179.751 96.602 176.484H96.6026Z" fill="#007C99"/>
<path d="M50.6545 185.097C50.5065 184.874 50.5667 184.571 50.7898 184.424C56.8307 180.41 62.6989 176.742 72.1153 171.526C76.1886 169.287 78.1503 168.679 82.6321 171.177C84.354 172.093 86.2855 172.518 88.2297 172.439C88.963 172.395 89.4975 172.258 89.904 172.006C90.5543 171.593 90.9495 170.229 90.6166 169.537C90.5938 169.49 90.5804 169.44 90.5731 169.389C90.5463 169.189 90.4874 168.886 90.3581 168.588C90.1759 168.18 90.5985 167.771 90.995 167.946C92.1389 168.438 93.7623 168.904 95.0395 168.32C96.5471 167.603 97.0755 165.641 96.8056 164.163C96.5163 162.52 95.2036 160.573 94.1595 159.53C93.9365 159.31 93.6659 159.038 93.9465 158.693C94.3403 158.204 94.6008 158.738 96.748 159.618C98.0727 160.18 99.7685 160.739 101.15 160.112C102.748 159.378 103.77 156.88 102.209 153.997C101.997 153.605 102.382 153.165 102.789 153.304C104.193 153.764 105.279 153.791 106.1 153.388C107.617 152.692 108.157 150.743 107.9 149.258C107.621 147.539 106.533 146.083 105.401 144.766C92.8167 130.13 82.9301 139.497 75.0507 143.197C53.3421 153.406 40.3393 159.507 40.1143 159.613C39.5376 159.889 39.113 159.009 39.6997 158.733C39.906 158.636 55.4886 151.322 74.6362 142.317C82.0943 138.81 92.9124 128.748 106.138 144.131C107.307 145.489 108.543 147.141 108.86 149.097C109.185 150.981 108.486 153.364 106.519 154.266C105.698 154.671 104.709 154.752 103.52 154.506C104.668 157.431 103.437 160.133 101.556 160.996C99.7926 161.798 97.8758 161.147 96.1258 160.411C96.8652 161.445 97.5282 162.655 97.764 163.99C98.1571 166.144 97.1632 168.386 95.4507 169.201C94.3751 169.695 93.0598 169.69 91.5274 169.189C92.0237 170.345 91.4839 172.155 90.421 172.83C88.4467 174.054 84.4738 173.261 82.1666 172.031C78.1616 169.8 76.6869 170.126 72.5855 172.379C68.326 174.738 64.0169 177.241 59.7782 179.817C51.3316 184.946 51.1414 185.838 50.6551 185.098L50.6545 185.097Z" fill="#404040"/>
<path d="M102.114 153.951C99.7255 149.855 95.3267 146.881 90.6359 146.191C90.0003 146.096 90.1376 145.134 90.7766 145.228C95.8303 145.972 100.382 149.05 102.954 153.461C103.279 154.021 102.433 154.504 102.114 153.951Z" fill="#404040"/>
<path d="M90.3982 168.784C88.1781 166.449 85.3786 164.72 82.3012 163.781C81.6837 163.592 81.975 162.662 82.5865 162.85C85.8233 163.838 88.7694 165.658 91.1055 168.113C91.5455 168.578 90.8476 169.25 90.3982 168.784Z" fill="#404040"/>
<path d="M94.2266 159.474C91.539 157.157 88.1066 155.764 84.5617 155.554C83.9161 155.515 83.977 154.54 84.6186 154.584C88.3745 154.806 92.0125 156.281 94.8615 158.737C95.3497 159.158 94.7121 159.893 94.2266 159.474Z" fill="#404040"/>
<path d="M16.2117 163.317L36.8983 152.239L53.6992 190.923L31.156 201.762" fill="#76D8EF"/>
<path d="M31.3663 202.2L30.9444 201.324L53.0669 190.687L36.6619 152.917L16.442 163.745L15.9819 162.888L37.1334 151.561L54.3327 191.158L31.3663 202.2Z" fill="#404040"/>
<path d="M221.574 245.351L154.797 247.907C152.524 248.003 151.016 245.591 152.128 243.6C167.089 216.257 161.929 225.688 163.045 223.648C166.214 217.894 184.21 185.021 185.147 183.309C186.237 181.318 189.078 181.283 190.24 183.246C190.503 183.697 186.788 177.342 223.975 240.959C225.09 242.876 223.778 245.279 221.574 245.352V245.351Z" fill="#76D8EF"/>
<path d="M150.342 242.611L226.762 241.662C227.968 241.648 229.044 242.421 229.412 243.569L229.697 244.46C230.26 246.218 228.962 248.019 227.116 248.041L149.954 248.999C147.892 249.025 146.538 246.855 147.469 245.016L147.925 244.116C148.387 243.203 149.318 242.623 150.341 242.61L150.342 242.611Z" fill="#007C99"/>
<path d="M201.74 202.919C199.146 203.721 183.199 207.534 175.009 209.204C173.602 209.495 172.173 209.74 170.739 209.621L180.456 191.888C184.739 190.722 189.094 189.803 193.377 188.614L201.741 202.919H201.74Z" fill="#007C99"/>
<path d="M217.632 230.083C217.541 230.129 217.451 230.153 217.36 230.177C199.161 235.038 180.391 237.908 161.55 238.687C159.494 238.763 157.036 238.742 155.641 237.193L163.045 223.647C165.22 223.007 167.488 222.547 169.21 222.003C174.942 220.173 202.824 210.899 206.132 210.409L217.632 230.083H217.632Z" fill="#007C99"/>
<path d="M12.5381 116.885L0.206315 107.997C-0.313396 107.622 0.250517 106.833 0.776256 107.209L13.108 116.096C13.6337 116.477 13.0571 117.257 12.5381 116.885Z" fill="#404040"/>
<path d="M19.24 114.045C17.8449 110.457 16.5483 106.776 15.389 103.105C15.1941 102.492 16.1237 102.197 16.3166 102.812C19.7262 113.603 20.7489 113.982 19.8708 114.321C19.8119 114.344 19.3371 114.289 19.24 114.044V114.045Z" fill="#404040"/>
<path d="M11.5247 121.815L1.0139 119.997C0.372973 119.886 0.555139 118.91 1.18134 119.039L11.6921 120.858C12.3283 120.968 12.1529 121.941 11.5247 121.815Z" fill="#404040"/>
<path d="M151.192 110.974C149.326 109.93 146.393 107.302 146.468 104.694C146.526 102.636 148.645 101.244 150.518 101.018C148.56 99.9406 146.399 98.8282 145.582 97.0137C144.437 94.4663 146.126 90.842 150.005 90.9458C147.797 89.7992 145.183 88.6694 144.666 86.1475C144.253 84.1275 145.337 81.9201 147.188 81.0132C148.996 80.1277 150.693 80.7508 152.225 81.4944C150.983 78.8179 153.881 75.4465 158.676 77.3447C161.681 78.5301 166.975 81.1658 168.683 85.4976C171.471 92.5869 166.151 109.007 161.299 112.809C157.769 115.577 154.605 112.882 151.192 110.973V110.974ZM151.667 110.124C154.844 111.903 157.655 114.431 160.697 112.044C165.306 108.436 170.366 92.4437 167.778 85.8543C166.145 81.716 160.618 79.1579 158.318 78.2496C156.987 77.7242 155.82 77.6104 154.841 77.9056C153.885 78.1941 152.884 79.109 152.906 80.2361C152.925 81.1444 153.539 81.8933 154.366 82.5566C157.024 83.9548 160.362 86.6354 162.657 88.1099C163.201 88.4599 162.665 89.2778 162.133 88.9285C151.635 82.0071 154.845 83.9046 152.46 82.6979C150.813 81.8666 149.251 81.0795 147.617 81.8866C146.174 82.5934 145.296 84.3785 145.619 85.9514C146.097 88.2899 149.199 89.33 151.203 90.492C155.479 92.9657 153.855 91.2088 160.845 95.7601C161.36 96.0934 160.905 96.8812 160.357 96.6008C157.613 95.1791 155.056 93.799 152.6 92.4102C150.645 91.7637 148.776 91.6265 147.491 92.6525C146.334 93.5755 145.885 95.3157 146.468 96.6141C146.993 97.7794 148.171 98.5431 149.335 99.2258C150.503 99.9125 151.701 100.568 152.918 101.187C154.396 101.55 155.76 102.358 157.044 103.125C157.565 103.436 157.151 104.23 156.603 103.989C155.246 103.406 153.9 102.776 152.579 102.107C149.61 101.414 147.486 103.161 147.44 104.72C147.383 106.761 149.928 109.151 151.667 110.123V110.124Z" fill="#404040"/>
</g>
<defs>
<clipPath id="clip0_1661_1526">
<rect width="239" height="249" fill="white"/>
</clipPath>
</defs>
</svg>
